<svg width="12" height="16" viewBox="0 0 12 16" fill="none" xmlns="http://www.w3.org/2000/svg">
<path d="M0.960052 15.9747L0.214844 15.2087L2.63151 12.792H0.618594V11.7087H4.46005V15.5499H3.37672V13.558L0.960052 15.9747ZM6.12026 15.5837V14.5003H10.2436C10.3185 14.5003 10.3799 14.4763 10.428 14.4282C10.476 14.3802 10.5001 14.3187 10.5001 14.2439V4.58366H7.41672V1.50033H1.75651C1.68165 1.50033 1.62019 1.52435 1.57214 1.57241C1.52408 1.62046 1.50005 1.68192 1.50005 1.75678V10.0485H0.416719V1.75678C0.416719 1.38706 0.547552 1.0713 0.809219 0.809493C1.07102 0.547826 1.38679 0.416992 1.75651 0.416992H8.20839L11.5834 3.79199V14.2439C11.5834 14.6136 11.4526 14.9294 11.1909 15.1912C10.9291 15.4528 10.6133 15.5837 10.2436 15.5837H6.12026Z" fill="#07554B"/>
</svg>
