<svg width="31" height="30" viewBox="0 0 31 30" fill="none" xmlns="http://www.w3.org/2000/svg">
<path d="M19.8371 5.22019L19.3354 5.77766L19.8371 5.22019ZM24.7095 9.6053L24.2077 10.1628L24.7095 9.6053ZM27.543 12.7284L26.8579 13.0336V13.0336L27.543 12.7284ZM4.79545 25.8661L5.32578 25.3357H5.32578L4.79545 25.8661ZM26.527 25.8661L25.9966 25.3357L26.527 25.8661ZM18.1227 27.308V26.558H13.1997V27.308V28.058H18.1227V27.308ZM3.35352 17.4619H4.10352V12.5388H3.35352H2.60352V17.4619H3.35352ZM27.9689 16.9239H27.2189V17.4619H27.9689H28.7189V16.9239H27.9689ZM19.8371 5.22019L19.3354 5.77766L24.2077 10.1628L24.7095 9.6053L25.2112 9.04782L20.3389 4.66272L19.8371 5.22019ZM27.9689 16.9239H28.7189C28.7189 14.8306 28.734 13.5591 28.2282 12.4233L27.543 12.7284L26.8579 13.0336C27.2038 13.8101 27.2189 14.6981 27.2189 16.9239H27.9689ZM24.7095 9.6053L24.2077 10.1628C25.8621 11.6517 26.5121 12.257 26.8579 13.0336L27.543 12.7284L28.2282 12.4233C27.7223 11.2875 26.7671 10.4481 25.2112 9.04782L24.7095 9.6053ZM13.2363 2.69263V3.44263C15.1701 3.44263 15.9429 3.45421 16.6346 3.71963L16.9033 3.01942L17.172 2.3192C16.1605 1.93105 15.0565 1.94263 13.2363 1.94263V2.69263ZM19.8371 5.22019L20.3389 4.66272C18.9926 3.45108 18.1834 2.70732 17.172 2.3192L16.9033 3.01942L16.6346 3.71963C17.3264 3.9851 17.9054 4.49066 19.3354 5.77766L19.8371 5.22019ZM13.1997 27.308V26.558C10.8577 26.558 9.17668 26.5564 7.89765 26.3845C6.6402 26.2154 5.88417 25.8941 5.32578 25.3357L4.79545 25.8661L4.26512 26.3964C5.14867 27.2799 6.27399 27.6797 7.69778 27.8711C9.09999 28.0596 10.9001 28.058 13.1997 28.058V27.308ZM3.35352 17.4619H2.60352C2.60352 19.7614 2.60192 21.5615 2.79045 22.9637C2.98187 24.3875 3.38158 25.5129 4.26512 26.3964L4.79545 25.8661L5.32578 25.3357C4.76739 24.7773 4.44613 24.0213 4.27707 22.7639C4.10511 21.4848 4.10352 19.8038 4.10352 17.4619H3.35352ZM18.1227 27.308V28.058C20.4223 28.058 22.2224 28.0596 23.6246 27.8711C25.0484 27.6797 26.1737 27.2799 27.0573 26.3964L26.527 25.8661L25.9966 25.3357C25.4382 25.8941 24.6822 26.2154 23.4248 26.3845C22.1457 26.5564 20.4647 26.558 18.1227 26.558V27.308ZM27.9689 17.4619H27.2189C27.2189 19.8038 27.2173 21.4848 27.0453 22.7639C26.8763 24.0213 26.555 24.7773 25.9966 25.3357L26.527 25.8661L27.0573 26.3964C27.9408 25.5129 28.3405 24.3875 28.532 22.9637C28.7205 21.5615 28.7189 19.7614 28.7189 17.4619H27.9689ZM3.35352 12.5388H4.10352C4.10352 10.1968 4.10511 8.51579 4.27707 7.23676C4.44613 5.97931 4.76739 5.22328 5.32578 4.66489L4.79545 4.13456L4.26512 3.60423C3.38158 4.48778 2.98187 5.6131 2.79045 7.03689C2.60192 8.4391 2.60352 10.2392 2.60352 12.5388H3.35352ZM13.2363 2.69263V1.94263C10.9245 1.94263 9.11545 1.94105 7.70739 2.1295C6.27833 2.32076 5.14925 2.7201 4.26512 3.60423L4.79545 4.13456L5.32578 4.66489C5.88359 4.10709 6.64197 3.78546 7.90637 3.61624C9.19178 3.44421 10.8822 3.44263 13.2363 3.44263V2.69263Z" fill="#A16207"/>
<path opacity="0.5" d="M16.8926 3.30798V6.38491C16.8926 9.28586 16.8926 10.7363 17.7938 11.6375C18.695 12.5388 20.1455 12.5388 23.0464 12.5388H27.9695" stroke="#A16207" stroke-width="1.5"/>
<path opacity="0.5" d="M8.27734 20.5388L9.91837 22.3849L13.2004 18.6926" stroke="#A16207" stroke-width="1.5" stroke-linecap="round" stroke-linejoin="round"/>
</svg>
