<svg width="31" height="30" viewBox="0 0 31 30" fill="none" xmlns="http://www.w3.org/2000/svg">
<path d="M19.5031 5.22019L19.0014 5.77766L19.5031 5.22019ZM24.3755 9.6053L23.8738 10.1628L24.3755 9.6053ZM27.2091 12.7284L26.5239 13.0336V13.0336L27.2091 12.7284ZM4.46147 25.8661L4.9918 25.3357H4.9918L4.46147 25.8661ZM26.193 25.8661L25.6626 25.3357L26.193 25.8661ZM17.7888 27.308V26.558H12.8657V27.308V28.058H17.7888V27.308ZM3.01953 17.4619H3.76953V12.5388H3.01953H2.26953V17.4619H3.01953ZM27.6349 16.9239H26.8849V17.4619H27.6349H28.3849V16.9239H27.6349ZM19.5031 5.22019L19.0014 5.77766L23.8738 10.1628L24.3755 9.6053L24.8772 9.04782L20.0049 4.66272L19.5031 5.22019ZM27.6349 16.9239H28.3849C28.3849 14.8306 28.4 13.5591 27.8942 12.4233L27.2091 12.7284L26.5239 13.0336C26.8698 13.8101 26.8849 14.6981 26.8849 16.9239H27.6349ZM24.3755 9.6053L23.8738 10.1628C25.5282 11.6517 26.1781 12.257 26.5239 13.0336L27.2091 12.7284L27.8942 12.4233C27.3883 11.2875 26.4331 10.4481 24.8772 9.04782L24.3755 9.6053ZM12.9023 2.69263V3.44263C14.8361 3.44263 15.6089 3.45421 16.3006 3.71963L16.5693 3.01942L16.838 2.3192C15.8265 1.93105 14.7225 1.94263 12.9023 1.94263V2.69263ZM19.5031 5.22019L20.0049 4.66272C18.6586 3.45108 17.8494 2.70732 16.838 2.3192L16.5693 3.01942L16.3006 3.71963C16.9924 3.9851 17.5714 4.49066 19.0014 5.77766L19.5031 5.22019ZM12.8657 27.308V26.558C10.5237 26.558 8.8427 26.5564 7.56367 26.3845C6.30621 26.2154 5.55019 25.8941 4.9918 25.3357L4.46147 25.8661L3.93114 26.3964C4.81468 27.2799 5.94001 27.6797 7.36379 27.8711C8.76601 28.0596 10.5661 28.058 12.8657 28.058V27.308ZM3.01953 17.4619H2.26953C2.26953 19.7614 2.26794 21.5615 2.45646 22.9637C2.64788 24.3875 3.04759 25.5129 3.93114 26.3964L4.46147 25.8661L4.9918 25.3357C4.43341 24.7773 4.11215 24.0213 3.94309 22.7639C3.77112 21.4848 3.76953 19.8038 3.76953 17.4619H3.01953ZM17.7888 27.308V28.058C20.0883 28.058 21.8884 28.0596 23.2906 27.8711C24.7144 27.6797 25.8398 27.2799 26.7233 26.3964L26.193 25.8661L25.6626 25.3357C25.1043 25.8941 24.3482 26.2154 23.0908 26.3845C21.8117 26.5564 20.1307 26.558 17.7888 26.558V27.308ZM27.6349 17.4619H26.8849C26.8849 19.8038 26.8833 21.4848 26.7114 22.7639C26.5423 24.0213 26.221 24.7773 25.6626 25.3357L26.193 25.8661L26.7233 26.3964C27.6068 25.5129 28.0066 24.3875 28.198 22.9637C28.3865 21.5615 28.3849 19.7614 28.3849 17.4619H27.6349ZM3.01953 12.5388H3.76953C3.76953 10.1968 3.77112 8.51579 3.94309 7.23676C4.11215 5.97931 4.43341 5.22328 4.9918 4.66489L4.46147 4.13456L3.93114 3.60423C3.04759 4.48778 2.64788 5.6131 2.45646 7.03689C2.26794 8.4391 2.26953 10.2392 2.26953 12.5388H3.01953ZM12.9023 2.69263V1.94263C10.5905 1.94263 8.78147 1.94105 7.37341 2.1295C5.94434 2.32076 4.81527 2.7201 3.93114 3.60423L4.46147 4.13456L4.9918 4.66489C5.5496 4.10709 6.30799 3.78546 7.57239 3.61624C8.8578 3.44421 10.5482 3.44263 12.9023 3.44263V2.69263Z" fill="#07554B"/>
<path opacity="0.5" d="M7.94336 18.0773H17.7895" stroke="#07554B" stroke-width="1.5" stroke-linecap="round"/>
<path opacity="0.5" d="M7.94336 22.3849H14.7126" stroke="#07554B" stroke-width="1.5" stroke-linecap="round"/>
<path opacity="0.5" d="M16.5586 3.30798V6.38491C16.5586 9.28586 16.5586 10.7363 17.4598 11.6375C18.361 12.5388 19.8115 12.5388 22.7124 12.5388H27.6355" stroke="#07554B" stroke-width="1.5"/>
</svg>
