<svg xmlns="http://www.w3.org/2000/svg" width="33" height="32" viewBox="0 0 33 32" fill="none">
  <path opacity="0.5" d="M22.8008 10H18.8008" stroke="#1D4ED8" stroke-width="1.5" stroke-linecap="round"/>
  <path d="M7.4668 6.9558C7.4668 6.19094 7.4668 5.80851 7.53152 5.48995C7.81646 4.08762 8.99775 2.9907 10.508 2.72612C10.851 2.66602 11.2629 2.66602 12.0866 2.66602C12.4475 2.66602 12.6279 2.66602 12.8013 2.68107C13.549 2.746 14.2582 3.01878 14.8363 3.4638C14.9704 3.56701 15.098 3.6855 15.3532 3.92246L15.8668 4.39935C16.6282 5.10636 17.0089 5.45986 17.4648 5.69538C17.7152 5.82476 17.9809 5.92694 18.2565 5.99989C18.7582 6.13268 19.2966 6.13268 20.3733 6.13268H20.7221C23.179 6.13268 24.4074 6.13268 25.2059 6.79955C25.2793 6.86089 25.3492 6.9258 25.4153 6.994C26.1335 7.73545 26.1335 8.87615 26.1335 11.1575V13.066C26.1335 16.3344 26.1335 17.9686 25.04 18.984C23.9465 19.9993 22.1866 19.9993 18.6668 19.9993H14.9335C11.4136 19.9993 9.65373 19.9993 8.56026 18.984C7.4668 17.9686 7.4668 16.3344 7.4668 13.066V6.9558Z" stroke="#1D4ED8" stroke-width="1.5"/>
  <path opacity="0.5" d="M30.1335 26.666H19.4668M3.4668 26.666H14.1335" stroke="#1D4ED8" stroke-width="1.5" stroke-linecap="round"/>
  <path opacity="0.5" d="M16.8008 24V20" stroke="#1D4ED8" stroke-width="1.5" stroke-linecap="round"/>
  <circle cx="16.8014" cy="26.6667" r="2.66667" stroke="#1D4ED8" stroke-width="1.5"/>
</svg>