<svg width="33" height="32" viewBox="0 0 33 32" fill="none" xmlns="http://www.w3.org/2000/svg">
<path opacity="0.5" d="M24.6003 13.3335L17.9336 13.3335" stroke="#07554B" stroke-width="1.5" stroke-linecap="round"/>
<path opacity="0.5" d="M13.9336 4H22.6003C23.2195 4 23.5291 4 23.789 4.03422C25.584 4.27053 26.9964 5.68296 27.2327 7.4779C27.2669 7.73783 27.2669 8.04744 27.2669 8.66667" stroke="#07554B" stroke-width="1.5"/>
<path d="M3.26562 9.26617C3.26562 8.08946 3.26562 7.5011 3.35809 7.01102C3.76515 4.85358 5.4527 3.16602 7.61014 2.75897C8.10023 2.6665 8.68858 2.6665 9.86529 2.6665C10.3809 2.6665 10.6386 2.6665 10.8864 2.68967C11.9545 2.78955 12.9677 3.20922 13.7935 3.89386C13.9851 4.05266 14.1674 4.23494 14.532 4.5995L15.2656 5.33317C16.3533 6.42088 16.8972 6.96473 17.5484 7.32707C17.9062 7.52612 18.2857 7.68331 18.6794 7.79554C19.3962 7.99984 20.1653 7.99984 21.7035 7.99984H22.2018C25.7116 7.99984 27.4665 7.99984 28.6072 9.02579C28.7121 9.12016 28.812 9.22002 28.9063 9.32495C29.9323 10.4656 29.9323 12.2206 29.9323 15.7304V18.6665C29.9323 23.6948 29.9323 26.209 28.3702 27.7711C26.8081 29.3332 24.2939 29.3332 19.2656 29.3332H13.9323C8.90398 29.3332 6.38982 29.3332 4.82772 27.7711C3.26562 26.209 3.26562 23.6948 3.26562 18.6665V9.26617Z" stroke="#07554B" stroke-width="1.5"/>
</svg>
