<svg width="31" height="30" viewBox="0 0 31 30" fill="none" xmlns="http://www.w3.org/2000/svg">
<g clip-path="url(#clip0_2928_1392)">
<path opacity="0.5" d="M6.40649 5.76032C6.69717 5.46523 6.69359 4.99037 6.3985 4.69969C6.10341 4.40901 5.62855 4.41258 5.33787 4.70767L6.40649 5.76032ZM10.8962 3.64916L10.3618 3.12286C10.0743 3.41482 10.0743 3.88354 10.3618 4.17549L10.8962 3.64916ZM12.5162 6.36252C12.8069 6.65761 13.2817 6.66119 13.5768 6.37051C13.8719 6.07983 13.8755 5.60497 13.5848 5.30988L12.5162 6.36252ZM13.5848 1.98829C13.8755 1.69319 13.8719 1.21833 13.5768 0.927661C13.2817 0.636991 12.8068 0.640582 12.5162 0.935681L13.5848 1.98829ZM15.3269 26.0772V25.3272C12.6946 25.3272 10.7969 25.3255 9.35115 25.1282C7.9282 24.934 7.05547 24.5629 6.40649 23.9041L5.87218 24.4304L5.33787 24.9567C6.31106 25.9447 7.55485 26.3969 9.1483 26.6144C10.719 26.8288 12.7376 26.8272 15.3269 26.8272V26.0772ZM4.25 14.8322H3.5C3.5 17.4618 3.49845 19.5083 3.70926 21.1001C3.92278 22.7123 4.36622 23.9703 5.33787 24.9567L5.87218 24.4304L6.40649 23.9041C5.75596 23.2437 5.38831 22.3531 5.19628 20.9031C5.00155 19.4327 5 17.5036 5 14.8322H4.25ZM26.4038 14.8322H25.6538C25.6538 17.5036 25.6523 19.4327 25.4576 20.9031C25.2655 22.3531 24.8979 23.2437 24.2474 23.9041L24.7817 24.4304L25.316 24.9567C26.2876 23.9703 26.7311 22.7123 26.9446 21.1001C27.1554 19.5083 27.1538 17.4618 27.1538 14.8322H26.4038ZM15.3269 26.0772V26.8272C17.9163 26.8272 19.9348 26.8288 21.5055 26.6144C23.099 26.3969 24.3428 25.9447 25.316 24.9567L24.7817 24.4304L24.2474 23.9041C23.5984 24.5629 22.7256 24.934 21.3027 25.1282C19.857 25.3255 17.9593 25.3272 15.3269 25.3272V26.0772ZM15.3269 3.5872V4.3372C17.9593 4.3372 19.857 4.33884 21.3027 4.53616C22.7256 4.73038 23.5984 5.10148 24.2474 5.76032L24.7817 5.23399L25.316 4.70767C24.3428 3.71971 23.099 3.26743 21.5055 3.04994C19.9348 2.83556 17.9163 2.8372 15.3269 2.8372V3.5872ZM26.4038 14.8322H27.1538C27.1538 12.2026 27.1554 10.1561 26.9446 8.56432C26.7311 6.95211 26.2876 5.69406 25.316 4.70767L24.7817 5.23399L24.2474 5.76032C24.8979 6.42072 25.2655 7.3113 25.4576 8.76126C25.6523 10.2316 25.6538 12.1608 25.6538 14.8322H26.4038ZM4.25 14.8322H5C5 12.1608 5.00155 10.2316 5.19628 8.76126C5.38831 7.3113 5.75596 6.42072 6.40649 5.76032L5.87218 5.23399L5.33787 4.70767C4.36622 5.69406 3.92278 6.95211 3.70926 8.56432C3.49845 10.1561 3.5 12.2026 3.5 14.8322H4.25ZM15.3269 3.5872V2.8372C13.5836 2.8372 12.1058 2.83699 10.8582 2.90012L10.8962 3.64916L10.9341 4.39821C12.1354 4.33741 13.5708 4.3372 15.3269 4.3372V3.5872ZM10.8962 3.64916L10.3618 4.17549L12.5162 6.36252L13.0505 5.8362L13.5848 5.30988L11.4305 3.12284L10.8962 3.64916ZM10.8962 3.64916L11.4305 4.17547L13.5848 1.98829L13.0505 1.46199L12.5162 0.935681L10.3618 3.12286L10.8962 3.64916Z" fill="#15803D"/>
<path d="M11.0195 15.6156L13.4811 18.0772L19.6349 11.9233" stroke="#15803D" stroke-width="1.5" stroke-linecap="round" stroke-linejoin="round"/>
</g>
<defs>
<clipPath id="clip0_2928_1392">
<rect width="29.5385" height="29.5385" fill="white" transform="translate(0.558594 0.231079)"/>
</clipPath>
</defs>
</svg>
