<svg width="30" height="30" viewBox="0 0 30 30" fill="none" xmlns="http://www.w3.org/2000/svg">
<path d="M21.7594 22.982L25.6124 11.4234C27.1488 6.81415 27.9171 4.50954 26.7005 3.29302C25.4839 2.0765 23.1792 2.8447 18.5699 4.38111L7.08526 8.20916C4.52302 9.06321 3.2419 9.49023 2.85303 10.4297C2.76163 10.6505 2.70637 10.8846 2.68937 11.1229C2.61703 12.1371 3.57192 13.092 5.4817 15.0017L5.82955 15.3495C6.14303 15.663 6.29977 15.8197 6.41825 15.9942C6.65193 16.3383 6.78458 16.7409 6.80115 17.1565C6.80956 17.3673 6.77666 17.5865 6.71086 18.0249C6.47001 19.6295 6.34959 20.4318 6.49145 21.0492C6.77423 22.2798 7.72676 23.2458 8.95332 23.5459C9.56868 23.6964 10.3726 23.5873 11.9806 23.3691L12.0685 23.3572C12.5217 23.2957 12.7484 23.2649 12.966 23.2781C13.361 23.3019 13.7426 23.4305 14.0714 23.6508C14.2525 23.7721 14.4142 23.9338 14.7376 24.2573L15.0469 24.5665C16.9057 26.4252 17.8351 27.3546 18.821 27.3062C19.0928 27.2929 19.3599 27.2298 19.6089 27.1202C20.5124 26.7226 20.9281 25.4757 21.7594 22.982Z" stroke="#1D4ED8" stroke-width="1.5"/>
<path opacity="0.5" d="M7.60938 22.3849L26.0709 3.92334" stroke="#1D4ED8" stroke-width="1.5" stroke-linecap="round"/>
</svg>
