<svg width="30" height="30" viewBox="0 0 30 30" fill="none" xmlns="http://www.w3.org/2000/svg">
<circle cx="11.3072" cy="11.3071" r="2.46154" stroke="#5856D6" stroke-width="1.5"/>
<path d="M16.2309 18.6918C16.2309 20.0512 16.2309 21.1533 11.3078 21.1533C6.38477 21.1533 6.38477 20.0512 6.38477 18.6918C6.38477 17.3323 8.5889 16.2302 11.3078 16.2302C14.0268 16.2302 16.2309 17.3323 16.2309 18.6918Z" stroke="#5856D6" stroke-width="1.5"/>
<path opacity="0.5" d="M2.69141 14.9995C2.69141 10.358 2.69141 8.03719 4.13334 6.59526C5.57528 5.15332 7.89604 5.15332 12.5376 5.15332H17.4606C22.1022 5.15332 24.4229 5.15332 25.8649 6.59526C27.3068 8.03719 27.3068 10.358 27.3068 14.9995C27.3068 19.641 27.3068 21.9618 25.8649 23.4037C24.4229 24.8456 22.1022 24.8456 17.4606 24.8456H12.5376C7.89604 24.8456 5.57528 24.8456 4.13334 23.4037C2.69141 21.9618 2.69141 19.641 2.69141 14.9995Z" stroke="#5856D6" stroke-width="1.5"/>
<path d="M23.6152 14.9995H18.6922" stroke="#5856D6" stroke-width="1.5" stroke-linecap="round"/>
<path d="M23.6152 11.3071H17.4614" stroke="#5856D6" stroke-width="1.5" stroke-linecap="round"/>
<path opacity="0.9" d="M23.6152 18.6918H19.9229" stroke="#5856D6" stroke-width="1.5" stroke-linecap="round"/>
</svg>
