<svg width="30" height="30" viewBox="0 0 30 30" fill="none" xmlns="http://www.w3.org/2000/svg">
<g clip-path="url(#clip0_12344_91458)">
<path d="M12.131 8.61913L7.19657 0.627493C7.00807 0.322143 6.7114 0.110868 6.36122 0.0324615C6.01097 -0.0459449 5.65251 0.0187874 5.35191 0.214686C5.05125 0.410526 4.84714 0.712238 4.77724 1.06424C4.70735 1.41619 4.78071 1.77295 4.98376 2.0688L10.1721 9.62797C10.2573 9.75203 10.395 9.81911 10.5354 9.81911C10.6168 9.81911 10.699 9.79658 10.7725 9.74951C10.9705 9.62269 11.2242 9.59827 11.4421 9.68378C11.5666 9.73267 11.7065 9.72228 11.8225 9.65561C11.9384 9.58888 12.0177 9.47309 12.038 9.34087C12.0522 9.24844 12.0846 9.15935 12.1344 9.07601C12.2186 8.93505 12.2173 8.75893 12.131 8.61913Z" fill="white"/>
<path d="M8.88576 11.2241L2.49018 4.01925C2.25197 3.75087 1.92338 3.59371 1.56498 3.57669C1.20634 3.5599 0.864543 3.68514 0.601975 3.92975C0.339466 4.17436 0.190283 4.50671 0.182008 4.86546C0.173675 5.22416 0.307306 5.56302 0.558194 5.81954L6.61291 12.0098C6.6959 12.0947 6.8094 12.1422 6.92754 12.1422C6.9337 12.1422 6.93986 12.1421 6.94602 12.1419C7.07079 12.1367 7.18741 12.0787 7.26693 11.9824C7.40883 11.8106 7.61712 11.7122 7.83848 11.7122C8.0021 11.7122 8.1578 11.7652 8.28873 11.8657C8.46879 12.0038 8.72425 11.9824 8.87878 11.8163C9.03336 11.6502 9.03635 11.3938 8.88576 11.2241Z" fill="white"/>
<path d="M27.9589 12.7165C27.8599 12.0485 27.352 11.5118 26.6988 11.3699C26.4722 10.7386 25.8677 10.2962 25.1719 10.2962C25.073 10.2962 24.9744 10.3053 24.8777 10.3232C24.6283 9.82358 24.1295 9.47392 23.556 9.42732C23.3654 8.74326 22.7368 8.23984 21.9928 8.23984C21.7376 8.23984 21.4923 8.298 21.2711 8.40815C20.9679 8.0511 20.5166 7.83249 20.0326 7.83249C19.8911 7.83249 19.7518 7.85062 19.6176 7.88607C19.3406 7.37438 18.7968 7.03076 18.189 7.03076C17.6924 7.03076 17.2319 7.26187 16.9294 7.63284C16.6865 7.49187 16.408 7.41581 16.1167 7.41581C15.8393 7.41581 15.5693 7.48659 15.3304 7.6191C15.0916 7.48659 14.8216 7.41581 14.5442 7.41581C14.0806 7.41581 13.6523 7.60883 13.3503 7.93848C13.1674 7.86852 12.9723 7.83243 12.7714 7.83243C12.1263 7.83243 11.5659 8.2021 11.3046 8.75746C11.2604 8.75382 11.216 8.75206 11.1713 8.75206C10.4879 8.75206 9.89705 9.17373 9.65989 9.78302C8.99097 9.82234 8.42975 10.2688 8.22105 10.8776C8.09634 10.8472 7.96788 10.8315 7.83841 10.8315C7.29931 10.8315 6.80745 11.0972 6.50926 11.5232C6.38578 11.4936 6.25872 11.4784 6.13084 11.4784C5.32325 11.4784 4.65163 12.0715 4.52868 12.845C3.74514 12.9593 3.1416 13.6357 3.1416 14.4504C3.1416 14.6108 3.16549 14.7703 3.21255 14.9244C3.26907 15.1096 3.43997 15.2361 3.63352 15.2361H28.6017C28.7707 15.2361 28.9247 15.1394 28.9982 14.9871C29.1046 14.7663 29.1586 14.5294 29.1586 14.2831C29.1587 13.5346 28.6493 12.9028 27.9589 12.7165Z" fill="white"/>
<path d="M27.9592 12.7165C27.8602 12.0485 27.3523 11.5118 26.6991 11.3699C26.4725 10.7386 25.8679 10.2962 25.1722 10.2962C25.0733 10.2962 24.9747 10.3053 24.878 10.3232C24.6286 9.82358 24.1298 9.47392 23.5563 9.42732C23.3657 8.74326 22.7371 8.23984 21.9931 8.23984C21.7379 8.23984 21.4926 8.298 21.2714 8.40815C20.9682 8.0511 20.5169 7.83249 20.0329 7.83249C19.8914 7.83249 19.7521 7.85062 19.6179 7.88607C19.3409 7.37438 18.7971 7.03076 18.1893 7.03076C17.6927 7.03076 17.2322 7.26187 16.9297 7.63284C16.6868 7.49187 16.4083 7.41581 16.117 7.41581C16.0625 7.41581 16.0083 7.41933 15.9546 7.42473C16.1718 7.59005 16.3544 7.79986 16.4857 8.04242C16.6445 8.00051 16.8092 7.97897 16.9766 7.97897C17.549 7.97897 18.0828 8.23755 18.4415 8.65981C18.703 8.52952 18.9932 8.46074 19.295 8.46074C20.175 8.46074 20.9185 9.05618 21.1439 9.86525C21.8223 9.92041 22.4123 10.3339 22.7072 10.925C22.8217 10.9038 22.9382 10.893 23.0552 10.893C23.8782 10.893 24.5931 11.4162 24.8612 12.163C25.6338 12.3308 26.2345 12.9655 26.3516 13.7556C27.0506 13.9443 27.5923 14.5191 27.7339 15.236H28.602C28.7709 15.236 28.925 15.1392 28.9984 14.987C29.1049 14.7662 29.1588 14.5293 29.1588 14.2829C29.159 13.5346 28.6496 12.9028 27.9592 12.7165Z" fill="white"/>
<path d="M21.6992 26.2896H10.778C10.5349 26.2896 10.3379 26.4866 10.3379 26.7297V28.6793C10.3379 29.4074 10.9303 29.9998 11.6584 29.9998H20.8189C21.547 29.9998 22.1394 29.4074 22.1394 28.6793V26.7297C22.1394 26.4866 21.9423 26.2896 21.6992 26.2896Z" fill="white"/>
<path d="M21.6992 26.2896H19.6547C19.8979 26.2896 20.0949 26.4866 20.0949 26.7297V28.6793C20.0949 29.4074 19.5025 29.9998 18.7744 29.9998H20.8189C21.547 29.9998 22.1394 29.4074 22.1394 28.6793V26.7297C22.1394 26.4866 21.9423 26.2896 21.6992 26.2896Z" fill="white"/>
<path d="M29.378 14.3374H3.09934C2.85625 14.3374 2.65918 14.5345 2.65918 14.7776C2.65918 17.4299 3.42417 19.9996 4.87146 22.2088C6.2296 24.2819 8.1157 25.9371 10.3383 27.0105H22.1389C24.3615 25.9371 26.2476 24.2819 27.6058 22.2088C29.0531 19.9996 29.8181 17.4299 29.8181 14.7776C29.8181 14.5345 29.621 14.3374 29.378 14.3374Z" fill="white"/>
<path d="M29.3777 14.3374H27.3332C27.5764 14.3374 27.7734 14.5345 27.7734 14.7776C27.7734 17.4299 27.0084 19.9996 25.5611 22.2088C24.2029 24.2819 22.3168 25.9371 20.0942 27.0105H22.1387C24.3613 25.9371 26.2474 24.2819 27.6056 22.2088C29.0529 19.9996 29.8179 17.4299 29.8179 14.7776C29.8179 14.5345 29.6208 14.3374 29.3777 14.3374Z" fill="#09C073"/>
<path d="M29.378 14.3374H3.09934C2.85625 14.3374 2.65918 14.5345 2.65918 14.7776C2.65918 16.1644 2.86875 17.5285 3.27522 18.8305H29.202C29.6085 17.5285 29.8181 16.1644 29.8181 14.7776C29.8181 14.5345 29.621 14.3374 29.378 14.3374Z" fill="#08AA6B"/>
<path d="M29.3781 14.3374H27.3336C27.5767 14.3374 27.7738 14.5345 27.7738 14.7776C27.7738 16.1644 27.5642 17.5285 27.1577 18.8305H29.2022C29.6087 17.5285 29.8182 16.1644 29.8182 14.7776C29.8182 14.5345 29.6212 14.3374 29.3781 14.3374Z" fill="#089061"/>
</g>
<defs>
<clipPath id="clip0_12344_91458">
<rect width="30" height="30" fill="white"/>
</clipPath>
</defs>
</svg>
