<svg width="18" height="18" viewBox="0 0 18 18" fill="none" xmlns="http://www.w3.org/2000/svg">
<g clip-path="url(#clip0_2856_59728)">
<path d="M0.744729 1.125C0.333427 1.125 0 1.45349 0 1.8587C0 2.2639 0.333427 2.59239 0.744729 2.59239H2.06982C2.17825 2.59239 2.28393 2.626 2.3719 2.68847C2.45986 2.75093 2.52564 2.83908 2.55992 2.94042L5.01529 10.1988C5.12432 10.521 5.13819 10.868 5.05456 11.1976L4.85238 11.9957C4.55572 13.1648 5.47941 14.3315 6.70256 14.3315H15.6393C16.0506 14.3315 16.384 14.003 16.384 13.5978C16.384 13.1926 16.0506 12.8641 15.6393 12.8641H6.70256C6.41258 12.8641 6.22641 12.6297 6.29674 12.3526L6.44921 11.7526C6.47505 11.6509 6.53463 11.5607 6.61848 11.4962C6.70233 11.4318 6.80565 11.3967 6.91202 11.3967H14.8946C15.2152 11.3969 15.5 11.1949 15.6015 10.8952L17.587 5.02562C17.7478 4.55035 17.3886 4.05955 16.88 4.05978H4.88147C4.77304 4.05978 4.66735 4.02617 4.57939 3.96371C4.49143 3.90125 4.42564 3.8131 4.39135 3.71176L3.68583 1.62655C3.58435 1.32688 3.29957 1.12483 2.97892 1.125H0.744729ZM5.95783 15.0652C5.13523 15.0652 4.46838 15.7222 4.46838 16.5326C4.46838 17.343 5.13523 18 5.95783 18C6.78044 18 7.44729 17.343 7.44729 16.5326C7.44729 15.7222 6.78044 15.0652 5.95783 15.0652ZM14.8946 15.0652C14.072 15.0652 13.4051 15.7222 13.4051 16.5326C13.4051 17.343 14.072 18 14.8946 18C15.7172 18 16.384 17.343 16.384 16.5326C16.384 15.7222 15.7172 15.0652 14.8946 15.0652Z" fill="white"/>
</g>
<defs>
<clipPath id="clip0_2856_59728">
<rect width="18" height="18" fill="white"/>
</clipPath>
</defs>
</svg>
