<svg width="20" height="20" viewBox="0 0 20 20" fill="none" xmlns="http://www.w3.org/2000/svg">
<path d="M7.85714 16.4286H6.78571C6.35097 16.4286 5.96244 16.1691 5.7959 15.7673C5.62954 15.3652 5.72074 14.9071 6.02818 14.5996L8.17104 12.4568C8.37333 12.2543 8.6424 12.1429 8.92857 12.1429H15V3.92962H0V18.9286C0 19.5194 0.480607 20 1.07143 20H8.22342C7.99678 19.7006 7.85714 19.3321 7.85714 18.9286V16.4286ZM5.92146 6.42857H12.8571C13.0544 6.42857 13.2143 6.58848 13.2143 6.78571C13.2143 6.98295 13.0544 7.14286 12.8571 7.14286H5.92146C5.72422 7.14286 5.56431 6.98295 5.56431 6.78571C5.56431 6.58848 5.72422 6.42857 5.92146 6.42857ZM4.53822 9.18108L3.10965 10.6097C3.0399 10.6794 2.94852 10.7143 2.85714 10.7143C2.76576 10.7143 2.67439 10.6794 2.60463 10.6097L1.89035 9.89537C1.75084 9.75586 1.75084 9.52985 1.89035 9.39035C2.02985 9.25084 2.25586 9.25084 2.39537 9.39035L2.85714 9.85212L4.0332 8.67606C4.17271 8.53655 4.39872 8.53655 4.53822 8.67606C4.67773 8.81557 4.67773 9.04157 4.53822 9.18108ZM4.53822 6.32394L3.10965 7.75251C3.0399 7.82226 2.94852 7.85714 2.85714 7.85714C2.76576 7.85714 2.67439 7.82226 2.60463 7.75251L1.89035 7.03822C1.75084 6.89872 1.75084 6.67271 1.89035 6.5332C2.02985 6.3937 2.25586 6.3937 2.39537 6.5332L2.85714 6.99498L4.0332 5.81892C4.17271 5.67941 4.39872 5.67941 4.53822 5.81892C4.67773 5.95843 4.67773 6.18443 4.53822 6.32394ZM5.56431 9.64286C5.56431 9.44563 5.72422 9.28571 5.92146 9.28571H12.8571C13.0544 9.28571 13.2143 9.44563 13.2143 9.64286C13.2143 9.84009 13.0544 10 12.8571 10H5.92146C5.72422 10 5.56431 9.84009 5.56431 9.64286Z" fill="white"/>
<path d="M15 2.5C15 1.90918 14.5194 1.42857 13.9286 1.42857H11.0714V3.21533H15V2.5Z" fill="white"/>
<path d="M3.92857 1.42857H1.07143C0.480607 1.42857 0 1.90918 0 2.5V3.21533H3.92857V1.42857Z" fill="white"/>
<path d="M10.3571 1.42857H9.24979C9.08395 0.614536 8.36234 0 7.5 0C6.63766 0 5.91605 0.614536 5.75021 1.42857H4.64286V3.21533H10.3571V1.42857ZM7.49996 2.13928C7.30272 2.13928 7.14281 1.97939 7.14281 1.78214C7.14281 1.58489 7.30272 1.425 7.49996 1.425C7.69721 1.425 7.8571 1.58489 7.8571 1.78214C7.8571 1.97939 7.69721 2.13928 7.49996 2.13928Z" fill="white"/>
<path d="M19.8954 15.1046L17.7525 12.9618C17.6855 12.8948 17.5947 12.8571 17.5 12.8571H13.5714V14.0764L15.1046 15.6097C15.1716 15.6766 15.2624 15.7143 15.3571 15.7143H19.6429C19.7872 15.7143 19.9175 15.6273 19.9728 15.4939C20.0281 15.3603 19.9976 15.2068 19.8954 15.1046Z" fill="white"/>
<path d="M8.67606 12.9618L6.5332 15.1046C6.43101 15.2068 6.4005 15.3603 6.45577 15.4939C6.51106 15.6273 6.64132 15.7143 6.78571 15.7143H11.0714C11.1661 15.7143 11.257 15.6766 11.3239 15.6097L12.8571 14.0764V12.8571H8.92857C8.83388 12.8571 8.74302 12.8948 8.67606 12.9618Z" fill="white"/>
<path d="M14.6 16.1143L13.5714 15.0857V17.8571C13.5635 18.3263 12.8651 18.3267 12.8571 17.8571V15.0857L11.8286 16.1143C11.625 16.3179 11.3571 16.4286 11.0714 16.4286H8.57143V18.9286C8.57143 19.5178 9.05356 20 9.64286 20H16.7857C17.375 20 17.8571 19.5178 17.8571 18.9286V16.4286H15.3571C15.0714 16.4286 14.8036 16.3179 14.6 16.1143Z" fill="white"/>
</svg>
