<svg width="27" height="27" viewBox="0 0 27 27" fill="none" xmlns="http://www.w3.org/2000/svg">
<path d="M27 13.5C27 12.417 26.1764 11.5323 25.1244 11.4143C24.8189 9.70794 24.1471 8.12799 23.1916 6.75852C23.8549 5.93097 23.8128 4.72086 23.046 3.95405C22.2795 3.18742 21.0692 3.14491 20.2415 3.80836C18.872 2.85286 17.2921 2.18106 15.5857 1.87565C15.4677 0.82364 14.583 0 13.5 0C12.417 0 11.5323 0.82364 11.4143 1.87565C9.70797 2.18106 8.12802 2.85283 6.75855 3.80833C5.93118 3.14506 4.72086 3.18724 3.95405 3.95405C3.18703 4.72089 3.14483 5.93118 3.80831 6.75857C2.85283 8.12805 2.18104 9.70797 1.87565 11.4143C0.82364 11.5323 0 12.417 0 13.5C0 14.583 0.82364 15.4677 1.87565 15.5857C2.18106 17.2921 2.85286 18.872 3.80836 20.2415C3.14509 21.069 3.18724 22.2791 3.95405 23.046C4.36521 23.4573 4.90533 23.6629 5.44565 23.6629C5.91266 23.6627 6.37476 23.4993 6.75855 23.1917C8.12802 24.1472 9.70797 24.8189 11.4143 25.1244C11.5323 26.1764 12.417 27 13.5 27C14.583 27 15.4677 26.1764 15.5857 25.1244C17.292 24.8189 18.872 24.1471 20.2415 23.1917C20.6252 23.4993 21.0874 23.6629 21.5546 23.6629C22.0947 23.6629 22.6348 23.4571 23.046 23.046C23.813 22.2791 23.8552 21.0688 23.1917 20.2414C24.1472 18.872 24.819 17.292 25.1244 15.5857C26.1764 15.4677 27 14.583 27 13.5ZM21.9375 13.9219H22.8239C22.9789 14.6824 23.547 15.2889 24.2805 15.5121C23.9954 17.043 23.3929 18.4631 22.5416 19.7006C22.24 19.5395 21.906 19.445 21.5544 19.445C21.1343 19.445 20.7334 19.5675 20.3913 19.7948L19.7645 19.1679C19.5997 19.0031 19.3327 19.0031 19.1679 19.1679C19.0031 19.3327 19.0031 19.5997 19.1679 19.7645L19.7948 20.3913C19.5675 20.7334 19.445 21.1343 19.445 21.5544C19.445 21.906 19.5395 22.24 19.7006 22.5416C18.4631 23.3929 17.043 23.9954 15.5121 24.2805C15.2889 23.547 14.6824 22.9789 13.9219 22.8239V21.9375C13.9219 21.7045 13.733 21.5156 13.5 21.5156C13.267 21.5156 13.0781 21.7045 13.0781 21.9375V22.8239C12.3176 22.9789 11.7111 23.547 11.4879 24.2805C9.95704 23.9954 8.53692 23.3929 7.29944 22.5416C7.4605 22.24 7.55502 21.906 7.55502 21.5544C7.55502 21.1343 7.43246 20.7334 7.20525 20.3913L7.83208 19.7645C7.99688 19.5997 7.99688 19.3327 7.83208 19.1679C7.66729 19.0031 7.40032 19.0031 7.23553 19.1679L6.60869 19.7948C6.26658 19.5675 5.86567 19.445 5.44565 19.445C5.09399 19.445 4.76 19.5395 4.45842 19.7006C3.6071 18.4631 3.00457 17.043 2.71945 15.5121C3.45299 15.2889 4.02107 14.6824 4.17611 13.9219H5.0625C5.29548 13.9219 5.48438 13.733 5.48438 13.5C5.48438 13.267 5.29548 13.0781 5.0625 13.0781H4.17611C4.02107 12.3176 3.45299 11.7111 2.71945 11.4879C3.00457 9.95701 3.60713 8.53692 4.45842 7.29944C4.76 7.4605 5.09399 7.55502 5.44565 7.55502C5.86567 7.55502 6.26658 7.43246 6.60869 7.20525L7.23553 7.83208C7.31792 7.91448 7.42587 7.95568 7.53381 7.95568C7.64175 7.95568 7.74969 7.91448 7.83208 7.83208C7.99688 7.66729 7.99688 7.40032 7.83208 7.23553L7.20525 6.60869C7.43246 6.26658 7.55502 5.86567 7.55502 5.44565C7.55502 5.09399 7.4605 4.75997 7.29944 4.4584C8.53692 3.60708 9.95704 3.00457 11.4879 2.71945C11.7111 3.45299 12.3176 4.02107 13.0781 4.17611V5.0625C13.0781 5.29548 13.267 5.48438 13.5 5.48438C13.733 5.48438 13.9219 5.29548 13.9219 5.0625V4.17611C14.6824 4.02107 15.2889 3.45299 15.5121 2.71945C17.043 3.00457 18.4631 3.6071 19.7006 4.4584C19.5395 4.75997 19.445 5.09399 19.445 5.44565C19.445 5.86567 19.5675 6.26658 19.7948 6.60869L19.1679 7.23553C19.0031 7.40032 19.0031 7.66729 19.1679 7.83208C19.2503 7.91448 19.3583 7.95568 19.4662 7.95568C19.5741 7.95568 19.6821 7.91448 19.7645 7.83208L20.3913 7.20525C20.7334 7.43246 21.1343 7.55502 21.5544 7.55502C21.906 7.55502 22.24 7.4605 22.5416 7.29944C23.3929 8.53692 23.9954 9.95701 24.2805 11.4879C23.547 11.7111 22.9789 12.3176 22.8239 13.0781H21.9375C21.7045 13.0781 21.5156 13.267 21.5156 13.5C21.5156 13.733 21.7045 13.9219 21.9375 13.9219Z" fill="white"/>
<path d="M16.0484 7.93925L13.5 6.75L7.67082 9.4703L10.2352 10.6671L16.0484 7.93925Z" fill="white"/>
<path d="M13.5 12.1907L19.3292 9.4703L17.0442 8.40397L11.231 11.1318L13.5 12.1907Z" fill="white"/>
<path d="M13.5 13.0781C13.439 13.0781 13.3781 13.0649 13.3216 13.0386L10.5469 11.7436V14.3438C10.5469 14.5767 10.358 14.7656 10.125 14.7656C9.89202 14.7656 9.70312 14.5767 9.70312 14.3438V11.3499L7.17188 10.1686V17.2969L13.0781 20.0531V14.765C13.0781 14.532 13.267 14.3431 13.5 14.3431C13.733 14.3431 13.9219 14.532 13.9219 14.765V20.0531L19.8281 17.2969V10.1686L13.6784 13.0386C13.6219 13.0649 13.561 13.0781 13.5 13.0781ZM12.1948 17.9534C12.1231 18.1068 11.9711 18.1969 11.8123 18.1969C11.7526 18.1969 11.6918 18.1843 11.6341 18.1573L10.7904 17.7637C10.5792 17.6652 10.488 17.4141 10.5864 17.2029C10.6851 16.9918 10.936 16.8999 11.1471 16.999L11.9909 17.3927C12.202 17.4911 12.2933 17.7422 12.1948 17.9534Z" fill="white"/>
</svg>
