<svg width="160" height="26" viewBox="0 0 160 26" fill="none" xmlns="http://www.w3.org/2000/svg">
<path d="M12.7442 11.6242C8.17308 9.97211 3.44765 8.26058 3.44765 4.81771C3.44765 2.63369 6.13735 1.49047 8.79687 1.49047C14.297 1.49047 17.0303 3.47955 19.2438 9.08992L19.2975 9.22208L20.1694 9.06679V2.43545L19.9615 2.09513L19.9179 2.072C17.3925 0.740443 13.9214 0.0664062 9.59842 0.0664062C3.59186 0.0664062 0 3.43659 0 6.69114C0 11.0757 5.18489 12.926 10.1987 14.7201C14.5284 16.2697 18.62 17.7302 18.62 20.575C18.62 23.4198 15.4675 24.563 12.3418 24.563C7.09317 24.563 3.93394 22.4187 1.0732 16.9206L1.00948 16.7984L0.181103 16.99H0.177748L0 17.0297V23.3372L0.181103 23.6346L0.372266 23.9518L0.412509 23.9749C2.51531 25.1181 7.29775 25.9838 11.5402 25.9838C15.7827 25.9838 21.9402 23.9881 21.9402 18.4901C21.9402 14.9481 17.473 13.3324 12.7442 11.6209V11.6242Z" fill="#014D40"/>
<path d="M49.1618 18.3709C47.8337 21.2983 44.7851 24.718 40.5661 24.718H35.2471C33.5702 24.718 32.6614 24.4174 32.6614 22.838V13.5072H39.4426C40.9149 13.5072 43.0244 15.0767 43.0244 16.1703V16.3454H43.997V9.40351H43.0244V9.57863C43.0244 10.6756 40.9149 12.2417 39.4426 12.2417H32.6614V3.23475C32.6614 2.10805 33.151 1.35471 35.5489 1.35471H40.1771C44.2251 1.35471 46.6398 4.8075 47.9511 7.7019L48.0148 7.84398L48.9035 7.56313L47.2971 0.396524L46.898 0.0859375H25.5078V1.03422H25.6856C26.9835 1.03422 28.5329 1.41419 28.5329 3.23475V22.838C28.5329 24.6553 26.9868 25.0385 25.6856 25.0385H25.5078V25.9868H47.2803L47.666 25.7159L50.1176 18.5526L49.2289 18.2189L49.1618 18.3675V18.3709Z" fill="#014D40"/>
<path d="M81.2377 1.03812H81.4154V0.0898438H73.8829V1.03812H74.0607C74.9729 1.03812 75.6436 1.24628 75.9052 1.60643C76.1065 1.88728 76.1065 2.3036 75.9052 2.84547L68.5505 20.2878L60.7899 3.29152C60.4612 2.59105 60.4176 2.02275 60.6625 1.65269C60.9207 1.2628 61.5311 1.03812 62.336 1.03812H62.5137V0.0898438H51.9092V1.03812H52.0869C53.4385 1.03812 55.226 1.64938 56.1852 3.3576L66.2431 25.7528L66.6154 25.9874H67.4136L67.7892 25.7429L77.3976 3.01728C78.2696 1.29254 80.1813 1.03482 81.2444 1.03482H81.2377V1.03812Z" fill="#014D40"/>
<path d="M99.2738 22.6139L89.1321 0.324435L88.7632 0.0898438H88.0086L87.6296 0.344261L78.883 22.9311C78.0077 24.8343 75.9049 25.0391 75.043 25.0391H74.8652V25.9874H82.3977V25.0391H82.22C81.3078 25.0391 80.6203 24.8244 80.3318 24.4477C80.1239 24.1768 80.0971 23.7836 80.2513 23.2913L82.1663 18.3582H92.6367L94.7831 22.9245C95.0212 23.5886 95.0145 24.1041 94.7563 24.4543C94.4779 24.831 93.8977 25.0391 93.1197 25.0391H92.9419V25.9874H103.546V25.0391H103.369C102.031 25.0391 100.156 24.4014 99.2704 22.6106H99.2738V22.6139ZM82.6627 17.0928L86.932 6.0075L92.0666 17.0928H82.6627Z" fill="#014D40"/>
<path d="M146.947 0C139.26 0 133.891 5.34274 133.891 12.9917C133.891 20.6407 139.26 25.9835 146.947 25.9835C154.634 25.9835 160 20.6407 160 12.9917C160 5.34274 154.63 0 146.947 0ZM148.134 24.4272C142.329 24.4272 138.113 19.2101 138.113 12.017C138.113 7.2492 139.441 1.56284 145.763 1.56284C151.545 1.56284 155.744 6.78002 155.744 13.9698C155.744 18.7376 154.422 24.4239 148.134 24.4239V24.4272Z" fill="#014D40"/>
<path d="M120.473 14.4223H120.651C121.932 14.4223 123.462 14.7924 123.462 16.5601V22.4877C122.023 23.1485 120.376 23.4591 118.293 23.4591C114.869 23.4591 111.952 21.9788 110.073 19.2959L110.057 19.2728C109.269 18.1361 108.695 16.8178 108.35 15.3574C107.511 12.2813 107.961 9.66442 108.487 8.00246C108.682 7.20617 109.057 6.36032 109.577 5.55412L109.631 5.47482C110.077 4.79748 110.617 4.16309 111.143 3.69391C112.022 2.91414 113.977 1.60571 117.217 1.60571C117.868 1.60571 118.545 1.65858 119.226 1.76761C119.732 1.86343 120.178 1.97577 120.584 2.11124C123.74 3.25446 125.621 6.39336 126.463 8.16105C126.601 8.46173 126.735 8.77232 126.869 9.09942L126.923 9.23158L127.442 9.14237V2.30949L127.432 2.29627L127.211 1.92291C124.639 0.703691 121.178 0.0825195 116.905 0.0825195C115.275 0.0825195 113.749 0.31711 112.371 0.786293L112.243 0.829245L111.941 0.938281C106.834 2.74232 103.785 7.26895 103.785 13.0676C103.785 20.6836 109.128 25.9999 116.781 25.9999C119.598 25.9999 122.191 25.2664 124.263 23.8919C124.454 23.7862 124.592 23.7796 124.702 23.7796C125.353 23.7796 126.071 24.5362 126.534 25.7025L126.587 25.838L127.456 25.6827V16.5766C127.456 14.7792 128.164 14.4389 129.465 14.4389H129.643V13.5071H120.48V14.4389L120.473 14.4223Z" fill="#014D40"/>
</svg>
