<svg width="160" height="70" viewBox="0 0 160 70" fill="none" xmlns="http://www.w3.org/2000/svg">
<path d="M65.4761 49.3114H67.6104V52.5619C67.6104 52.9372 67.5292 53.2232 67.3709 53.4118C67.2125 53.5985 66.9848 53.6898 66.672 53.6898C66.1988 53.6898 65.8147 53.4714 65.4999 53.0187L65.4445 52.9392L64.8564 53.6322L64.8881 53.6799C65.0802 53.9599 65.3376 54.1803 65.6504 54.3352C65.9632 54.4881 66.3057 54.5675 66.67 54.5675C67.2956 54.5675 67.7787 54.3928 68.1034 54.0492C68.4281 53.7057 68.5924 53.1934 68.5924 52.5222V48.4277H65.4742V49.3134H65.4761V49.3114Z" fill="#014D40"/>
<path d="M77.3377 51.8868H80.3333V51.0112H77.3377V49.3193H80.6995V48.4258H76.3359V54.5655H80.8183V53.672H77.3377V51.8868Z" fill="#014D40"/>
<path d="M93.5603 53.1636L91.9665 48.4258H91.0756L89.4482 53.1378L87.886 48.4258H86.8506L88.8799 54.5159L88.8978 54.5655H89.9174L91.4953 49.9369L93.0535 54.5159L93.0713 54.5655H94.0731L96.1203 48.4258H95.1541L93.5603 53.1636Z" fill="#014D40"/>
<path d="M103.155 51.8868H106.151V51.0112H103.155V49.3193H106.519V48.4258H102.153V54.5655H106.638V53.672H103.155V51.8868Z" fill="#014D40"/>
<path d="M115.333 48.4258H114.331V54.5655H118.566V53.672H115.333V48.4258Z" fill="#014D40"/>
<path d="M129.243 51.8133C129.479 51.4758 129.597 51.0647 129.597 50.5902C129.597 49.919 129.364 49.3848 128.904 49.0016C128.449 48.6203 127.817 48.4277 127.031 48.4277H124.628V54.5675H125.63V52.7446H127.031C127.117 52.7446 127.227 52.7407 127.37 52.7307L128.657 54.5675H129.77L128.326 52.5183C128.716 52.3634 129.025 52.1271 129.243 51.8153V51.8133ZM128.596 50.5882C128.596 51.0012 128.465 51.311 128.196 51.5314C127.926 51.7538 127.526 51.865 127.006 51.865H125.63V49.3173H127.006C127.526 49.3173 127.926 49.4285 128.196 49.6469C128.465 49.8654 128.596 50.1732 128.596 50.5862V50.5882Z" fill="#014D40"/>
<path d="M139.84 48.4258L137.961 51.5155L136.09 48.4258H135.003L137.434 52.425V54.5655H138.428V52.4409L140.857 48.4258H139.84Z" fill="#014D40"/>
<path d="M54.3093 34.6904C54.3074 34.468 54.3034 34.2456 54.2975 34.0252C54.2935 33.8961 54.2856 33.7691 54.2796 33.64C54.2697 33.4414 54.2598 33.2429 54.246 33.0443C54.2361 32.9093 54.2242 32.7742 54.2123 32.6412C54.1965 32.4506 54.1787 32.2619 54.1589 32.0733C54.145 31.9363 54.1292 31.8012 54.1113 31.6642C54.0896 31.4776 54.0638 31.2929 54.0381 31.1082C54.0183 30.9732 53.9985 30.8382 53.9767 30.7032C53.947 30.5185 53.9153 30.3338 53.8817 30.1491C53.8579 30.0181 53.8342 29.887 53.8084 29.756C53.7708 29.5673 53.7312 29.3807 53.6916 29.194C53.6639 29.0689 53.6382 28.9458 53.6104 28.8207C53.6025 28.783 53.5946 28.7433 53.5847 28.7055C53.5768 28.6738 53.5669 28.644 53.559 28.6142C53.559 28.6102 53.557 28.6043 53.555 28.6003C53.363 27.8001 52.6502 27.2361 51.8306 27.2361H43.3073C42.2738 24.9724 40.7711 22.8895 38.8269 21.148C36.4372 18.932 33.7545 17.2541 30.8461 15.9415C28.1555 14.7283 25.645 14.3291 23.4316 12.3454C22.9564 11.9185 22.503 11.3566 22.1189 10.6735C22.3169 10.6258 22.5149 10.5801 22.7129 10.5384C22.7287 10.5345 22.7426 10.5325 22.7584 10.5285C22.9405 10.4908 23.1247 10.455 23.3068 10.4213C23.3365 10.4153 23.3642 10.4114 23.3939 10.4054C23.5642 10.3756 23.7345 10.3478 23.9047 10.32C23.9443 10.3141 23.9859 10.3081 24.0255 10.3022C24.1839 10.2783 24.3443 10.2565 24.5046 10.2366L24.6531 10.2188C24.8036 10.2009 24.956 10.185 25.1085 10.1711C25.1659 10.1651 25.2233 10.1592 25.2807 10.1552C25.4272 10.1433 25.5738 10.1314 25.7222 10.1215C25.7836 10.1175 25.845 10.1115 25.9064 10.1095C26.0568 10.1016 26.2073 10.0956 26.3578 10.0897C26.4152 10.0897 26.4726 10.0837 26.532 10.0817C26.7399 10.0758 26.9478 10.0718 27.1557 10.0718C27.4784 10.0718 27.7991 10.0817 28.1198 10.0956C29.5612 10.1671 30.9669 10.3994 32.3231 10.7728C32.0617 11.2334 31.739 11.6762 31.343 12.0098C30.9233 12.3633 30.8738 12.9908 31.25 13.3899C31.6163 13.7791 32.2597 13.6977 32.6022 13.3939C32.9309 13.102 33.5268 12.3514 34.004 11.3168C37.7023 12.6989 40.9671 15.1651 43.5033 18.3899C44.8991 20.1651 47.4511 20.5066 49.2924 19.204C49.1558 19.0114 49.0152 18.8208 48.8727 18.6321C48.835 18.5805 48.7954 18.5309 48.7578 18.4792C48.6351 18.3184 48.5123 18.1615 48.3876 18.0027C48.3599 17.9689 48.3341 17.9352 48.3064 17.8994C48.1599 17.7167 48.0114 17.536 47.861 17.3593C47.8352 17.3295 47.8095 17.2977 47.7818 17.268C47.657 17.125 47.5343 16.98 47.4056 16.839C47.3521 16.7795 47.3007 16.7199 47.2472 16.6623C47.1007 16.4995 46.9522 16.3387 46.8017 16.1818C46.7898 16.1699 46.778 16.156 46.7661 16.1441C46.6057 15.9773 46.4434 15.8105 46.2791 15.6476C46.2276 15.598 46.1781 15.5464 46.1266 15.4967C45.9999 15.3736 45.8732 15.2505 45.7445 15.1294C45.697 15.0857 45.6495 15.04 45.6019 14.9963C45.4356 14.8414 45.2654 14.6885 45.0951 14.5376C45.0496 14.4959 45.002 14.4562 44.9545 14.4165C44.8219 14.3013 44.6892 14.1882 44.5566 14.075C44.4952 14.0233 44.4338 13.9717 44.3725 13.9221C44.2259 13.8009 44.0775 13.6818 43.927 13.5627C43.8894 13.5329 43.8537 13.5051 43.8181 13.4753C43.6439 13.3383 43.4657 13.2052 43.2875 13.0722C43.2202 13.0225 43.1529 12.9729 43.0836 12.9233C42.9549 12.8299 42.8262 12.7386 42.6975 12.6473C42.6302 12.5996 42.5648 12.5539 42.4975 12.5063C42.3174 12.3812 42.1352 12.26 41.9511 12.1389C41.8858 12.0972 41.8204 12.0555 41.7531 12.0118C41.6205 11.9284 41.4898 11.845 41.3552 11.7616C41.276 11.712 41.1948 11.6623 41.1136 11.6147C40.975 11.5313 40.8345 11.4479 40.6919 11.3665C40.6167 11.3228 40.5414 11.2791 40.4662 11.2374C40.292 11.1381 40.1158 11.0428 39.9396 10.9475C39.8544 10.9018 39.7673 10.8562 39.6822 10.8125C39.5574 10.7469 39.4307 10.6834 39.304 10.6199L39.0427 10.4888C38.8506 10.3955 38.6586 10.3041 38.4665 10.2148C38.3834 10.1771 38.2983 10.1393 38.2151 10.1016C38.0844 10.044 37.9557 9.98642 37.8231 9.92884C37.7261 9.88714 37.6291 9.84743 37.5321 9.80573C37.3994 9.75013 37.2648 9.69651 37.1301 9.6429C37.0232 9.6012 36.9183 9.5595 36.8114 9.5178C36.6352 9.45029 36.459 9.38476 36.2808 9.32122C36.1818 9.28548 36.0808 9.25172 35.9818 9.21598C35.8551 9.17229 35.7284 9.12861 35.5997 9.08691C35.4988 9.05315 35.3998 9.02138 35.2988 8.98961C35.0968 8.92606 34.8929 8.86451 34.687 8.80494V8.80097C34.691 8.75927 34.6969 8.71757 34.7009 8.67388H34.6969C35.3047 2.28591 29.1256 -1.51669 23.3009 0.578215C19.8243 1.79346 17.4544 5.04801 17.494 8.73345C17.4702 9.00549 17.5019 9.26363 17.5118 9.52971C16.5595 9.89707 15.6309 10.3141 14.7321 10.7827C14.7281 10.7827 14.7222 10.7867 14.7182 10.7906C14.1262 11.0984 13.5481 11.428 12.9839 11.7775C12.97 11.7855 12.9562 11.7954 12.9423 11.8033C12.3879 12.1488 11.8455 12.5122 11.3168 12.8955C11.2753 12.9252 11.2337 12.957 11.1901 12.9868C10.6952 13.3482 10.2121 13.7295 9.74285 14.1246C9.71712 14.1465 9.69336 14.1663 9.66762 14.1881C9.18058 14.6012 8.70739 15.0321 8.25005 15.4788C8.22629 15.5007 8.20253 15.5245 8.18075 15.5464C7.94317 15.7807 7.70955 16.017 7.47988 16.2592L7.46206 16.2771C7.28586 16.43 7.11757 16.5908 6.98492 16.7834C6.92948 16.8649 6.86217 16.9344 6.79881 17.0078C6.59093 17.2441 6.38898 17.4824 6.18902 17.7247C6.17318 17.7425 6.15932 17.7604 6.14348 17.7803C5.95738 18.0106 5.76929 18.239 5.59308 18.4753C5.5713 18.505 5.54755 18.5328 5.52577 18.5626C5.33966 18.8089 5.15554 19.0591 4.97735 19.3132C4.88628 19.4423 4.80312 19.5753 4.68631 19.6905C4.58138 19.7957 4.51208 19.9268 4.45467 20.0638C4.43289 20.1174 4.40121 20.1611 4.37151 20.2068C4.20323 20.4649 4.04088 20.727 3.88249 20.9911C3.85279 21.0388 3.82507 21.0864 3.79736 21.1341C3.48454 21.6623 3.18756 22.2024 2.91038 22.7524C2.88267 22.808 2.85495 22.8617 2.82723 22.9173C2.69062 23.1933 2.55599 23.4693 2.42928 23.7512C2.4273 23.7572 2.42532 23.7632 2.42136 23.7671C2.32633 23.9796 2.22931 24.1881 2.1422 24.4045C2.0927 24.5276 2.04123 24.6488 1.99173 24.7719C1.8769 25.0539 1.76603 25.3378 1.6611 25.6238C1.65318 25.6476 1.64526 25.6694 1.63734 25.6933C1.54033 25.9653 1.44529 26.2393 1.35422 26.5133C1.33442 26.5729 1.31462 26.6325 1.29482 26.6921C1.20177 26.98 1.11466 27.2699 1.0315 27.5638C1.01963 27.6075 1.00775 27.6531 0.993887 27.6968C0.920632 27.9609 0.851337 28.225 0.786002 28.4911C0.770163 28.5507 0.756305 28.6122 0.740466 28.6718C0.669191 28.9677 0.603855 29.2655 0.544459 29.5634C0.53258 29.6249 0.520701 29.6885 0.508822 29.75C0.455366 30.0201 0.40785 30.2901 0.362313 30.5602C0.354394 30.6078 0.346475 30.6555 0.338556 30.7032C0.29104 31.007 0.247483 31.3128 0.209865 31.6205C0.194027 31.7516 0.180166 31.8846 0.162348 32.0157C0.13265 32.2361 0.116811 32.4565 0.0989926 32.6789C0.0970128 32.7147 0.093054 32.7504 0.0890943 32.7861C0.0633562 33.0979 0.0455373 33.4136 0.0316784 33.7274C0.0277187 33.8008 0.0257382 33.8763 0.0217785 33.9498C0.00989938 34.2695 0.00197985 34.5892 0 34.9108V34.9327C0 35.1531 0.00198112 35.3735 0.00594083 35.5939C0.00594083 35.6714 0.0118791 35.7488 0.0138589 35.8262C0.0178186 35.9752 0.0237585 36.1241 0.0296981 36.273C0.0336578 36.3644 0.0395977 36.4557 0.0455373 36.547C0.0534567 36.6801 0.0613766 36.8151 0.069296 36.9482C0.0752356 37.0435 0.0851339 37.1408 0.0930533 37.2361C0.102953 37.3652 0.114831 37.4922 0.12671 37.6193C0.13661 37.7166 0.146509 37.8139 0.156409 37.9112L0.197985 38.2865C0.209864 38.3838 0.221744 38.4811 0.235603 38.5804C0.251442 38.7035 0.269261 38.8266 0.287079 38.9497C0.300938 39.047 0.316778 39.1443 0.330636 39.2416C0.350435 39.3647 0.370233 39.4859 0.390031 39.607C0.40587 39.7043 0.423689 39.8016 0.441508 39.8969C0.463286 40.02 0.487044 40.1412 0.510802 40.2623C0.528621 40.3576 0.548419 40.4509 0.566238 40.5462C0.591976 40.6713 0.619695 40.7964 0.647413 40.9195C0.667211 41.0089 0.687009 41.1002 0.706807 41.1896C0.738485 41.3226 0.770164 41.4537 0.803821 41.5867C0.82362 41.6662 0.843417 41.7476 0.863216 41.827C0.906772 41.9958 0.95231 42.1646 0.999826 42.3334C1.01566 42.3929 1.03348 42.4525 1.04932 42.5141C1.10278 42.7007 1.15821 42.8894 1.21563 43.074C1.24137 43.1554 1.26909 43.2368 1.29482 43.3183C1.33442 43.4434 1.37402 43.5685 1.41559 43.6916C1.44727 43.7829 1.47895 43.8743 1.51063 43.9656C1.55023 44.0788 1.58784 44.19 1.62942 44.3032C1.66506 44.3985 1.70069 44.4938 1.73633 44.5871C1.77593 44.6943 1.81553 44.7996 1.8571 44.9048C1.89472 45.0021 1.93432 45.0974 1.97193 45.1947C2.01351 45.296 2.05509 45.3993 2.09666 45.5005C2.13824 45.5978 2.17982 45.6971 2.22139 45.7944C2.26495 45.8937 2.30653 45.991 2.35009 46.0903C2.39364 46.1876 2.43918 46.2869 2.48273 46.3842C2.52629 46.4795 2.57183 46.5748 2.61737 46.6701C2.66488 46.7694 2.71042 46.8667 2.75991 46.966C2.80545 47.0593 2.85099 47.1506 2.8985 47.244C2.948 47.3433 2.9975 47.4406 3.04897 47.5398C3.09451 47.6292 3.14401 47.7186 3.19152 47.8079C3.24498 47.9072 3.29645 48.0065 3.35189 48.1058C3.39743 48.1892 3.44494 48.2726 3.49246 48.354C3.54988 48.4572 3.60729 48.5605 3.66669 48.6618C3.7043 48.7273 3.7439 48.7908 3.78152 48.8544C3.93991 49.1244 4.10423 49.3905 4.27252 49.6546C4.2844 49.6745 4.29826 49.6943 4.31014 49.7142C4.38537 49.8293 4.46061 49.9445 4.53782 50.0597C4.57742 50.1193 4.61702 50.1808 4.65859 50.2404C4.73185 50.3496 4.80708 50.4568 4.88232 50.5641C4.92785 50.6296 4.97339 50.6951 5.01893 50.7606C5.09416 50.8659 5.16939 50.9711 5.24661 51.0744C5.29413 51.1399 5.34164 51.2034 5.38916 51.267C5.46637 51.3722 5.54557 51.4755 5.62476 51.5787C5.67228 51.6423 5.72177 51.7038 5.76929 51.7674C5.85046 51.8706 5.93164 51.9739 6.01479 52.0752C6.06231 52.1347 6.1118 52.1943 6.15932 52.2539C6.24049 52.3532 6.32365 52.4524 6.40482 52.5497C6.57707 52.7543 6.7513 52.9548 6.92948 53.1534C6.93146 53.1554 6.93344 53.1593 6.93542 53.1613C7.10371 53.35 7.27398 53.5346 7.4482 53.7173C7.468 53.7392 7.48978 53.761 7.50958 53.7829C8.42031 54.74 9.40034 55.6315 10.4417 56.4477C10.4477 56.4516 10.4536 56.4576 10.4596 56.4616C10.6476 56.6085 10.8377 56.7534 11.0298 56.8944C11.1228 56.9639 11.2159 57.0314 11.3089 57.099C11.3426 57.1228 11.3762 57.1486 11.4119 57.1724C11.5465 57.2677 11.6831 57.3631 11.8177 57.4584C11.8494 57.4802 11.8811 57.5021 11.9128 57.5239C12.0533 57.6192 12.1959 57.7145 12.3384 57.8078C12.3622 57.8237 12.3879 57.8396 12.4137 57.8555C12.5641 57.9528 12.7166 58.0501 12.869 58.1454C12.8789 58.1514 12.8908 58.1593 12.9007 58.1653C14.0965 58.9059 15.3538 59.5553 16.6624 60.1053C16.6664 60.1053 16.6704 60.1093 16.6743 60.1113C16.8525 60.1867 17.0327 60.2582 17.2128 60.3297C17.2267 60.3356 17.2425 60.3416 17.2564 60.3476C17.4326 60.4171 17.6088 60.4846 17.787 60.5501C17.8048 60.556 17.8226 60.564 17.8424 60.57C18.0186 60.6355 18.1968 60.697 18.375 60.7586C18.3928 60.7645 18.4106 60.7705 18.4265 60.7765C18.6086 60.838 18.7908 60.8976 18.9749 60.9572C18.9848 60.9611 18.9947 60.9631 19.0046 60.9671C20.5746 61.4615 22.206 61.817 23.883 62.0195L24.9481 68.5008C25.1085 69.3547 25.8549 70 26.7537 70C27.6526 70 28.397 69.3547 28.5594 68.5008L28.8563 66.6958L29.6107 62.1049C43.0519 60.8837 53.7767 49.734 54.2856 36.0089C54.2975 35.6753 54.3034 35.3437 54.3034 35.0121C54.3034 34.9049 54.2994 34.7977 54.2994 34.6884H54.3093V34.6904ZM39.0605 29.1186C42.5549 36.2849 39.1397 44.7956 31.9944 47.6729L34.6613 31.4498C34.883 30.1055 36.0412 29.1186 37.4014 29.1186H39.0605ZM26.7339 2.03174C28.4901 1.88083 30.2759 2.49044 31.5291 3.74738C32.7527 4.9249 33.3387 6.67032 33.2378 8.3522C33.2338 8.37206 33.2279 8.39986 33.2199 8.42964C33.0081 8.38198 32.7943 8.33631 32.5824 8.29263C32.5468 8.28469 32.5112 8.27674 32.4755 8.27079C32.2775 8.23107 32.0795 8.19533 31.8796 8.15959C31.8202 8.14966 31.7608 8.13774 31.6994 8.12782C31.5173 8.09605 31.3331 8.06824 31.149 8.04045C31.0678 8.02853 30.9867 8.01662 30.9055 8.0047C30.7372 7.98087 30.5689 7.95903 30.4006 7.93918C30.2997 7.92726 30.1967 7.91535 30.0938 7.90542C29.9413 7.88953 29.7889 7.87166 29.6344 7.85776C29.5097 7.84585 29.383 7.8379 29.2583 7.82798C29.1236 7.81805 28.991 7.80613 28.8544 7.79819C28.696 7.78826 28.5356 7.78231 28.3752 7.77436C28.2703 7.77039 28.1654 7.76443 28.0604 7.76046C27.8011 7.75252 27.5417 7.74656 27.2804 7.74656H27.2269C26.9913 7.74656 26.7557 7.74855 26.5221 7.75451C26.4508 7.75451 26.3796 7.76046 26.3083 7.76245C26.1341 7.7684 25.9598 7.77436 25.7856 7.78231C25.7084 7.78628 25.6331 7.79223 25.5559 7.79621C25.3857 7.80613 25.2174 7.81805 25.0471 7.82996C24.9739 7.83592 24.9026 7.84188 24.8293 7.84783C24.6551 7.86372 24.4809 7.8796 24.3086 7.89748C24.2433 7.90343 24.178 7.91138 24.1126 7.91932C23.9305 7.93917 23.7483 7.963 23.5662 7.98683C23.5107 7.99477 23.4573 8.00073 23.4019 8.00867C23.2078 8.03647 23.0138 8.06626 22.8218 8.09604C22.7802 8.102 22.7386 8.10995 22.697 8.1159C22.4891 8.15164 22.2813 8.18937 22.0734 8.22909C22.0476 8.23504 22.0199 8.23901 21.9942 8.24497C21.7606 8.29064 21.5289 8.3383 21.2993 8.38993C21.1976 8.41243 21.1976 8.41243 21.2993 8.38993C21.2715 8.1993 21.2498 7.99676 21.2399 7.81209C21.0894 4.66874 23.6513 2.2045 26.7379 2.02976H26.7339V2.03174ZM28.8346 55.3158C28.6623 56.3603 27.1656 56.3603 26.9933 55.3158L26.5221 52.4465C27.4507 52.5001 28.3851 52.4802 29.3177 52.3849L28.8346 55.3158ZM29.579 48.3917C28.3119 48.6359 27.0784 48.7074 25.8965 48.632L22.507 28.0225C22.4317 27.5677 22.0397 27.2341 21.5804 27.2341H12.9839C12.7087 27.2341 12.4572 27.389 12.3246 27.6313C10.4615 31.0407 9.8854 35.1392 10.6892 38.9656C12.1484 45.5462 16.7535 49.9227 22.1882 51.6482L23.4909 59.5731C22.3011 59.3666 21.1428 59.0608 20.0222 58.6657C20.0084 58.6617 19.9965 58.6557 19.9827 58.6518C19.8342 58.6001 19.6877 58.5445 19.5411 58.4889C19.5233 58.483 19.5075 58.475 19.4897 58.4691C19.3451 58.4135 19.1986 58.3559 19.0561 58.2983C19.0422 58.2924 19.0264 58.2864 19.0125 58.2804C18.864 58.2189 18.7175 58.1573 18.571 58.0938L18.179 57.919C17.389 57.5676 16.609 57.1824 15.8923 56.6998C15.8764 56.6899 15.8606 56.68 15.8428 56.6701C15.7121 56.5906 15.5814 56.5072 15.4527 56.4258C15.4329 56.4139 15.4131 56.4 15.3934 56.3881C15.2706 56.3087 15.1479 56.2272 15.0271 56.1458C15.0033 56.1299 14.9776 56.1121 14.9538 56.0962C14.835 56.0148 14.7162 55.9334 14.5994 55.85C14.5737 55.8321 14.5499 55.8142 14.5242 55.7963C14.4054 55.7129 14.2886 55.6276 14.1718 55.5402C14.152 55.5243 14.1302 55.5084 14.1104 55.4945C13.9896 55.4032 13.8689 55.3118 13.7481 55.2185C13.7422 55.2126 13.7342 55.2086 13.7283 55.2026C13.0789 54.6963 12.4553 54.1542 11.8593 53.5783C11.8356 53.5545 11.8098 53.5307 11.7861 53.5068C11.691 53.4135 11.596 53.3182 11.501 53.2249C11.4673 53.1911 11.4356 53.1593 11.402 53.1256C11.3129 53.0342 11.2238 52.9429 11.1367 52.8496C11.101 52.8118 11.0634 52.7721 11.0278 52.7344C10.9426 52.6431 10.8595 52.5517 10.7744 52.4604C10.7367 52.4187 10.6991 52.377 10.6615 52.3353C10.5784 52.2439 10.4972 52.1506 10.416 52.0593C10.3784 52.0176 10.3427 51.9739 10.3071 51.9322C10.2259 51.8369 10.1448 51.7435 10.0656 51.6462C10.0339 51.6065 10.0022 51.5668 9.96856 51.5291C9.8854 51.4278 9.80225 51.3265 9.72108 51.2233C9.70326 51.1995 9.68544 51.1756 9.66564 51.1538C9.3845 50.7984 9.11326 50.433 8.84994 50.0597C8.82222 50.02 8.7945 49.9822 8.76877 49.9445C8.70343 49.8492 8.6381 49.7519 8.57276 49.6566C8.53514 49.599 8.49555 49.5434 8.45793 49.4858C8.39853 49.3945 8.33914 49.3031 8.27974 49.2118C8.23817 49.1482 8.19659 49.0827 8.15699 49.0192C8.10156 48.9298 8.04414 48.8405 7.99068 48.7491C7.94911 48.6796 7.90753 48.6121 7.86595 48.5426C7.8125 48.4533 7.75904 48.3659 7.70757 48.2765C7.66599 48.205 7.62441 48.1316 7.58284 48.0601C7.53136 47.9707 7.48186 47.8834 7.43237 47.794C7.39079 47.7186 7.35119 47.6451 7.30962 47.5696C7.2621 47.4803 7.21458 47.3929 7.16707 47.3035C7.12549 47.2261 7.08589 47.1467 7.0463 47.0692C7.00076 46.9819 6.95522 46.8925 6.91166 46.8051C6.87009 46.7217 6.83049 46.6383 6.79089 46.5549C6.74932 46.4696 6.70774 46.3842 6.66616 46.2988C6.60083 46.1598 6.53747 46.0208 6.47412 45.8798C6.42858 45.7785 6.38503 45.6773 6.34147 45.576C6.29989 45.4787 6.25633 45.3814 6.21476 45.2821C6.1811 45.2007 6.14744 45.1173 6.11378 45.0359C6.07617 44.9426 6.03657 44.8472 5.99895 44.7519C5.9653 44.6685 5.93362 44.5831 5.90194 44.4997C5.8663 44.4044 5.83067 44.3111 5.79503 44.2158C5.76335 44.1304 5.73365 44.045 5.70198 43.9596C5.66832 43.8643 5.63466 43.769 5.601 43.6717C5.5713 43.5863 5.54359 43.5009 5.51389 43.4156C5.48221 43.3183 5.44855 43.219 5.41886 43.1217C5.39114 43.0363 5.3654 42.9529 5.33966 42.8675C5.30798 42.7662 5.27829 42.665 5.24859 42.5637C5.22483 42.4803 5.19909 42.3969 5.17533 42.3135C5.14564 42.2063 5.11594 42.099 5.08624 41.9918C5.06446 41.9124 5.04268 41.833 5.02289 41.7535C4.99121 41.6324 4.96151 41.5093 4.93181 41.3882C4.91597 41.3206 4.89816 41.2551 4.88232 41.1876C4.83876 40.999 4.7952 40.8103 4.75363 40.6217C4.74571 40.5859 4.73977 40.5482 4.73185 40.5125C4.70017 40.3576 4.66849 40.2007 4.63879 40.0458C4.62494 39.9744 4.61306 39.9029 4.5992 39.8314C4.57742 39.7083 4.55366 39.5852 4.53386 39.462C4.52 39.3826 4.50812 39.3012 4.49625 39.2218C4.47843 39.1066 4.46061 38.9895 4.44279 38.8723C4.43091 38.7889 4.41903 38.7055 4.40913 38.6221C4.39329 38.5069 4.37943 38.3937 4.36557 38.2786C4.35568 38.1932 4.34578 38.1078 4.33588 38.0224C4.324 37.9072 4.31014 37.7941 4.30024 37.6789C4.29232 37.5935 4.2844 37.5081 4.27648 37.4227C4.26658 37.3056 4.25668 37.1884 4.24678 37.0713C4.24084 36.9879 4.23292 36.9025 4.22896 36.8191C4.22105 36.696 4.21313 36.5748 4.20719 36.4517C4.20323 36.3723 4.19729 36.2929 4.19531 36.2115C4.18937 36.0764 4.18541 35.9394 4.18145 35.8044C4.18145 35.7369 4.17749 35.6694 4.17551 35.6019C4.17155 35.3973 4.16759 35.1928 4.16759 34.9883C4.16759 34.7023 4.17353 34.4184 4.18343 34.1344C4.18541 34.0629 4.18739 33.9915 4.19135 33.922C4.20125 33.644 4.21511 33.366 4.2349 33.0919V33.078C4.2547 32.7981 4.28044 32.5201 4.30816 32.2421C4.31608 32.1726 4.32202 32.1031 4.32994 32.0356C4.35964 31.7675 4.39131 31.4994 4.42893 31.2353C4.42893 31.2254 4.43091 31.2174 4.43289 31.2075C4.47051 30.9335 4.51604 30.6615 4.56158 30.3894C4.57346 30.3219 4.58534 30.2564 4.59722 30.1908C4.64473 29.9307 4.69423 29.6706 4.74769 29.4125C4.74967 29.4025 4.75165 29.3926 4.75363 29.3807C4.81104 29.1126 4.87242 28.8465 4.93775 28.5824C4.95359 28.5189 4.96943 28.4573 4.98527 28.3938C5.04862 28.1396 5.11594 27.8874 5.18721 27.6372C5.19117 27.6253 5.19315 27.6154 5.19711 27.6035C5.27235 27.3414 5.35154 27.0832 5.4347 26.8251C5.45251 26.7675 5.47231 26.7079 5.49211 26.6504C5.57329 26.4041 5.65644 26.1579 5.74355 25.9156C5.74751 25.9057 5.75147 25.8938 5.75543 25.8839C5.84848 25.6297 5.9455 25.3775 6.04449 25.1253C6.08409 25.0241 6.12566 24.9228 6.16724 24.8215C6.24247 24.6309 6.32563 24.4443 6.40878 24.2576C6.41472 24.2457 6.41868 24.2358 6.42264 24.2238C6.53153 23.9756 6.64637 23.7314 6.76318 23.4891C6.82257 23.366 6.88395 23.2429 6.94334 23.1178C7.0166 22.9609 7.10173 22.81 7.18291 22.6551C7.18687 22.6472 7.19082 22.6393 7.19478 22.6293C7.32149 22.3891 7.45216 22.1528 7.58679 21.9185C7.61055 21.8768 7.63431 21.8351 7.66005 21.7934C7.79072 21.567 7.92337 21.3426 8.06196 21.1202C8.06394 21.1162 8.0679 21.1103 8.06988 21.1063C8.21243 20.876 8.36092 20.6476 8.51139 20.4232C8.53119 20.3934 8.55296 20.3617 8.57276 20.3319C8.72323 20.1075 8.87766 19.8871 9.03407 19.6667L9.04001 19.6587C9.19839 19.4383 9.36272 19.2199 9.52903 19.0054C9.54883 18.9796 9.56863 18.9558 9.58842 18.93C9.75671 18.7155 9.92698 18.5031 10.1012 18.2926C10.2754 18.0821 10.4556 17.8756 10.6377 17.673C10.6595 17.6472 10.6833 17.6234 10.7051 17.5976C11.0674 17.1945 11.4435 16.8053 11.8296 16.43C11.8514 16.4101 11.8712 16.3883 11.893 16.3684C12.285 15.9912 12.6869 15.6298 13.1007 15.2823C13.1205 15.2664 13.1403 15.2505 13.1601 15.2326C13.5778 14.8851 14.0075 14.5515 14.447 14.2338C14.4648 14.2219 14.4826 14.208 14.5004 14.1961C14.9439 13.8784 15.3973 13.5766 15.8606 13.2926C15.8784 13.2827 15.8943 13.2708 15.9121 13.2608C16.3773 12.9769 16.8545 12.7108 17.3395 12.4626C17.3574 12.4546 17.3752 12.4447 17.391 12.4368C17.6326 12.3137 17.8741 12.1965 18.1196 12.0813C18.9195 13.93 20.3667 15.6238 21.913 16.7954C23.2177 17.7783 24.7145 18.4951 26.1776 19.1524C27.0329 19.5277 27.9951 19.9169 28.8405 20.3061C32.3013 21.9145 35.7363 24.1246 37.9518 27.2441H34.2574C33.7981 27.2441 33.406 27.5777 33.3308 28.0324L29.9967 48.3123C29.8621 48.344 29.7255 48.3738 29.5869 48.4016L29.581 48.3917H29.579ZM21.523 47.6093C14.9499 44.8472 11.109 37.0951 13.6333 29.7103C13.754 29.3549 14.0867 29.1166 14.4608 29.1166H16.1299C17.488 29.1166 18.6463 30.1015 18.866 31.4458L21.523 47.6093ZM50.1556 35.6019C50.1556 35.6694 50.1516 35.7389 50.1497 35.8064C50.1457 35.9434 50.1417 36.0804 50.1358 36.2174C50.1318 36.2988 50.1279 36.3802 50.1219 36.4617C50.116 36.5848 50.1081 36.7079 50.1002 36.831C50.0942 36.9164 50.0883 37.0018 50.0804 37.0872C50.0705 37.2043 50.0625 37.3215 50.0507 37.4386C50.0427 37.526 50.0328 37.6153 50.0249 37.7027C50.0131 37.8159 50.0012 37.9291 49.9893 38.0423C49.9794 38.1316 49.9695 38.219 49.9576 38.3084C49.9438 38.4196 49.9299 38.5308 49.9141 38.642C49.9022 38.7313 49.8903 38.8207 49.8764 38.908C49.8606 39.0173 49.8428 39.1284 49.8269 39.2377C49.8131 39.325 49.7992 39.4144 49.7834 39.5018C49.7656 39.611 49.7458 39.7222 49.726 39.8314C49.7101 39.9188 49.6943 40.0041 49.6785 40.0895C49.6567 40.2007 49.6349 40.3119 49.6111 40.4211C49.5933 40.5045 49.5775 40.5899 49.5597 40.6733C49.5359 40.7865 49.5102 40.8997 49.4844 41.0109C49.4666 41.0903 49.4488 41.1717 49.429 41.2512C49.3993 41.3703 49.3696 41.4894 49.3399 41.6086C49.3221 41.6801 49.3043 41.7515 49.2864 41.823C49.2468 41.9779 49.2033 42.1308 49.1597 42.2817C49.1498 42.3175 49.1399 42.3532 49.13 42.389C49.0766 42.5756 49.0211 42.7603 48.9637 42.9449C48.942 43.0144 48.9182 43.082 48.8964 43.1515C48.8588 43.2666 48.8232 43.3838 48.7836 43.499C48.7578 43.5784 48.7281 43.6558 48.7024 43.7353C48.6668 43.8385 48.6311 43.9438 48.5935 44.047C48.5638 44.1304 48.5321 44.2118 48.5024 44.2952C48.4648 44.3925 48.4292 44.4918 48.3915 44.5891C48.3599 44.6725 48.3262 44.7579 48.2926 44.8413C48.2549 44.9366 48.2173 45.0319 48.1777 45.1252C48.1421 45.2106 48.1065 45.294 48.0708 45.3774C48.0312 45.4688 47.9916 45.5621 47.952 45.6534C47.9144 45.7388 47.8768 45.8222 47.8392 45.9076C47.7996 45.997 47.758 46.0863 47.7164 46.1757C47.6768 46.2611 47.6372 46.3445 47.5976 46.4279C47.556 46.5152 47.5125 46.6026 47.4689 46.69C47.4274 46.7734 47.3858 46.8568 47.3442 46.9402C47.3007 47.0255 47.2551 47.1129 47.2116 47.1983C47.168 47.2817 47.1244 47.3651 47.0809 47.4465C47.0354 47.5319 46.9898 47.6153 46.9423 47.6987C46.8968 47.7801 46.8532 47.8635 46.8057 47.9449C46.7582 48.0283 46.7107 48.1097 46.6631 48.1911C46.6156 48.2726 46.5701 48.354 46.5226 48.4354C46.4751 48.5168 46.4236 48.5962 46.3761 48.6776C46.2731 48.8464 46.1682 49.0152 46.0613 49.182C46.0197 49.2455 45.9801 49.3091 45.9385 49.3726C45.8811 49.458 45.8237 49.5434 45.7663 49.6288C45.7187 49.6983 45.6732 49.7678 45.6257 49.8373C45.5683 49.9227 45.5089 50.0061 45.4495 50.0895C45.402 50.157 45.3525 50.2265 45.305 50.294C45.2456 50.3774 45.1842 50.4588 45.1228 50.5422C45.0733 50.6097 45.0238 50.6772 44.9743 50.7428C44.9129 50.8242 44.8496 50.9056 44.7882 50.987C44.7367 51.0525 44.6872 51.1181 44.6358 51.1836C44.5724 51.265 44.5071 51.3444 44.4417 51.4239C44.3903 51.4874 44.3388 51.549 44.2873 51.6125C44.22 51.6919 44.1547 51.7713 44.0874 51.8508C44.0359 51.9123 43.9844 51.9719 43.9309 52.0335C43.8616 52.1129 43.7924 52.1923 43.7231 52.2698C43.6716 52.3273 43.6181 52.3869 43.5667 52.4445C43.4954 52.5239 43.4241 52.6014 43.3508 52.6808C43.2994 52.7364 43.2479 52.79 43.1964 52.8436C43.1212 52.923 43.046 53.0025 42.9687 53.0799L42.8202 53.2288C42.7411 53.3103 42.6599 53.3897 42.5787 53.4691C42.5351 53.5108 42.4916 53.5525 42.4461 53.5962C42.357 53.6816 42.2698 53.767 42.1808 53.8504C42.157 53.8722 42.1313 53.8941 42.1075 53.9159C41.759 54.2396 41.3967 54.5493 41.0305 54.8551C41.0126 54.871 40.9948 54.8849 40.977 54.9008C40.876 54.9822 40.7751 55.0616 40.6741 55.1431C40.6325 55.1748 40.5909 55.2086 40.5513 55.2404C40.4563 55.3158 40.3593 55.3873 40.2623 55.4608C40.2148 55.4965 40.1672 55.5342 40.1177 55.568C40.0227 55.6375 39.9257 55.707 39.8307 55.7765C39.7792 55.8122 39.7297 55.85 39.6782 55.8857C39.5832 55.9532 39.4862 56.0187 39.3892 56.0863C39.3377 56.122 39.2842 56.1577 39.2327 56.1915C39.1357 56.257 39.0368 56.3206 38.9397 56.3841C38.8863 56.4179 38.8328 56.4516 38.7813 56.4854C38.6824 56.5489 38.5814 56.6105 38.4824 56.672C38.4309 56.7038 38.3775 56.7356 38.324 56.7673C38.221 56.8289 38.1201 56.8905 38.0151 56.95C37.9656 56.9798 37.9142 57.0076 37.8627 57.0374C37.7558 57.099 37.6489 57.1585 37.54 57.2181C37.4944 57.2419 37.4509 57.2658 37.4053 57.2896C37.2905 57.3511 37.1757 57.4127 37.0609 57.4723C37.0272 57.4901 36.9935 57.506 36.9619 57.5219C36.2353 57.8913 35.4889 58.2229 34.7246 58.5108C34.693 58.5227 34.6633 58.5346 34.6316 58.5465C34.5049 58.5942 34.3782 58.6379 34.2514 58.6835C34.2079 58.6994 34.1643 58.7153 34.1188 58.7292C33.998 58.7709 33.8753 58.8106 33.7525 58.8503C33.703 58.8662 33.6516 58.8841 33.6021 58.9C33.4833 58.9377 33.3625 58.9735 33.2417 59.0092C33.1883 59.0251 33.1348 59.041 33.0814 59.0569C32.9626 59.0906 32.8418 59.1244 32.721 59.1561C32.6656 59.17 32.6101 59.1859 32.5547 59.1998C32.4339 59.2316 32.3132 59.2614 32.1924 59.2912C32.137 59.3051 32.0835 59.317 32.0281 59.3309C31.9053 59.3587 31.7826 59.3865 31.6598 59.4143C31.6064 59.4262 31.5529 59.4361 31.4995 59.448C31.3727 59.4739 31.246 59.4997 31.1193 59.5235C31.0718 59.5334 31.0223 59.5414 30.9748 59.5493C30.8421 59.5731 30.7095 59.597 30.5749 59.6188C30.5392 59.6248 30.5016 59.6287 30.466 59.6347C30.3195 59.6565 30.173 59.6804 30.0245 59.7002L31.2797 52.0712C35.079 51.2372 38.6923 49.1046 41.4185 45.5263C45.0931 40.6713 45.8435 34.5355 44.0537 29.1166H47.2076C48.5994 29.1166 49.7774 30.1511 49.9556 31.5352C49.9893 31.7993 50.019 32.0653 50.0447 32.3314C50.0526 32.4049 50.0586 32.4784 50.0645 32.5538C50.0804 32.7405 50.0962 32.9291 50.1101 33.1178C50.116 33.2071 50.1219 33.2945 50.1279 33.3838C50.1378 33.5685 50.1477 33.7552 50.1536 33.9418C50.1576 34.0232 50.1615 34.1046 50.1635 34.1861C50.1714 34.4502 50.1754 34.7162 50.1754 34.9823C50.1754 35.1888 50.1734 35.3953 50.1675 35.6019H50.1556Z" fill="#014D40"/>
<path d="M73.0684 34.1662C70.3698 33.1733 67.5802 32.1447 67.5802 30.0756C67.5802 28.7631 69.168 28.076 70.7381 28.076C73.985 28.076 75.5986 29.2714 76.9053 32.6431L76.937 32.7226L77.4518 32.6292V28.644L77.329 28.4394L77.3033 28.4255C75.8124 27.6253 73.7633 27.2202 71.2113 27.2202C67.6653 27.2202 65.5449 29.2456 65.5449 31.2015C65.5449 33.8365 68.6058 34.9485 71.5657 36.0268C74.1216 36.958 76.5371 37.8357 76.5371 39.5454C76.5371 41.2551 74.676 41.9421 72.8308 41.9421C69.7323 41.9421 67.8673 40.6534 66.1785 37.3492L66.1409 37.2758L65.6518 37.3909H65.6499L65.5449 37.4148V41.2054L65.6518 41.3842L65.7647 41.5748L65.7884 41.5887C67.0298 42.2757 69.8531 42.796 72.3576 42.796C74.8621 42.796 78.4971 41.5966 78.4971 38.2924C78.4971 36.1638 75.86 35.1928 73.0684 34.1642V34.1662Z" fill="#014D40"/>
<path d="M94.5655 38.2232C93.7814 39.9825 91.9818 42.0377 89.4911 42.0377H86.351C85.3611 42.0377 84.8246 41.857 84.8246 40.9079V35.3003H88.8278C89.697 35.3003 90.9423 36.2435 90.9423 36.9007V37.006H91.5165V32.834H90.9423V32.9393C90.9423 33.5985 89.697 34.5397 88.8278 34.5397H84.8246V29.1267C84.8246 28.4496 85.1136 27.9969 86.5292 27.9969H89.2614C91.6511 27.9969 93.0766 30.0719 93.8507 31.8114L93.8883 31.8968L94.413 31.728L93.4647 27.421L93.2291 27.2344H80.6016V27.8043H80.7065C81.4727 27.8043 82.3874 28.0326 82.3874 29.1267V40.9079C82.3874 42 81.4747 42.2303 80.7065 42.2303H80.6016V42.8002H93.4548L93.6824 42.6374L95.1297 38.3324L94.6051 38.1319L94.5655 38.2212V38.2232Z" fill="#014D40"/>
<path d="M113.5 27.8043H113.605V27.2344H109.159V27.8043H109.263C109.802 27.8043 110.198 27.9294 110.352 28.1458C110.471 28.3146 110.471 28.5648 110.352 28.8904L106.011 39.3729L101.429 29.1585C101.235 28.7375 101.209 28.396 101.354 28.1736C101.506 27.9393 101.867 27.8043 102.342 27.8043H102.447V27.2344H96.1865V27.8043H96.2914C97.0893 27.8043 98.1446 28.1716 98.7108 29.1982L104.648 42.6572L104.868 42.7982H105.339L105.561 42.6513L111.233 28.9937C111.748 27.9572 112.877 27.8023 113.504 27.8023H113.5V27.8043Z" fill="#014D40"/>
<path d="M124.151 40.7708L118.164 27.3754L117.946 27.2344H117.5L117.277 27.3873L112.113 40.9615C111.596 42.1052 110.355 42.2283 109.846 42.2283H109.741V42.7982H114.188V42.2283H114.083C113.545 42.2283 113.139 42.0993 112.968 41.8729C112.846 41.7101 112.83 41.4738 112.921 41.1779L114.051 38.2133H120.232L121.5 40.9575C121.64 41.3566 121.636 41.6664 121.484 41.8769C121.319 42.1032 120.977 42.2283 120.518 42.2283H120.413V42.7982H126.673V42.2283H126.568C125.778 42.2283 124.671 41.8451 124.149 40.7689H124.151V40.7708ZM114.344 37.4527L116.865 30.7908L119.896 37.4527H114.344Z" fill="#014D40"/>
<path d="M152.294 27.1826C147.757 27.1826 144.587 30.3935 144.587 34.9904C144.587 39.5872 147.757 42.7981 152.294 42.7981C156.832 42.7981 160 39.5872 160 34.9904C160 30.3935 156.83 27.1826 152.294 27.1826ZM152.993 41.8609C149.566 41.8609 147.078 38.7254 147.078 34.4026C147.078 31.5372 147.862 28.1199 151.594 28.1199C155.007 28.1199 157.486 31.2553 157.486 35.5761C157.486 38.4415 156.706 41.8589 152.993 41.8589V41.8609Z" fill="#014D40"/>
<path d="M136.663 35.8484H136.768C137.524 35.8484 138.427 36.0708 138.427 37.1331V40.6954C137.578 41.0926 136.606 41.2792 135.376 41.2792C133.355 41.2792 131.632 40.3897 130.524 38.7773L130.514 38.7634C130.049 38.0803 129.71 37.288 129.506 36.4103C129.011 34.5616 129.276 32.989 129.587 31.9902C129.702 31.5116 129.924 31.0033 130.231 30.5188L130.262 30.4711C130.526 30.0641 130.844 29.6828 131.155 29.4008C131.674 28.9322 132.828 28.1459 134.741 28.1459C135.125 28.1459 135.525 28.1776 135.927 28.2432C136.226 28.3008 136.489 28.3683 136.729 28.4497C138.592 29.1367 139.702 31.0231 140.199 32.0855C140.28 32.2662 140.36 32.4528 140.439 32.6494L140.471 32.7289L140.777 32.6752V28.5688L140.771 28.5609L140.641 28.3365C139.122 27.6038 137.079 27.2305 134.557 27.2305C133.594 27.2305 132.694 27.3715 131.88 27.6534L131.805 27.6792L131.627 27.7448C128.611 28.829 126.812 31.5493 126.812 35.0342C126.812 39.6113 129.965 42.8062 134.483 42.8062C136.147 42.8062 137.677 42.3654 138.901 41.5394C139.013 41.4758 139.095 41.4719 139.16 41.4719C139.544 41.4719 139.968 41.9266 140.241 42.6275L140.273 42.7089L140.785 42.6156V37.143C140.785 36.0628 141.203 35.8583 141.971 35.8583H142.076V35.2983H136.667V35.8583L136.663 35.8484Z" fill="#014D40"/>
</svg>
