<svg width="160" height="176" viewBox="0 0 160 176" fill="none" xmlns="http://www.w3.org/2000/svg">
<path d="M132.342 66.8335C132.338 66.405 132.33 65.9765 132.319 65.5519C132.311 65.3032 132.296 65.0584 132.285 64.8097C132.266 64.4272 132.246 64.0446 132.22 63.6621C132.201 63.4019 132.178 63.1418 132.155 62.8855C132.124 62.5182 132.09 62.1548 132.052 61.7914C132.025 61.5274 131.995 61.2673 131.96 61.0033C131.918 60.6437 131.869 60.2879 131.819 59.9321C131.781 59.672 131.743 59.4119 131.701 59.1517C131.643 58.7959 131.582 58.4402 131.517 58.0844C131.472 57.8319 131.426 57.5794 131.376 57.3269C131.304 56.9635 131.227 56.6039 131.151 56.2443C131.098 56.0033 131.048 55.7661 130.995 55.5251C130.979 55.4524 130.964 55.3759 130.945 55.3032C130.93 55.242 130.911 55.1846 130.895 55.1272C130.895 55.1196 130.892 55.1081 130.888 55.1004C130.517 53.5587 129.144 52.4723 127.563 52.4723H111.133C109.141 48.1111 106.244 44.0981 102.496 40.7431C97.8893 36.4737 92.7178 33.2411 87.1112 30.7124C81.9244 28.375 77.085 27.6061 72.818 23.7843C71.902 22.9618 71.028 21.8792 70.2876 20.5632C70.6693 20.4714 71.0509 20.3834 71.4326 20.303C71.4631 20.2954 71.4898 20.2916 71.5204 20.2839C71.8715 20.2112 72.2264 20.1424 72.5776 20.0773C72.6348 20.0659 72.6882 20.0582 72.7455 20.0467C73.0737 19.9893 73.4019 19.9358 73.7302 19.8822C73.8065 19.8707 73.8867 19.8593 73.963 19.8478C74.2683 19.8019 74.5775 19.7598 74.8866 19.7215L75.1728 19.6871C75.4629 19.6527 75.7568 19.6221 76.0507 19.5953C76.1614 19.5838 76.272 19.5724 76.3827 19.5647C76.6651 19.5418 76.9476 19.5188 77.2338 19.4997C77.3521 19.492 77.4705 19.4805 77.5888 19.4767C77.8788 19.4614 78.1689 19.4499 78.459 19.4385C78.5696 19.4385 78.6803 19.427 78.7948 19.4232C79.1956 19.4117 79.5963 19.404 79.997 19.404C80.6192 19.404 81.2374 19.4232 81.8557 19.4499C84.6342 19.5877 87.344 20.0353 89.9584 20.7545C89.4546 21.642 88.8325 22.4951 88.0692 23.1378C87.26 23.8187 87.1646 25.0276 87.8898 25.7966C88.5959 26.5464 89.8363 26.3895 90.4965 25.8042C91.1301 25.2419 92.2789 23.7958 93.1987 21.8027C100.328 24.4653 106.622 29.2166 111.511 35.4293C114.201 38.8494 119.121 39.5074 122.671 36.9978C122.407 36.6268 122.136 36.2595 121.861 35.8961C121.789 35.7966 121.713 35.701 121.64 35.6015C121.403 35.2916 121.167 34.9894 120.926 34.6834C120.873 34.6183 120.823 34.5533 120.77 34.4844C120.487 34.1325 120.201 33.7844 119.911 33.4439C119.862 33.3865 119.812 33.3253 119.758 33.2679C119.518 32.9925 119.281 32.7132 119.033 32.4416C118.93 32.3268 118.831 32.212 118.728 32.1011C118.446 31.7874 118.159 31.4775 117.869 31.1753C117.846 31.1524 117.823 31.1256 117.801 31.1026C117.491 30.7813 117.178 30.4599 116.862 30.1462C116.762 30.0506 116.667 29.9511 116.568 29.8555C116.324 29.6183 116.079 29.3811 115.831 29.1478C115.74 29.0636 115.648 28.9756 115.556 28.8914C115.236 28.5931 114.908 28.2985 114.579 28.0077C114.492 27.9274 114.4 27.8509 114.308 27.7744C114.053 27.5525 113.797 27.3344 113.541 27.1164C113.423 27.0169 113.305 26.9174 113.186 26.8218C112.904 26.5884 112.618 26.3589 112.328 26.1294C112.255 26.072 112.186 26.0184 112.118 25.9611C111.782 25.6971 111.438 25.4408 111.095 25.1845C110.965 25.0888 110.835 24.9932 110.702 24.8975C110.454 24.7177 110.206 24.5418 109.957 24.3658C109.828 24.274 109.702 24.186 109.572 24.0942C109.225 23.8532 108.874 23.6198 108.519 23.3864C108.393 23.3061 108.267 23.2258 108.137 23.1416C107.881 22.9809 107.629 22.8203 107.37 22.6596C107.217 22.564 107.061 22.4683 106.904 22.3765C106.637 22.2158 106.366 22.0551 106.091 21.8983C105.946 21.8141 105.801 21.73 105.656 21.6496C105.32 21.4584 104.981 21.2747 104.641 21.0911C104.477 21.0031 104.309 20.9151 104.145 20.831C103.904 20.7047 103.66 20.5823 103.416 20.4599L102.912 20.2074C102.542 20.0276 102.172 19.8516 101.801 19.6795C101.641 19.6068 101.477 19.5341 101.317 19.4614C101.065 19.3505 100.817 19.2395 100.561 19.1286C100.374 19.0483 100.187 18.9717 99.9999 18.8914C99.7442 18.7843 99.4846 18.681 99.2251 18.5777C99.019 18.4974 98.8167 18.417 98.6106 18.3367C98.271 18.2066 97.9313 18.0804 97.5878 17.958C97.397 17.8891 97.2023 17.8241 97.0115 17.7552C96.7672 17.671 96.523 17.5869 96.2749 17.5065C96.0802 17.4415 95.8894 17.3803 95.6948 17.3191C95.3055 17.1967 94.9124 17.0781 94.5154 16.9633V16.9557C94.5231 16.8753 94.5345 16.795 94.5421 16.7108H94.5345C95.7062 4.40396 83.7946 -2.92201 72.5661 1.11397C65.8641 3.45522 61.2957 9.72533 61.372 16.8256C61.3262 17.3497 61.3873 17.847 61.4063 18.3596C59.5706 19.0674 57.7806 19.8707 56.0478 20.7736C56.0402 20.7736 56.0287 20.7812 56.0211 20.7889C54.8799 21.3819 53.7655 22.0169 52.6778 22.6902C52.651 22.7055 52.6243 22.7246 52.5976 22.7399C51.529 23.4056 50.4832 24.1057 49.4642 24.844C49.384 24.9014 49.3039 24.9626 49.2199 25.02C48.2658 25.7162 47.3345 26.4507 46.43 27.212C46.3804 27.2541 46.3346 27.2924 46.2849 27.3344C45.3461 28.1302 44.4339 28.9603 43.5522 29.8211C43.5064 29.8631 43.4607 29.909 43.4187 29.9511C42.9607 30.4025 42.5103 30.8578 42.0676 31.3245L42.0332 31.3589C41.6936 31.6535 41.3691 31.9634 41.1134 32.3345C41.0066 32.4913 40.8768 32.6252 40.7547 32.7668C40.3539 33.222 39.9646 33.6811 39.5792 34.1478C39.5486 34.1822 39.5219 34.2166 39.4914 34.2549C39.1326 34.6987 38.77 35.1386 38.4304 35.5938C38.3884 35.6512 38.3426 35.7048 38.3006 35.7622C37.9418 36.2365 37.5869 36.7186 37.2434 37.2082C37.0678 37.4569 36.9075 37.7132 36.6824 37.9351C36.4801 38.1379 36.3465 38.3903 36.2358 38.6543C36.1938 38.7576 36.1328 38.8418 36.0755 38.9297C35.7511 39.4271 35.4381 39.932 35.1328 40.4408C35.0756 40.5327 35.0221 40.6245 34.9687 40.7163C34.3657 41.7339 33.7932 42.7744 33.2589 43.8341C33.2054 43.9412 33.152 44.0445 33.0986 44.1517C32.8352 44.6834 32.5757 45.2152 32.3314 45.7584C32.3314 45.7699 32.3238 45.7813 32.3161 45.789C32.133 46.1983 31.9459 46.6 31.778 47.017C31.6826 47.2542 31.5834 47.4876 31.4879 47.7247C31.2666 48.268 31.0529 48.815 30.8506 49.3659C30.8353 49.4118 30.82 49.4539 30.8048 49.4998C30.6178 50.0239 30.4346 50.5518 30.259 51.0798C30.2208 51.1945 30.1827 51.3093 30.1445 51.4241C29.9651 51.9788 29.7972 52.5373 29.6369 53.1035C29.614 53.1877 29.5911 53.2756 29.5644 53.3598C29.4232 53.8686 29.2896 54.3774 29.1636 54.89C29.1331 55.0048 29.1064 55.1234 29.0759 55.2382C28.9385 55.8082 28.8125 56.382 28.698 56.9558C28.6751 57.0744 28.6522 57.1969 28.6293 57.3154C28.5263 57.8357 28.4347 58.356 28.3469 58.8763C28.3316 58.9681 28.3163 59.0599 28.3011 59.1517C28.2095 59.737 28.1255 60.3262 28.053 60.9191C28.0225 61.1716 27.9958 61.4279 27.9614 61.6804C27.9042 62.1051 27.8736 62.5297 27.8393 62.9582C27.8393 63.027 27.8278 63.0959 27.8202 63.1647C27.7706 63.7654 27.7362 64.3736 27.7095 64.9781C27.7019 65.1196 27.6981 65.265 27.6904 65.4065C27.6675 66.0224 27.6523 66.6384 27.6484 67.2581V67.3002C27.6484 67.7248 27.6484 68.1495 27.6599 68.5741C27.6599 68.7233 27.6713 68.8725 27.6752 69.0217C27.6828 69.3086 27.6942 69.5955 27.7057 69.8824C27.7133 70.0584 27.7248 70.2344 27.7362 70.4104C27.7515 70.6667 27.7668 70.9268 27.782 71.1832C27.7935 71.3668 27.8126 71.5542 27.8278 71.7379C27.8469 71.9865 27.8698 72.2314 27.8927 72.4762C27.9118 72.6636 27.9309 72.8511 27.95 73.0385C27.9767 73.2796 28.0034 73.5206 28.0301 73.7616C28.053 73.949 28.0759 74.1365 28.1026 74.3278C28.1331 74.5649 28.1675 74.8021 28.2018 75.0393C28.2286 75.2268 28.2591 75.4142 28.2858 75.6017C28.324 75.8389 28.3621 76.0722 28.4003 76.3056C28.4308 76.493 28.4652 76.6805 28.4995 76.8641C28.5415 77.1013 28.5873 77.3347 28.6331 77.568C28.6675 77.7516 28.7056 77.9315 28.74 78.1151C28.7896 78.3561 28.843 78.5971 28.8965 78.8343C28.9346 79.0064 28.9728 79.1824 29.011 79.3546C29.072 79.6109 29.1331 79.8634 29.198 80.1197C29.2361 80.2727 29.2743 80.4296 29.3125 80.5826C29.3964 80.9077 29.4842 81.2329 29.5758 81.5581C29.6064 81.6729 29.6407 81.7876 29.6712 81.9062C29.7743 82.2658 29.8812 82.6293 29.9918 82.985C30.0415 83.1419 30.0949 83.2987 30.1445 83.4556C30.2208 83.6966 30.2972 83.9376 30.3773 84.1748C30.4384 84.3508 30.4994 84.5267 30.5605 84.7027C30.6368 84.9208 30.7094 85.135 30.7895 85.3531C30.8582 85.5367 30.9269 85.7203 30.9956 85.9001C31.0719 86.1067 31.1483 86.3095 31.2284 86.5122C31.3009 86.6997 31.3773 86.8833 31.4498 87.0708C31.5299 87.2659 31.6101 87.4648 31.6902 87.6599C31.7704 87.8473 31.8505 88.0386 31.9307 88.2261C32.0146 88.4174 32.0948 88.6048 32.1788 88.7961C32.2627 88.9835 32.3505 89.1748 32.4345 89.3623C32.5184 89.5459 32.6062 89.7295 32.694 89.9132C32.7856 90.1044 32.8734 90.2919 32.9688 90.4832C33.0566 90.663 33.1444 90.8389 33.236 91.0187C33.3314 91.21 33.4268 91.3975 33.526 91.5888C33.6138 91.7609 33.7092 91.933 33.8008 92.1052C33.9039 92.2965 34.0031 92.4878 34.11 92.679C34.1977 92.8397 34.2893 93.0004 34.3809 93.1572C34.4916 93.3562 34.6023 93.5551 34.7168 93.7502C34.7893 93.8764 34.8656 93.9989 34.9382 94.1213C35.2435 94.6416 35.5603 95.1542 35.8847 95.663C35.9076 95.7012 35.9343 95.7395 35.9572 95.7777C36.1022 95.9996 36.2473 96.2215 36.3961 96.4434C36.4724 96.5582 36.5488 96.6768 36.6289 96.7915C36.7701 97.0019 36.9152 97.2085 37.0602 97.4151C37.148 97.5413 37.2358 97.6676 37.3235 97.7938C37.4686 97.9966 37.6136 98.1993 37.7625 98.3983C37.854 98.5245 37.9456 98.6469 38.0372 98.7694C38.1861 98.9721 38.3388 99.171 38.4914 99.37C38.583 99.4924 38.6784 99.611 38.77 99.7334C38.9265 99.9323 39.083 100.131 39.2433 100.326C39.3349 100.441 39.4303 100.556 39.5219 100.671C39.6784 100.862 39.8387 101.053 39.9952 101.241C40.3272 101.635 40.6631 102.021 41.0066 102.404C41.0066 102.407 41.0142 102.415 41.018 102.419C41.3424 102.782 41.6707 103.138 42.0065 103.49C42.0447 103.532 42.0867 103.574 42.1248 103.616C43.8805 105.46 45.7697 107.178 47.7772 108.75C47.7887 108.758 47.8001 108.769 47.8116 108.777C48.1742 109.06 48.5406 109.339 48.9108 109.611C49.0901 109.745 49.2695 109.875 49.4489 110.005C49.5138 110.051 49.5787 110.101 49.6474 110.147C49.9069 110.33 50.1702 110.514 50.4298 110.697C50.4908 110.74 50.5519 110.782 50.613 110.824C50.884 111.007 51.1588 111.191 51.4335 111.371C51.4793 111.401 51.529 111.432 51.5786 111.463C51.8686 111.65 52.1625 111.838 52.4564 112.021C52.4755 112.033 52.4984 112.048 52.5175 112.059C54.8227 113.486 57.2462 114.737 59.769 115.797C59.7767 115.797 59.7843 115.805 59.7919 115.808C60.1354 115.954 60.4827 116.092 60.83 116.229C60.8568 116.241 60.8873 116.252 60.914 116.264C61.2537 116.398 61.5934 116.528 61.9368 116.654C61.9712 116.665 62.0055 116.681 62.0437 116.692C62.3834 116.818 62.7269 116.937 63.0704 117.056C63.1047 117.067 63.1391 117.079 63.1696 117.09C63.5207 117.209 63.8719 117.323 64.2268 117.438C64.2459 117.446 64.265 117.45 64.2841 117.457C67.3106 118.41 70.4555 119.095 73.6882 119.485L75.7415 131.971C76.0507 133.617 77.4895 134.86 79.2223 134.86C80.955 134.86 82.3901 133.617 82.703 131.971L83.2755 128.494L84.7296 119.649C110.641 117.297 131.315 95.816 132.296 69.3736C132.319 68.731 132.33 68.0921 132.33 67.4532C132.33 67.2466 132.323 67.0401 132.323 66.8296H132.342V66.8335ZM102.946 56.0951C109.683 69.9016 103.099 86.298 89.3248 91.8412L94.4658 60.5863C94.8933 57.9964 97.126 56.0951 99.748 56.0951H102.946ZM79.1841 3.91429C82.5694 3.62355 86.012 4.798 88.4279 7.21958C90.7866 9.48815 91.9163 12.8508 91.7217 16.0911C91.714 16.1293 91.7026 16.1829 91.6873 16.2403C91.2789 16.1485 90.8667 16.0605 90.4584 15.9763C90.3897 15.961 90.321 15.9457 90.2523 15.9342C89.8706 15.8577 89.4889 15.7889 89.1035 15.72C88.989 15.7009 88.8745 15.6779 88.7562 15.6588C88.405 15.5976 88.0501 15.544 87.6951 15.4905C87.5387 15.4675 87.3822 15.4446 87.2257 15.4216C86.9013 15.3757 86.5769 15.3336 86.2525 15.2954C86.0578 15.2724 85.8594 15.2495 85.6609 15.2303C85.367 15.1997 85.0731 15.1653 84.7754 15.1385C84.535 15.1156 84.2907 15.1003 84.0503 15.0811C83.7908 15.062 83.535 15.039 83.2717 15.0237C82.9664 15.0046 82.6572 14.9931 82.3481 14.9778C82.1458 14.9702 81.9435 14.9587 81.7412 14.9511C81.2413 14.9358 80.7413 14.9243 80.2375 14.9243H80.1344C79.6803 14.9243 79.2261 14.9281 78.7757 14.9396C78.6383 14.9396 78.5009 14.9511 78.3635 14.9549C78.0277 14.9664 77.6918 14.9778 77.3559 14.9931C77.2071 15.0008 77.0621 15.0123 76.9132 15.0199C76.585 15.0391 76.2606 15.062 75.9324 15.085C75.7911 15.0964 75.6537 15.1079 75.5125 15.1194C75.1767 15.15 74.8408 15.1806 74.5088 15.215C74.3828 15.2265 74.2569 15.2418 74.1309 15.2571C73.7798 15.2954 73.4287 15.3413 73.0775 15.3872C72.9707 15.4025 72.8676 15.414 72.7608 15.4293C72.3867 15.4828 72.0127 15.5402 71.6425 15.5976C71.5623 15.6091 71.4822 15.6244 71.402 15.6358C71.0013 15.7047 70.6005 15.7774 70.1998 15.8539C70.1502 15.8654 70.0968 15.873 70.0471 15.8845C69.5968 15.9725 69.1502 16.0643 68.7075 16.1638C68.5116 16.2071 68.5116 16.2071 68.7075 16.1638C68.6541 15.7965 68.6121 15.4063 68.593 15.0505C68.303 8.99465 73.2416 4.24711 79.1917 3.91046H79.1841V3.91429ZM83.2335 106.57C82.9015 108.582 80.0161 108.582 79.6841 106.57L78.7757 101.042C80.5657 101.145 82.3672 101.107 84.1648 100.923L83.2335 106.57ZM84.6686 93.2299C82.2259 93.7005 79.8482 93.8382 77.5697 93.6928L71.0356 53.9872C70.8906 53.1111 70.1349 52.4684 69.2495 52.4684H52.6778C52.1472 52.4684 51.6625 52.7668 51.4068 53.2336C47.8154 59.8021 46.7048 67.698 48.2543 75.0699C51.0672 87.7479 59.9446 96.1794 70.4212 99.5039L72.9325 114.772H72.9287C70.6349 114.374 68.4022 113.785 66.242 113.023C66.2153 113.016 66.1924 113.004 66.1657 112.997C65.8794 112.897 65.597 112.79 65.3146 112.683C65.2802 112.671 65.2497 112.656 65.2153 112.645C64.9367 112.538 64.6543 112.427 64.3795 112.316C64.3528 112.304 64.3222 112.293 64.2955 112.281C64.0093 112.163 63.7268 112.044 63.4444 111.922L62.6887 111.585C61.1659 110.908 59.6622 110.166 58.2805 109.236C58.25 109.217 58.2195 109.198 58.1851 109.179C57.9332 109.026 57.6813 108.865 57.4333 108.708C57.3951 108.685 57.3569 108.658 57.3188 108.636C57.0821 108.482 56.8455 108.326 56.6127 108.169C56.5669 108.138 56.5173 108.104 56.4715 108.073C56.2425 107.916 56.0135 107.759 55.7883 107.599C55.7387 107.564 55.6929 107.53 55.6433 107.495C55.4143 107.335 55.1891 107.17 54.9639 107.002C54.9257 106.971 54.8838 106.941 54.8456 106.914C54.6128 106.738 54.38 106.562 54.1472 106.382C54.1357 106.371 54.1204 106.363 54.109 106.352C52.8571 105.376 51.6549 104.332 50.5061 103.222C50.4603 103.176 50.4107 103.131 50.3649 103.085C50.1817 102.905 49.9985 102.721 49.8153 102.541C49.7504 102.476 49.6894 102.415 49.6245 102.35C49.4527 102.174 49.281 101.998 49.113 101.818C49.0443 101.746 48.9718 101.669 48.9031 101.596C48.739 101.42 48.5787 101.244 48.4146 101.069C48.3421 100.988 48.2696 100.908 48.1971 100.828C48.0368 100.652 47.8803 100.472 47.7238 100.296C47.6513 100.215 47.5826 100.131 47.5139 100.051C47.3574 99.8673 47.2009 99.6875 47.0483 99.5C46.9872 99.4235 46.9261 99.347 46.8612 99.2743C46.7009 99.0792 46.5406 98.8841 46.3842 98.6852C46.3498 98.6393 46.3155 98.5934 46.2773 98.5513C45.7353 97.8665 45.2125 97.1626 44.7049 96.4434C44.6514 96.3669 44.598 96.2942 44.5484 96.2215C44.4224 96.0379 44.2965 95.8504 44.1705 95.6668C44.098 95.5559 44.0217 95.4488 43.9492 95.3378C43.8347 95.1618 43.7202 94.9859 43.6057 94.8099C43.5255 94.6875 43.4454 94.5612 43.3691 94.4388C43.2622 94.2666 43.1515 94.0945 43.0485 93.9185C42.9683 93.7846 42.8882 93.6546 42.808 93.5207C42.705 93.3485 42.6019 93.1802 42.5027 93.008C42.4225 92.8703 42.3424 92.7288 42.2622 92.591C42.163 92.4189 42.0676 92.2506 41.9722 92.0784C41.892 91.9331 41.8157 91.7915 41.7355 91.6461C41.6439 91.474 41.5523 91.3057 41.4607 91.1335C41.3806 90.9843 41.3043 90.8313 41.2279 90.6821C41.1402 90.5138 41.0524 90.3416 40.9684 90.1733C40.8844 90.005 40.8119 89.8519 40.7356 89.6913C40.6554 89.5268 40.5753 89.3623 40.4951 89.1978C40.3692 88.93 40.2471 88.6622 40.1249 88.3906C40.0372 88.1955 39.9532 88.0004 39.8692 87.8053C39.7891 87.6178 39.7051 87.4303 39.625 87.2391C39.5601 87.0822 39.4952 86.9215 39.4303 86.7647C39.3578 86.5849 39.2815 86.4013 39.2089 86.2176C39.1441 86.057 39.083 85.8925 39.0219 85.7318C38.9532 85.5482 38.8845 85.3684 38.8158 85.1847C38.7548 85.0202 38.6975 84.8557 38.6365 84.6912C38.5716 84.5076 38.5067 84.324 38.4418 84.1365C38.3846 83.972 38.3311 83.8075 38.2739 83.643C38.2128 83.4556 38.1479 83.2643 38.0907 83.0769C38.0372 82.9124 37.9876 82.7517 37.938 82.5872C37.877 82.3921 37.8197 82.197 37.7625 82.0019C37.7167 81.8412 37.667 81.6805 37.6212 81.5198C37.564 81.3133 37.5067 81.1067 37.4495 80.9001C37.4075 80.7471 37.3655 80.5941 37.3274 80.441C37.2663 80.2077 37.209 79.9705 37.1518 79.7371C37.1213 79.6071 37.0869 79.4808 37.0564 79.3507C36.9724 78.9873 36.8884 78.6239 36.8083 78.2605C36.793 78.1916 36.7816 78.1189 36.7663 78.05C36.7052 77.7517 36.6442 77.4494 36.5869 77.151C36.5602 77.0133 36.5373 76.8756 36.5106 76.7379C36.4686 76.5007 36.4228 76.2635 36.3847 76.0263C36.3579 75.8733 36.335 75.7164 36.3121 75.5634C36.2778 75.3415 36.2434 75.1158 36.2091 74.8901C36.1862 74.7294 36.1633 74.5688 36.1442 74.4081C36.1137 74.1862 36.087 73.9682 36.0602 73.7463C36.0412 73.5818 36.0221 73.4173 36.003 73.2528C35.9801 73.0309 35.9534 72.8128 35.9343 72.591C35.919 72.4265 35.9038 72.262 35.8885 72.0975C35.8694 71.8717 35.8503 71.646 35.8312 71.4203C35.8198 71.2597 35.8045 71.0952 35.7969 70.9345C35.7816 70.6973 35.7664 70.4639 35.7549 70.2268C35.7473 70.0737 35.7358 69.9207 35.732 69.7639C35.7206 69.5037 35.7129 69.2398 35.7053 68.9796C35.7053 68.8495 35.6977 68.7195 35.6938 68.5894C35.6862 68.1954 35.6786 67.8013 35.6786 67.4073C35.6786 66.8564 35.69 66.3094 35.7091 65.7623C35.7091 65.6246 35.7168 65.4869 35.7244 65.353C35.7435 64.8174 35.7702 64.2818 35.8083 63.7539V63.7271C35.8465 63.1877 35.8961 62.6521 35.9496 62.1165C35.9648 61.9826 35.9763 61.8488 35.9915 61.7187C36.0488 61.2022 36.1099 60.6858 36.1824 60.177C36.1824 60.1578 36.1824 60.1425 36.19 60.1234C36.2625 59.5955 36.3503 59.0714 36.4381 58.5473C36.461 58.4172 36.4839 58.291 36.5068 58.1647C36.5984 57.6636 36.6938 57.1624 36.7968 56.6651C36.7968 56.646 36.8045 56.6268 36.8083 56.6039C36.919 56.0874 37.0373 55.5748 37.1632 55.066C37.1938 54.9436 37.2243 54.825 37.2548 54.7026C37.377 54.2129 37.5067 53.7271 37.6441 53.245C37.6518 53.2221 37.6556 53.203 37.6632 53.18C37.8083 52.675 37.9609 52.1777 38.1212 51.6804C38.1556 51.5694 38.1937 51.4547 38.2319 51.3437C38.3884 50.8694 38.5487 50.395 38.7166 49.9283C38.7242 49.9091 38.7319 49.8862 38.7395 49.8671C38.9189 49.3774 39.1059 48.8915 39.2967 48.4057C39.3731 48.2106 39.4532 48.0155 39.5334 47.8204C39.6784 47.4531 39.8387 47.0935 39.999 46.7339C40.0104 46.711 40.0181 46.6918 40.0257 46.6689C40.2356 46.1907 40.457 45.7201 40.6822 45.2534C40.7967 45.0162 40.915 44.779 41.0295 44.538C41.1707 44.2358 41.3348 43.9451 41.4913 43.6467C41.4989 43.6314 41.5065 43.6161 41.5142 43.5969C41.7584 43.1341 42.0103 42.6788 42.2699 42.2274C42.3157 42.1471 42.3615 42.0667 42.4111 41.9864C42.663 41.5503 42.9187 41.118 43.1859 40.6895C43.1859 40.6819 43.1973 40.6704 43.2011 40.6627C43.4759 40.219 43.7622 39.779 44.0522 39.3467C44.0904 39.2894 44.1324 39.2281 44.1705 39.1708C44.4606 38.7385 44.7583 38.3138 45.0598 37.8892L45.0713 37.8739C45.3766 37.4493 45.6934 37.0284 46.014 36.6153C46.0521 36.5655 46.0903 36.5196 46.1285 36.4699C46.4529 36.0567 46.7811 35.6474 47.117 35.2419C47.4528 34.8364 47.8001 34.4385 48.1513 34.0483C48.1932 33.9986 48.239 33.9527 48.281 33.9029C48.9795 33.1264 49.7046 32.3765 50.4489 31.6535C50.4908 31.6153 50.529 31.5732 50.571 31.5349C51.3267 30.8081 52.1015 30.1118 52.8991 29.4423C52.9373 29.4117 52.9755 29.3811 53.0136 29.3467C53.8189 28.6772 54.6471 28.0345 55.4944 27.4224C55.5288 27.3995 55.5631 27.3727 55.5975 27.3497C56.4524 26.7376 57.3264 26.1562 58.2195 25.6091C58.2538 25.59 58.2844 25.567 58.3187 25.5479C59.2156 25.0008 60.1354 24.4882 61.0705 24.01C61.1048 23.9947 61.1392 23.9756 61.1697 23.9603C61.6353 23.7231 62.101 23.4974 62.5742 23.2755C64.1161 26.8371 66.9061 30.1003 69.8869 32.3574C72.402 34.2511 75.2873 35.6321 78.1078 36.8984C79.7566 37.6214 81.6115 38.3712 83.2412 39.121C89.9126 42.2197 96.5344 46.4776 100.805 52.4876H93.6834C92.7979 52.4876 92.0423 53.1303 91.8972 54.0063L85.4701 93.0769C85.2105 93.1381 84.9472 93.1955 84.68 93.2491L84.6686 93.2299ZM69.1388 91.7226C56.4676 86.4013 49.0634 71.4662 53.9296 57.2389C54.1624 56.5542 54.8036 56.0951 55.525 56.0951H58.7423C61.3605 56.0951 63.5933 57.9926 64.0169 60.5825L69.1388 91.7226ZM124.335 68.5894C124.335 68.7195 124.327 68.8534 124.323 68.9835C124.315 69.2474 124.308 69.5114 124.296 69.7753C124.289 69.9322 124.281 70.089 124.27 70.2459C124.258 70.4831 124.243 70.7202 124.228 70.9574C124.216 71.1219 124.205 71.2864 124.19 71.4509C124.17 71.6766 124.155 71.9024 124.132 72.1281C124.117 72.2964 124.098 72.4685 124.083 72.6369C124.06 72.8549 124.037 73.073 124.014 73.291C123.995 73.4632 123.976 73.6315 123.953 73.8037C123.926 74.0179 123.899 74.2321 123.869 74.4464C123.846 74.6185 123.823 74.7907 123.796 74.959C123.766 75.1694 123.732 75.3836 123.701 75.594C123.674 75.7624 123.648 75.9345 123.617 76.1028C123.583 76.3132 123.545 76.5275 123.506 76.7379C123.476 76.9062 123.445 77.0707 123.415 77.2352C123.373 77.4494 123.331 77.6637 123.285 77.8741C123.251 78.0348 123.22 78.1992 123.186 78.3599C123.14 78.578 123.09 78.796 123.041 79.0103C123.006 79.1633 122.972 79.3201 122.934 79.4732C122.877 79.7027 122.819 79.9322 122.762 80.1618C122.728 80.2995 122.693 80.4372 122.659 80.5749C122.583 80.8733 122.499 81.1679 122.415 81.4586C122.396 81.5275 122.377 81.5964 122.358 81.6652C122.255 82.0248 122.148 82.3806 122.037 82.7364C121.995 82.8703 121.949 83.0003 121.907 83.1342C121.835 83.3561 121.766 83.5818 121.69 83.8037C121.64 83.9567 121.583 84.1059 121.533 84.259C121.464 84.4579 121.396 84.6606 121.323 84.8596C121.266 85.0202 121.205 85.1771 121.148 85.3378C121.075 85.5252 121.007 85.7165 120.934 85.9039C120.873 86.0646 120.808 86.2291 120.743 86.3898C120.671 86.5734 120.598 86.7571 120.522 86.9369C120.453 87.1014 120.384 87.262 120.316 87.4227C120.239 87.5987 120.163 87.7785 120.087 87.9545C120.014 88.119 119.942 88.2796 119.869 88.4441C119.793 88.6163 119.713 88.7884 119.633 88.9606C119.556 89.1251 119.48 89.2858 119.404 89.4464C119.323 89.6148 119.239 89.7831 119.155 89.9514C119.075 90.1121 118.995 90.2728 118.915 90.4334C118.831 90.5979 118.743 90.7663 118.659 90.9308C118.575 91.0914 118.491 91.2521 118.407 91.409C118.32 91.5734 118.232 91.7341 118.14 91.8948C118.052 92.0516 117.968 92.2123 117.877 92.3692C117.785 92.5298 117.694 92.6867 117.602 92.8435C117.51 93.0004 117.423 93.1572 117.331 93.3141C117.24 93.4709 117.14 93.6239 117.049 93.7808C116.85 94.106 116.648 94.4312 116.442 94.7525C116.362 94.8749 116.285 94.9973 116.205 95.1198C116.095 95.2842 115.984 95.4488 115.873 95.6133C115.782 95.7471 115.694 95.881 115.602 96.0149C115.492 96.1794 115.377 96.3401 115.263 96.5008C115.171 96.6309 115.075 96.7647 114.984 96.8948C114.869 97.0555 114.751 97.2123 114.633 97.373C114.537 97.5031 114.442 97.6331 114.347 97.7594C114.228 97.9162 114.106 98.0731 113.988 98.2299C113.889 98.3562 113.793 98.4824 113.694 98.6087C113.572 98.7655 113.446 98.9186 113.32 99.0716C113.221 99.194 113.121 99.3126 113.022 99.435C112.892 99.588 112.766 99.7411 112.637 99.8941C112.537 100.013 112.438 100.127 112.335 100.246C112.202 100.399 112.068 100.552 111.934 100.701C111.835 100.812 111.732 100.927 111.633 101.038C111.496 101.191 111.358 101.34 111.217 101.493C111.118 101.6 111.018 101.704 110.919 101.807C110.774 101.96 110.629 102.113 110.48 102.262L110.194 102.549C110.041 102.706 109.885 102.859 109.728 103.012C109.644 103.092 109.561 103.173 109.473 103.257C109.301 103.421 109.133 103.586 108.961 103.746C108.915 103.789 108.866 103.831 108.82 103.873C108.148 104.496 107.45 105.093 106.744 105.682C106.709 105.713 106.675 105.74 106.641 105.77C106.446 105.927 106.251 106.08 106.057 106.237C105.977 106.298 105.897 106.363 105.82 106.424C105.637 106.57 105.45 106.707 105.263 106.849C105.171 106.918 105.08 106.991 104.984 107.056C104.801 107.189 104.614 107.323 104.431 107.457C104.332 107.526 104.236 107.599 104.137 107.668C103.954 107.798 103.767 107.924 103.58 108.054C103.481 108.123 103.378 108.192 103.278 108.257C103.091 108.383 102.901 108.505 102.713 108.628C102.61 108.693 102.507 108.758 102.408 108.823C102.217 108.945 102.023 109.064 101.832 109.183C101.733 109.244 101.63 109.305 101.527 109.366C101.328 109.485 101.133 109.603 100.931 109.718C100.836 109.776 100.736 109.829 100.637 109.886C100.431 110.005 100.225 110.12 100.015 110.235C99.9274 110.281 99.8434 110.326 99.7556 110.372C99.5343 110.491 99.3129 110.609 99.0915 110.724C99.0267 110.759 98.9618 110.789 98.9007 110.82C97.5 111.531 96.0612 112.17 94.5879 112.725C94.5269 112.748 94.4696 112.771 94.4086 112.794C94.1643 112.886 93.92 112.97 93.6758 113.058C93.5918 113.088 93.5078 113.119 93.4201 113.146C93.1872 113.226 92.9506 113.303 92.714 113.379C92.6186 113.41 92.5193 113.444 92.4239 113.475C92.1949 113.548 91.9621 113.616 91.7293 113.685C91.6262 113.716 91.5232 113.746 91.4202 113.777C91.1912 113.842 90.9583 113.907 90.7255 113.968C90.6187 113.995 90.5118 114.026 90.4049 114.053C90.1721 114.114 89.9393 114.171 89.7065 114.228C89.5996 114.255 89.4966 114.278 89.3897 114.305C89.1531 114.359 88.9165 114.412 88.6798 114.466C88.5768 114.489 88.4737 114.508 88.3707 114.531C88.1264 114.58 87.8822 114.63 87.6379 114.676C87.5463 114.695 87.4509 114.711 87.3593 114.726C87.1036 114.772 86.8479 114.818 86.5883 114.86C86.5196 114.871 86.4471 114.879 86.3784 114.89C86.096 114.932 85.8136 114.978 85.5273 115.017L87.947 100.319C95.2711 98.712 102.236 94.6033 107.492 87.7096C114.576 78.3561 116.022 66.5351 112.572 56.0951H118.652C121.335 56.0951 123.606 58.0882 123.949 60.7546C124.014 61.2634 124.071 61.7761 124.121 62.2887C124.136 62.4302 124.148 62.5718 124.159 62.7172C124.19 63.0768 124.22 63.4402 124.247 63.8036C124.258 63.9758 124.27 64.1441 124.281 64.3162C124.3 64.672 124.319 65.0316 124.331 65.3912C124.338 65.5481 124.346 65.7049 124.35 65.8618C124.365 66.3706 124.373 66.8832 124.373 67.3958C124.373 67.7937 124.369 68.1915 124.357 68.5894H124.335Z" fill="#014D40"/>
<path d="M12.7475 161.378C8.17518 159.695 3.45021 157.958 3.45021 154.454C3.45021 152.231 6.14092 151.068 8.79728 151.068C14.297 151.068 17.0297 153.092 19.2433 158.8L19.2968 158.937L20.167 158.781V152.036L19.9571 151.692L19.9151 151.669C17.3923 150.315 13.9192 149.63 9.59877 149.63C3.59143 149.63 0 153.058 0 156.371C0 160.831 5.18296 162.713 10.198 164.538C14.5298 166.114 18.6174 167.602 18.6174 170.495C18.6174 173.387 15.4649 174.55 12.3391 174.55C7.09126 174.55 3.93111 172.369 1.07247 166.772L1.00759 166.65L0.179381 166.845H0.175567L0 166.887V173.306L0.179381 173.609L0.370212 173.93L0.412194 173.953C2.51515 175.116 7.29736 175.996 11.5376 175.996C15.7779 175.996 21.9379 173.964 21.9379 168.371C21.9379 164.768 17.4724 163.123 12.7398 161.382H12.7475V161.378Z" fill="#014D40"/>
<path d="M49.1653 168.241C47.8371 171.221 44.7915 174.699 40.5703 174.699H35.2499C33.5744 174.699 32.6661 174.393 32.6661 172.786V163.295H39.4482C40.9214 163.295 43.0282 164.89 43.0282 166.003V166.179H43.9976V159.117H43.0282V159.293C43.0282 160.407 40.9214 162.002 39.4482 162.002H32.6661V152.836C32.6661 151.688 33.1584 150.923 35.5553 150.923H40.1848C44.2304 150.923 46.6463 154.435 47.9592 157.38L48.0241 157.526L48.9134 157.239L47.3066 149.947L46.9059 149.63H25.5176V150.594H25.6931C26.9908 150.594 28.5403 150.98 28.5403 152.832V172.778C28.5403 174.63 26.9946 175.016 25.6931 175.016H25.5176V175.98H47.2913L47.6768 175.705L50.1271 168.417L49.2378 168.081L49.1691 168.234V168.241H49.1653Z" fill="#014D40"/>
<path d="M81.2369 150.606H81.4125V149.642H73.8785V150.606H74.054C74.9662 150.606 75.6379 150.816 75.8975 151.184C76.0997 151.467 76.0997 151.895 75.8975 152.442L68.5428 170.185L60.7837 152.894C60.4555 152.178 60.4097 151.605 60.6577 151.226C60.9173 150.828 61.5279 150.602 62.3332 150.602H62.5088V149.638H51.9062V150.602H52.0818C53.4329 150.602 55.2229 151.226 56.177 152.963L66.2338 175.748L66.604 175.989H67.4017L67.7757 175.74L77.3859 152.618C78.2561 150.862 80.1682 150.602 81.2331 150.602H81.2369V150.606Z" fill="#014D40"/>
<path d="M99.2743 172.557L89.1298 149.883L88.7596 149.646H88.0039L87.6222 149.906L78.8784 172.886C78.0005 174.822 75.9014 175.032 75.0389 175.032H74.8633V175.996H82.3973V175.032H82.2217C81.3095 175.032 80.6226 174.814 80.3325 174.431C80.1226 174.156 80.0997 173.754 80.2523 173.257L82.1683 168.238H92.6372L94.7822 172.882C95.0226 173.559 95.0112 174.079 94.7554 174.439C94.4768 174.825 93.8967 175.036 93.1181 175.036H92.9426V176H103.545V175.036H103.37C102.034 175.036 100.156 174.389 99.2705 172.565V172.557H99.2743ZM82.6644 166.941L86.9352 155.663L92.0686 166.941H82.6644Z" fill="#014D40"/>
<path d="M146.947 149.554C139.261 149.554 133.895 154.99 133.895 162.771C133.895 170.552 139.264 175.988 146.947 175.988C154.63 175.988 160 170.552 160 162.771C160 154.99 154.634 149.554 146.947 149.554ZM148.13 174.401C142.325 174.401 138.108 169.091 138.108 161.776C138.108 156.926 139.436 151.141 145.76 151.141C151.543 151.141 155.741 156.451 155.741 163.766C155.741 168.617 154.42 174.401 148.134 174.401H148.13Z" fill="#014D40"/>
<path d="M120.471 164.225H120.647C121.929 164.225 123.456 164.603 123.456 166.402V172.431C122.017 173.104 120.372 173.418 118.288 173.418C114.865 173.418 111.945 171.914 110.071 169.183L110.052 169.156C109.262 167.997 108.689 166.658 108.346 165.17C107.506 162.04 107.956 159.378 108.483 157.687C108.678 156.876 109.056 156.015 109.571 155.196L109.624 155.116C110.071 154.424 110.609 153.781 111.136 153.303C112.014 152.511 113.971 151.176 117.208 151.176C117.861 151.176 118.536 151.229 119.215 151.34C119.719 151.44 120.166 151.554 120.574 151.692C123.727 152.855 125.612 156.05 126.452 157.848C126.589 158.154 126.723 158.471 126.856 158.8L126.91 158.934L127.429 158.842V151.891L127.421 151.88L127.2 151.497C124.627 150.258 121.166 149.623 116.895 149.623C115.265 149.623 113.742 149.864 112.361 150.338L112.231 150.38L111.93 150.491C106.819 152.327 103.773 156.933 103.773 162.828C103.773 170.575 109.117 175.985 116.769 175.985C119.586 175.985 122.177 175.239 124.253 173.838C124.444 173.731 124.582 173.724 124.692 173.724C125.345 173.724 126.062 174.493 126.524 175.682L126.578 175.82L127.448 175.663V166.402C127.448 164.573 128.154 164.225 129.455 164.225H129.631V163.276H120.471V164.225Z" fill="#014D40"/>
</svg>
