<svg width="160" height="206" viewBox="0 0 160 206" fill="none" xmlns="http://www.w3.org/2000/svg">
<path d="M160 102.089C159.994 101.434 159.982 100.78 159.965 100.131C159.953 99.7515 159.93 99.3775 159.913 98.9977C159.883 98.4133 159.854 97.829 159.813 97.2446C159.784 96.8472 159.749 96.4499 159.714 96.0583C159.668 95.4974 159.615 94.9422 159.557 94.3871C159.516 93.9839 159.469 93.5865 159.417 93.1833C159.353 92.634 159.277 92.0905 159.201 91.5471C159.143 91.1497 159.084 90.7523 159.02 90.355C158.933 89.8115 158.839 89.2681 158.74 88.7246C158.67 88.3389 158.6 87.9533 158.524 87.5676C158.413 87.0124 158.297 86.4632 158.18 85.9138C158.099 85.5457 158.023 85.1834 157.941 84.8152C157.918 84.7042 157.894 84.5873 157.865 84.4763C157.842 84.3828 157.813 84.2952 157.789 84.2075C157.789 84.1958 157.784 84.1783 157.778 84.1666C157.212 81.8116 155.112 80.152 152.697 80.152H127.587C124.542 73.4903 120.115 67.3604 114.387 62.2355C107.347 55.7141 99.4437 50.7762 90.8753 46.9136C82.9485 43.3432 75.5525 42.1686 69.0314 36.3308C67.6315 35.0744 66.2958 33.4207 65.1642 31.4105C65.7475 31.2703 66.3308 31.1359 66.9141 31.0131C66.9607 31.0015 67.0016 30.9956 67.0482 30.9839C67.5848 30.8729 68.1273 30.7677 68.6639 30.6684C68.7514 30.6508 68.8331 30.6392 68.9206 30.6216C69.4222 30.534 69.9238 30.4522 70.4254 30.3703C70.5421 30.3528 70.6646 30.3353 70.7812 30.3178C71.2479 30.2476 71.7203 30.1833 72.1928 30.1249C72.3386 30.1074 72.4844 30.0899 72.6302 30.0723C73.0735 30.0197 73.5227 29.973 73.9718 29.9321C74.1409 29.9145 74.3101 29.897 74.4792 29.8853C74.9109 29.8503 75.3425 29.8152 75.78 29.786C75.9608 29.7743 76.1416 29.7568 76.3224 29.7509C76.7657 29.7275 77.209 29.71 77.6523 29.6925C77.8214 29.6866 77.9906 29.675 78.1656 29.6691C78.778 29.6516 79.3905 29.6399 80.0029 29.6399C80.9537 29.6399 81.8986 29.6691 82.8435 29.71C87.0898 29.9204 91.2311 30.6041 95.2266 31.7027C94.4566 33.0584 93.5059 34.3615 92.3393 35.3433C91.1028 36.3834 90.9569 38.23 92.0652 39.4046C93.1442 40.5499 95.0399 40.3103 96.049 39.4162C97.0172 38.5572 98.7729 36.3484 100.179 33.3038C111.074 37.371 120.693 44.6287 128.164 54.1188C132.277 59.343 139.795 60.3481 145.22 56.5147C144.817 55.9478 144.403 55.3868 143.983 54.8317C143.872 54.6798 143.756 54.5337 143.645 54.3817C143.283 53.9084 142.922 53.4468 142.554 52.9793C142.472 52.8799 142.397 52.7806 142.315 52.6754C141.883 52.1378 141.446 51.606 141.003 51.0859C140.927 50.9983 140.851 50.9048 140.769 50.8171C140.402 50.3964 140.04 49.9698 139.661 49.5549C139.503 49.3796 139.352 49.2043 139.194 49.0348C138.763 48.5557 138.325 48.0823 137.882 47.6207C137.847 47.5856 137.812 47.5447 137.777 47.5096C137.305 47.0188 136.826 46.5279 136.342 46.0487C136.19 45.9027 136.045 45.7507 135.893 45.6046C135.52 45.2423 135.146 44.88 134.767 44.5236C134.627 44.395 134.487 44.2606 134.347 44.132C133.857 43.6762 133.356 43.2263 132.854 42.7822C132.72 42.6595 132.58 42.5426 132.44 42.4257C132.049 42.0868 131.658 41.7537 131.268 41.4206C131.087 41.2687 130.906 41.1167 130.725 40.9706C130.293 40.6142 129.856 40.2636 129.413 39.913C129.302 39.8253 129.197 39.7435 129.092 39.6558C128.579 39.2526 128.054 38.8611 127.529 38.4696C127.33 38.3235 127.132 38.1774 126.928 38.0313C126.549 37.7567 126.17 37.4879 125.791 37.2191C125.592 37.0788 125.4 36.9444 125.201 36.8042C124.671 36.436 124.134 36.0796 123.592 35.7231C123.399 35.6004 123.207 35.4777 123.008 35.3491C122.617 35.1037 122.233 34.8582 121.836 34.6128C121.603 34.4667 121.363 34.3206 121.124 34.1804C120.716 33.9349 120.302 33.6895 119.882 33.4499C119.66 33.3214 119.439 33.1928 119.217 33.0701C118.704 32.7779 118.185 32.4974 117.665 32.2169C117.415 32.0825 117.158 31.9481 116.907 31.8196C116.54 31.6267 116.166 31.4397 115.793 31.2527C115.536 31.1242 115.28 30.9956 115.023 30.8671C114.457 30.5924 113.892 30.3236 113.326 30.0606C113.081 29.9496 112.83 29.8386 112.585 29.7275C112.2 29.5581 111.821 29.3886 111.43 29.2192C111.144 29.0964 110.859 28.9796 110.573 28.8569C110.182 28.6932 109.785 28.5355 109.389 28.3777C109.074 28.255 108.765 28.1322 108.45 28.0095C107.93 27.8108 107.411 27.618 106.886 27.431C106.595 27.3258 106.297 27.2265 106.006 27.1213C105.632 26.9927 105.259 26.8642 104.88 26.7415C104.582 26.6421 104.291 26.5486 103.993 26.4551C103.398 26.2681 102.798 26.087 102.191 25.9117C102.191 25.9117 102.191 25.9058 102.191 25.9C102.203 25.7773 102.22 25.6546 102.232 25.526H102.22C104.011 6.7271 85.8066 -4.4634 68.6464 1.7016C58.404 5.27789 51.4221 14.8556 51.5388 25.7013C51.4688 26.5019 51.5621 27.2615 51.5913 28.0446C48.7857 29.1257 46.0501 30.3528 43.402 31.7319C43.3903 31.7377 43.3728 31.7436 43.3612 31.7553C41.6171 32.661 39.914 33.6311 38.2516 34.6595C38.2108 34.6829 38.17 34.7121 38.1291 34.7355C36.4959 35.7523 34.8977 36.8217 33.3404 37.9495C33.2179 38.0372 33.0954 38.1307 32.9671 38.2183C31.5089 39.2819 30.0857 40.4038 28.7033 41.5667C28.6275 41.631 28.5575 41.6894 28.4816 41.7537C27.0468 42.9692 25.6527 44.2372 24.3053 45.552C24.2354 45.6163 24.1654 45.6864 24.1012 45.7507C23.4013 46.4403 22.713 47.1357 22.0364 47.8486C22.0189 47.8661 22.0014 47.8836 21.9839 47.9012C21.4648 48.3511 20.969 48.8245 20.5782 49.3913C20.4149 49.6309 20.2165 49.8354 20.0299 50.0516C19.4174 50.747 18.8225 51.4482 18.2334 52.1612C18.1867 52.2137 18.1459 52.2663 18.0992 52.3248C17.5509 53.0026 16.9968 53.6747 16.4777 54.37C16.4135 54.4577 16.3436 54.5395 16.2794 54.6272C15.7311 55.3518 15.1887 56.0881 14.6637 56.836C14.3954 57.2159 14.1504 57.6074 13.8063 57.9463C13.4971 58.256 13.293 58.6417 13.1238 59.0449C13.0597 59.2027 12.9664 59.3313 12.8789 59.4657C12.3831 60.2253 11.9048 60.9967 11.4382 61.7739C11.3507 61.9141 11.269 62.0544 11.1873 62.1946C10.2658 63.749 9.39083 65.3385 8.57424 66.9572C8.49258 67.1208 8.41092 67.2786 8.32926 67.4422C7.9268 68.2545 7.53016 69.0667 7.15686 69.8965C7.15103 69.914 7.1452 69.9316 7.13353 69.9433C6.85356 70.5685 6.56775 71.1821 6.3111 71.8191C6.16528 72.1814 6.01363 72.5378 5.86781 72.9001C5.52951 73.7299 5.20287 74.5656 4.89373 75.407C4.8704 75.4772 4.84706 75.5414 4.82373 75.6116C4.53793 76.4121 4.25795 77.2186 3.98964 78.025C3.93132 78.2003 3.87299 78.3756 3.81466 78.5509C3.54052 79.3982 3.28388 80.2514 3.0389 81.1162C3.0039 81.2448 2.9689 81.3792 2.92807 81.5078C2.71226 82.285 2.50811 83.0622 2.31562 83.8452C2.26896 84.0205 2.22813 84.2017 2.18147 84.377C1.97149 85.2477 1.77901 86.1242 1.60402 87.0008C1.56903 87.1819 1.53403 87.3689 1.49903 87.5501C1.34155 88.3448 1.20156 89.1395 1.0674 89.9342C1.04407 90.0745 1.02074 90.2147 0.997411 90.355C0.857424 91.2491 0.729101 92.149 0.618277 93.0547C0.571615 93.4404 0.530786 93.8319 0.478291 94.2176C0.390799 94.8662 0.344136 95.5149 0.291641 96.1694C0.285808 96.2746 0.274141 96.3797 0.262475 96.4849C0.186648 97.4024 0.134152 98.3315 0.0933228 99.2548C0.0816571 99.471 0.0758225 99.6931 0.0641569 99.9093C0.02916 100.85 0.00583282 101.791 0 102.738C0 102.761 0 102.784 0 102.802C0 103.451 0.00583211 104.099 0.0174977 104.748C0.0174977 104.976 0.0349967 105.204 0.0408295 105.431C0.0524952 105.87 0.0699902 106.308 0.0874887 106.746C0.0991543 107.015 0.116654 107.284 0.134152 107.553C0.157484 107.944 0.180816 108.342 0.204148 108.733C0.221646 109.014 0.250807 109.3 0.274139 109.58C0.303303 109.96 0.338303 110.334 0.3733 110.708C0.402464 110.995 0.431625 111.281 0.460789 111.567C0.501618 111.935 0.542452 112.304 0.583282 112.672C0.618279 112.958 0.653272 113.244 0.694102 113.537C0.740765 113.899 0.793261 114.261 0.845757 114.623C0.886586 114.91 0.93325 115.196 0.974079 115.483C1.03241 115.845 1.09073 116.201 1.14906 116.558C1.19572 116.844 1.24822 117.13 1.30072 117.411C1.36488 117.773 1.43487 118.13 1.50486 118.486C1.55736 118.767 1.61569 119.041 1.66818 119.322C1.74401 119.69 1.82567 120.058 1.90733 120.42C1.96566 120.683 2.02399 120.952 2.08232 121.215C2.17564 121.607 2.26896 121.992 2.36812 122.384C2.42645 122.618 2.48478 122.857 2.5431 123.091C2.67143 123.588 2.80558 124.084 2.94557 124.581C2.99223 124.756 3.04473 124.932 3.09139 125.113C3.24888 125.662 3.4122 126.217 3.58135 126.761C3.65718 127 3.73883 127.24 3.81466 127.479C3.93131 127.848 4.04797 128.216 4.17046 128.578C4.26379 128.847 4.35711 129.116 4.45043 129.384C4.56709 129.718 4.67792 130.045 4.80041 130.378C4.9054 130.658 5.01038 130.939 5.11537 131.213C5.23203 131.529 5.34869 131.839 5.47118 132.148C5.582 132.435 5.69866 132.715 5.80948 133.002C5.93197 133.3 6.05446 133.604 6.17695 133.902C6.29944 134.188 6.42193 134.48 6.54442 134.766C6.67274 135.059 6.79523 135.345 6.92355 135.637C7.05187 135.923 7.18603 136.216 7.31435 136.502C7.44267 136.782 7.57683 137.063 7.71098 137.343C7.85097 137.636 7.98513 137.922 8.13095 138.214C8.2651 138.489 8.39926 138.758 8.53924 139.032C8.68506 139.324 8.83088 139.611 8.98253 139.903C9.11669 140.166 9.26251 140.429 9.4025 140.692C9.55998 140.984 9.71164 141.276 9.87496 141.568C10.0091 141.814 10.1491 142.059 10.2891 142.299C10.4582 142.603 10.6274 142.907 10.8024 143.205C10.9132 143.397 11.0299 143.584 11.1407 143.771C11.6073 144.566 12.0914 145.349 12.5872 146.126C12.6222 146.185 12.663 146.243 12.698 146.302C12.9197 146.641 13.1413 146.98 13.3688 147.318C13.4855 147.494 13.6021 147.675 13.7246 147.85C13.9404 148.172 14.1621 148.487 14.3837 148.803C14.5179 148.996 14.652 149.188 14.7862 149.381C15.0078 149.691 15.2295 150.001 15.457 150.305C15.597 150.497 15.7369 150.684 15.8769 150.871C16.1044 151.181 16.3377 151.485 16.571 151.789C16.711 151.976 16.8568 152.157 16.9968 152.344C17.236 152.648 17.4751 152.952 17.7201 153.25C17.8601 153.425 18.0059 153.6 18.1459 153.776C18.385 154.068 18.63 154.36 18.8692 154.646C19.3766 155.248 19.8899 155.838 20.4149 156.423C20.4207 156.429 20.4265 156.44 20.4324 156.446C20.9281 157.001 21.4298 157.545 21.9431 158.082C22.0014 158.147 22.0655 158.211 22.1239 158.275C24.807 161.092 27.6942 163.716 30.7623 166.117C30.7798 166.129 30.7973 166.147 30.8148 166.158C31.3689 166.591 31.9288 167.017 32.4946 167.432C32.7688 167.637 33.0429 167.835 33.317 168.034C33.4162 168.104 33.5154 168.18 33.6204 168.25C34.017 168.531 34.4195 168.811 34.8161 169.092C34.9094 169.156 35.0027 169.22 35.0961 169.285C35.5102 169.565 35.9301 169.846 36.3501 170.12C36.4201 170.167 36.4959 170.214 36.5718 170.26C37.0151 170.547 37.4642 170.833 37.9133 171.114C37.9425 171.131 37.9775 171.155 38.0066 171.172C41.5297 173.352 45.2335 175.263 49.089 176.881C49.1007 176.881 49.1123 176.893 49.124 176.899C49.6489 177.121 50.1797 177.331 50.7105 177.542C50.7513 177.559 50.798 177.577 50.8388 177.594C51.358 177.799 51.8771 177.997 52.402 178.19C52.4545 178.208 52.507 178.231 52.5653 178.249C53.0845 178.442 53.6094 178.623 54.1344 178.804C54.1869 178.821 54.2394 178.839 54.286 178.856C54.8226 179.038 55.3593 179.213 55.9017 179.388C55.9309 179.4 55.96 179.406 55.9892 179.417C60.6146 180.872 65.4209 181.918 70.3613 182.515L73.4993 201.588C73.9718 204.101 76.1708 206 78.8189 206C81.467 206 83.6601 204.101 84.1384 201.588L85.0133 196.276L87.2356 182.766C126.835 179.172 158.431 146.36 159.93 105.969C159.965 104.987 159.982 104.012 159.982 103.036C159.982 102.72 159.971 102.405 159.971 102.083L160 102.089ZM115.076 85.6859C125.371 106.776 115.309 131.821 94.2583 140.289L102.115 92.5463C102.768 88.5902 106.181 85.6859 110.188 85.6859H115.076ZM78.7605 5.97328C83.9342 5.52916 89.1954 7.32315 92.8876 11.0222C96.4923 14.4874 98.2188 19.6239 97.9213 24.5735C97.9097 24.6319 97.8922 24.7137 97.8688 24.8014C97.2447 24.6611 96.6148 24.5267 95.9907 24.3982C95.8857 24.3748 95.7807 24.3514 95.6757 24.3339C95.0924 24.217 94.5091 24.1118 93.92 24.0067C93.745 23.9774 93.57 23.9424 93.3892 23.9132C92.8526 23.8197 92.3102 23.7379 91.7677 23.656C91.5286 23.621 91.2894 23.5859 91.0503 23.5509C90.5545 23.4807 90.0587 23.4165 89.5629 23.358C89.2654 23.323 88.9621 23.2879 88.6588 23.2587C88.2097 23.2119 87.7606 23.1593 87.3056 23.1184C86.9381 23.0834 86.5648 23.06 86.1974 23.0308C85.8007 23.0016 85.4099 22.9665 85.0075 22.9431C84.5408 22.9139 84.0684 22.8964 83.5959 22.873C83.2868 22.8613 82.9777 22.8438 82.6685 22.8321C81.9044 22.8087 81.1403 22.7912 80.3704 22.7912C80.3471 22.7912 80.3179 22.7912 80.2946 22.7912C80.2654 22.7912 80.2362 22.7912 80.2129 22.7912C79.5188 22.7912 78.8247 22.797 78.1364 22.8146C77.9264 22.8146 77.7164 22.8321 77.5065 22.8379C76.9932 22.8555 76.4799 22.873 75.9666 22.8964C75.7391 22.9081 75.5175 22.9256 75.29 22.9373C74.7884 22.9665 74.2926 23.0016 73.791 23.0366C73.5751 23.0541 73.3652 23.0717 73.1494 23.0892C72.6361 23.136 72.1228 23.1827 71.6153 23.2353C71.4228 23.2528 71.2304 23.2762 71.0379 23.2996C70.5013 23.358 69.9646 23.4281 69.428 23.4983C69.2647 23.5216 69.1072 23.5392 68.9439 23.5625C68.3723 23.6444 67.8007 23.732 67.2349 23.8197C67.1124 23.8372 66.9899 23.8606 66.8674 23.8781C66.255 23.9833 65.6425 24.0943 65.0301 24.2112C64.9542 24.2287 64.8726 24.2404 64.7968 24.2579C64.1085 24.3923 63.4261 24.5326 62.7494 24.6845C62.6678 24.1235 62.6036 23.5275 62.5745 22.984C62.1312 13.7336 69.6788 6.48167 78.7722 5.96743L78.7605 5.97328ZM84.9491 162.787C84.4417 165.86 80.0321 165.86 79.5246 162.787L78.1364 154.342C80.872 154.5 83.6251 154.442 86.3723 154.161L84.9491 162.787ZM87.1364 142.41C83.4034 143.129 79.7696 143.339 76.2874 143.117L66.3016 82.4661C66.08 81.1279 64.9251 80.1462 63.5719 80.1462H38.2458C37.435 80.1462 36.6942 80.602 36.3034 81.3149C30.8148 91.3484 29.1174 103.41 31.4855 114.67C35.7843 134.036 49.3515 146.915 65.3625 151.993L69.2005 175.315C69.2005 175.315 69.2005 175.315 69.1947 175.315C65.6892 174.707 62.277 173.808 58.9756 172.645C58.9348 172.633 58.8998 172.615 58.859 172.604C58.4215 172.452 57.9899 172.288 57.5582 172.125C57.5057 172.107 57.4591 172.084 57.4066 172.066C56.9808 171.903 56.5492 171.733 56.1292 171.564C56.0884 171.546 56.0417 171.529 56.0009 171.511C55.5634 171.33 55.1318 171.149 54.7002 170.962L53.5453 170.447C51.218 169.413 48.9198 168.279 46.8084 166.859C46.7617 166.83 46.715 166.801 46.6625 166.772C46.2776 166.538 45.8926 166.293 45.5135 166.053C45.4551 166.018 45.3968 165.977 45.3385 165.942C44.9768 165.708 44.6152 165.469 44.2594 165.229C44.1894 165.182 44.1136 165.13 44.0436 165.083C43.6936 164.843 43.3437 164.604 42.9995 164.358C42.9237 164.306 42.8537 164.253 42.7779 164.201C42.4279 163.955 42.0838 163.704 41.7396 163.447C41.6813 163.4 41.6171 163.353 41.5588 163.312C41.203 163.044 40.8472 162.775 40.4914 162.5C40.4739 162.483 40.4506 162.471 40.4331 162.453C38.5199 160.963 36.6826 159.368 34.9269 157.673C34.8569 157.603 34.7811 157.533 34.7111 157.463C34.4311 157.188 34.1511 156.908 33.8712 156.633C33.772 156.534 33.6787 156.44 33.5795 156.341C33.317 156.072 33.0546 155.803 32.7979 155.529C32.6929 155.418 32.5821 155.301 32.4771 155.19C32.2263 154.921 31.9813 154.652 31.7305 154.383C31.6197 154.261 31.5089 154.138 31.3981 154.015C31.1531 153.746 30.9139 153.472 30.6748 153.203C30.564 153.08 30.459 152.952 30.354 152.829C30.1148 152.549 29.8757 152.274 29.6424 151.988C29.549 151.871 29.4557 151.754 29.3566 151.643C29.1116 151.345 28.8666 151.047 28.6275 150.743C28.575 150.673 28.5225 150.603 28.4641 150.538C27.6359 149.492 26.8368 148.417 26.061 147.318C25.9794 147.202 25.8977 147.091 25.8219 146.98C25.6294 146.699 25.4369 146.413 25.2444 146.132C25.1336 145.963 25.017 145.799 24.9061 145.63C24.7311 145.361 24.5562 145.092 24.3812 144.823C24.2587 144.636 24.1362 144.443 24.0195 144.256C23.8562 143.993 23.6871 143.731 23.5296 143.462C23.4071 143.257 23.2846 143.059 23.1621 142.854C23.0046 142.591 22.8471 142.334 22.6955 142.071C22.573 141.861 22.4505 141.644 22.328 141.434C22.1764 141.171 22.0305 140.914 21.8847 140.651C21.7622 140.429 21.6456 140.213 21.5231 139.991C21.3831 139.728 21.2431 139.471 21.1031 139.208C20.9806 138.98 20.864 138.746 20.7473 138.518C20.6132 138.261 20.479 137.998 20.3507 137.741C20.2282 137.495 20.1116 137.25 19.9949 137.005C19.8724 136.753 19.7499 136.502 19.6274 136.251C19.4349 135.842 19.2483 135.433 19.0616 135.018C18.9275 134.72 18.7992 134.422 18.6708 134.124C18.5484 133.837 18.42 133.551 18.2975 133.259C18.1984 133.019 18.0992 132.774 18.0001 132.534C17.8892 132.26 17.7726 131.979 17.6618 131.699C17.5626 131.453 17.4693 131.202 17.376 130.956C17.271 130.676 17.166 130.401 17.061 130.121C16.9677 129.869 16.8802 129.618 16.7868 129.367C16.6877 129.086 16.5885 128.806 16.4894 128.52C16.4019 128.268 16.3202 128.017 16.2327 127.766C16.1394 127.479 16.0402 127.187 15.9527 126.901C15.8711 126.65 15.7953 126.404 15.7194 126.153C15.6261 125.855 15.5386 125.557 15.4511 125.259C15.3811 125.013 15.3053 124.768 15.2353 124.523C15.1478 124.207 15.0603 123.891 14.9728 123.576C14.9087 123.342 14.8445 123.108 14.7862 122.875C14.6929 122.518 14.6054 122.156 14.5179 121.799C14.4712 121.601 14.4187 121.408 14.3721 121.209C14.2437 120.654 14.1154 120.099 13.9929 119.544C13.9696 119.439 13.9521 119.328 13.9288 119.222C13.8354 118.767 13.7421 118.305 13.6546 117.849C13.6138 117.639 13.5788 117.428 13.538 117.218C13.4738 116.856 13.4038 116.493 13.3455 116.131C13.3046 115.897 13.2697 115.658 13.2347 115.424C13.1822 115.085 13.1297 114.74 13.0772 114.396C13.0422 114.15 13.0072 113.905 12.978 113.659C12.9314 113.32 12.8905 112.987 12.8497 112.648C12.8205 112.397 12.7914 112.146 12.7622 111.895C12.7272 111.556 12.6864 111.223 12.6572 110.884C12.6339 110.632 12.6106 110.381 12.5872 110.13C12.5581 109.785 12.5289 109.44 12.4997 109.095C12.4822 108.85 12.4589 108.599 12.4472 108.353C12.4239 107.991 12.4006 107.635 12.3831 107.272C12.3714 107.038 12.3539 106.805 12.3481 106.565C12.3306 106.168 12.3189 105.765 12.3072 105.367C12.3072 105.169 12.2956 104.97 12.2897 104.771C12.2781 104.169 12.2664 103.567 12.2664 102.965C12.2664 102.124 12.2839 101.288 12.3131 100.453C12.3189 100.242 12.3247 100.032 12.3364 99.8275C12.3656 99.0094 12.4064 98.1913 12.4647 97.3849C12.4647 97.3732 12.4647 97.3556 12.4647 97.3439C12.5231 96.52 12.5989 95.7019 12.6805 94.8838C12.7039 94.6793 12.7214 94.4747 12.7447 94.276C12.8322 93.4872 12.9255 92.6983 13.0363 91.9211C13.0363 91.8919 13.0422 91.8685 13.048 91.8393C13.1588 91.0328 13.293 90.2323 13.4271 89.4317C13.4621 89.233 13.4971 89.0402 13.5321 88.8473C13.6721 88.0818 13.8179 87.3163 13.9754 86.5566C13.9813 86.5274 13.9871 86.4982 13.9929 86.4632C14.1621 85.6743 14.3429 84.8912 14.5354 84.114C14.582 83.927 14.6287 83.7459 14.6754 83.5589C14.862 82.8109 15.0603 82.0688 15.2703 81.3325C15.282 81.2974 15.2878 81.2682 15.2995 81.2331C15.5211 80.4618 15.7544 79.7021 15.9994 78.9424C16.0519 78.773 16.1102 78.5976 16.1686 78.4282C16.4077 77.7036 16.6527 76.979 16.9093 76.266C16.921 76.2368 16.9327 76.2018 16.9443 76.1726C17.2185 75.4246 17.5043 74.6824 17.7959 73.9403C17.9126 73.6423 18.0351 73.3442 18.1576 73.0462C18.3792 72.4852 18.6242 71.9359 18.8692 71.3866C18.8867 71.3516 18.8983 71.3224 18.91 71.2873C19.2308 70.5568 19.5691 69.8381 19.9132 69.1252C20.0882 68.7629 20.269 68.4005 20.444 68.0324C20.6598 67.5708 20.9106 67.1266 21.1498 66.6708C21.1615 66.6475 21.1731 66.6241 21.1848 66.5949C21.5581 65.8878 21.9431 65.1924 22.3397 64.5029C22.4097 64.3801 22.4797 64.2574 22.5555 64.1347C22.9405 63.4685 23.3313 62.8082 23.7396 62.1537C23.7454 62.142 23.7571 62.1245 23.7629 62.1128C24.1829 61.435 24.6203 60.763 25.0636 60.1026C25.1219 60.015 25.1861 59.9215 25.2444 59.8338C25.6877 59.1735 26.1427 58.5249 26.6035 57.8762L26.621 57.8528C27.0876 57.2042 27.5717 56.5614 28.0617 55.9303C28.12 55.8543 28.1783 55.7842 28.2367 55.7082C28.7325 55.0771 29.2341 54.4519 29.7474 53.8324C30.2607 53.213 30.7914 52.6053 31.3281 52.0092C31.3922 51.9333 31.4622 51.8631 31.5264 51.7872C32.5938 50.6009 33.702 49.4556 34.8394 48.3511C34.9036 48.2927 34.9619 48.2284 35.0261 48.17C36.181 47.0597 37.365 45.9962 38.5841 44.9735C38.6424 44.9268 38.7007 44.88 38.7591 44.8274C39.9898 43.8048 41.2555 42.8231 42.5504 41.8881C42.6029 41.853 42.6554 41.8121 42.7079 41.7771C44.0144 40.8421 45.3502 39.9539 46.715 39.1182C46.7675 39.089 46.8142 39.0539 46.8667 39.0247C48.2374 38.1891 49.6431 37.406 51.0721 36.6756C51.1246 36.6522 51.1771 36.623 51.2238 36.5996C51.9354 36.2373 52.647 35.8926 53.3703 35.5536C55.7267 40.994 59.9905 45.9786 64.546 49.4263C68.3898 52.3189 72.7994 54.4285 77.1098 56.3627C79.6296 57.4672 82.4644 58.6125 84.955 59.7578C95.1507 64.4912 105.271 70.9951 111.798 80.1754H100.914C99.5604 80.1754 98.4054 81.1572 98.1838 82.4953L88.3613 142.176C87.9647 142.27 87.5622 142.357 87.1539 142.439L87.1364 142.41ZM63.4027 140.102C44.0378 131.973 32.7221 109.16 40.1589 87.4273C40.5147 86.3813 41.4947 85.6801 42.5971 85.6801H47.5141C51.5154 85.6801 54.9276 88.5785 55.5751 92.5347L63.4027 140.102ZM147.763 104.765C147.763 104.964 147.751 105.169 147.745 105.367C147.734 105.77 147.722 106.174 147.704 106.577C147.693 106.816 147.681 107.056 147.664 107.296C147.646 107.658 147.623 108.02 147.599 108.383C147.582 108.634 147.564 108.885 147.541 109.136C147.512 109.481 147.489 109.826 147.454 110.171C147.43 110.428 147.401 110.691 147.378 110.948C147.343 111.281 147.308 111.614 147.273 111.947C147.244 112.21 147.214 112.467 147.179 112.73C147.139 113.057 147.098 113.385 147.051 113.712C147.016 113.975 146.981 114.238 146.94 114.495C146.894 114.816 146.841 115.144 146.794 115.465C146.754 115.722 146.713 115.985 146.666 116.242C146.614 116.564 146.555 116.891 146.497 117.212C146.45 117.469 146.404 117.721 146.357 117.972C146.293 118.299 146.229 118.626 146.159 118.948C146.106 119.193 146.06 119.444 146.007 119.69C145.937 120.023 145.861 120.356 145.785 120.683C145.733 120.917 145.68 121.157 145.622 121.39C145.535 121.741 145.447 122.092 145.36 122.442C145.307 122.653 145.255 122.863 145.202 123.073C145.085 123.529 144.957 123.979 144.829 124.423C144.8 124.528 144.771 124.634 144.741 124.739C144.584 125.288 144.421 125.832 144.251 126.375C144.187 126.58 144.117 126.778 144.053 126.983C143.942 127.322 143.837 127.666 143.721 128.005C143.645 128.239 143.557 128.467 143.481 128.701C143.376 129.005 143.271 129.314 143.161 129.618C143.073 129.864 142.98 130.103 142.892 130.349C142.782 130.635 142.677 130.927 142.566 131.213C142.472 131.459 142.373 131.71 142.274 131.956C142.163 132.236 142.052 132.517 141.936 132.791C141.831 133.043 141.726 133.288 141.621 133.533C141.504 133.802 141.387 134.077 141.271 134.346C141.16 134.597 141.049 134.842 140.938 135.094C140.822 135.357 140.699 135.62 140.577 135.883C140.46 136.134 140.343 136.379 140.227 136.625C140.104 136.882 139.976 137.139 139.848 137.396C139.725 137.641 139.603 137.887 139.48 138.132C139.352 138.384 139.218 138.641 139.089 138.892C138.961 139.137 138.833 139.383 138.704 139.622C138.57 139.874 138.436 140.119 138.296 140.365C138.162 140.604 138.034 140.85 137.894 141.089C137.754 141.335 137.614 141.574 137.474 141.814C137.334 142.053 137.2 142.293 137.06 142.533C136.92 142.772 136.768 143.006 136.628 143.245C136.325 143.742 136.015 144.239 135.7 144.73C135.578 144.917 135.461 145.104 135.339 145.291C135.17 145.542 135.001 145.793 134.831 146.045C134.691 146.249 134.557 146.454 134.417 146.658C134.248 146.909 134.073 147.155 133.898 147.4C133.758 147.599 133.612 147.803 133.472 148.002C133.297 148.248 133.117 148.487 132.936 148.733C132.79 148.931 132.644 149.13 132.498 149.323C132.317 149.562 132.131 149.802 131.95 150.042C131.798 150.234 131.652 150.427 131.501 150.62C131.314 150.86 131.122 151.093 130.929 151.327C130.778 151.514 130.626 151.695 130.474 151.882C130.276 152.116 130.083 152.35 129.885 152.584C129.734 152.765 129.582 152.94 129.424 153.121C129.22 153.355 129.016 153.589 128.812 153.817C128.66 153.986 128.503 154.161 128.351 154.331C128.141 154.565 127.931 154.792 127.715 155.026C127.564 155.19 127.412 155.348 127.26 155.505C127.039 155.739 126.817 155.973 126.59 156.201C126.444 156.347 126.298 156.493 126.152 156.639C125.919 156.879 125.68 157.112 125.441 157.346C125.312 157.469 125.184 157.592 125.05 157.72C124.787 157.971 124.531 158.223 124.268 158.468C124.198 158.532 124.122 158.597 124.052 158.661C123.026 159.613 121.958 160.525 120.879 161.425C120.827 161.472 120.774 161.513 120.722 161.559C120.424 161.799 120.127 162.033 119.829 162.272C119.707 162.366 119.584 162.465 119.468 162.559C119.188 162.781 118.902 162.991 118.616 163.207C118.476 163.312 118.336 163.423 118.19 163.523C117.91 163.727 117.625 163.932 117.345 164.136C117.193 164.242 117.047 164.353 116.895 164.458C116.616 164.656 116.33 164.849 116.044 165.048C115.892 165.153 115.735 165.258 115.583 165.358C115.297 165.551 115.006 165.738 114.72 165.925C114.562 166.024 114.405 166.123 114.253 166.223C113.962 166.41 113.664 166.591 113.372 166.772C113.221 166.865 113.063 166.959 112.906 167.052C112.603 167.234 112.305 167.415 111.996 167.59C111.85 167.678 111.698 167.759 111.547 167.847C111.232 168.028 110.917 168.204 110.596 168.379C110.462 168.449 110.334 168.519 110.199 168.589C109.861 168.77 109.523 168.952 109.185 169.127C109.085 169.179 108.986 169.226 108.893 169.273C106.752 170.36 104.553 171.336 102.302 172.183C102.208 172.218 102.121 172.253 102.028 172.288C101.654 172.428 101.281 172.557 100.908 172.691C100.779 172.738 100.651 172.785 100.517 172.826C100.161 172.949 99.7995 173.065 99.4379 173.182C99.2921 173.229 99.1404 173.282 98.9946 173.328C98.6446 173.439 98.2888 173.545 97.933 173.65C97.7755 173.697 97.618 173.743 97.4605 173.79C97.1106 173.889 96.7548 173.989 96.399 174.082C96.2356 174.123 96.0723 174.17 95.909 174.211C95.5532 174.304 95.1974 174.392 94.8416 174.48C94.6783 174.52 94.5208 174.556 94.3575 174.596C93.9958 174.678 93.6342 174.76 93.2726 174.842C93.1151 174.877 92.9576 174.906 92.8001 174.941C92.4268 175.017 92.0535 175.093 91.6802 175.163C91.5402 175.193 91.3944 175.216 91.2544 175.239C90.8636 175.309 90.4728 175.379 90.0762 175.444C89.9712 175.461 89.8604 175.473 89.7554 175.491C89.3238 175.555 88.8921 175.625 88.4547 175.683L92.1527 153.232C103.346 150.778 113.991 144.502 122.023 133.972C132.848 119.684 135.059 101.627 129.786 85.6801H139.078C143.178 85.6801 146.649 88.7246 147.174 92.7976C147.273 93.5748 147.36 94.3579 147.436 95.1409C147.459 95.3571 147.477 95.5733 147.494 95.7954C147.541 96.3447 147.588 96.8998 147.629 97.455C147.646 97.7179 147.664 97.9751 147.681 98.238C147.71 98.7815 147.739 99.3308 147.757 99.8801C147.769 100.12 147.78 100.359 147.786 100.599C147.809 101.376 147.821 102.159 147.821 102.942C147.821 103.55 147.815 104.158 147.798 104.765H147.763Z" fill="#014D40"/>
</svg>
