<svg width="160" height="216" viewBox="0 0 160 216" fill="none" xmlns="http://www.w3.org/2000/svg">
<path d="M33.5041 208.434H36.5803V213.056C36.5803 213.581 36.4701 213.978 36.2498 214.239C36.0338 214.495 35.7165 214.618 35.289 214.618C34.6279 214.618 34.0902 214.309 33.6495 213.678L33.5261 213.502L32.6006 214.587L32.6711 214.693C32.9532 215.104 33.3322 215.431 33.7905 215.656C34.2489 215.881 34.7513 215.996 35.2846 215.996C36.2013 215.996 36.9108 215.74 37.3956 215.232C37.8716 214.729 38.114 213.974 38.114 212.994V207.044H33.5041V208.434Z" fill="#014D40"/>
<path d="M47.5367 212.142H51.8558V210.765H47.5367V208.448H52.3847V207.044H45.9766V216H52.5565V214.596H47.5367V212.142Z" fill="#014D40"/>
<path d="M68.4539 213.74L66.2018 207.044H64.8311L62.5306 213.705L60.3181 207.044H58.7051L61.6932 216H63.2445L65.479 209.458L67.709 216H69.2383L72.2264 207.044H70.7103L68.4539 213.74Z" fill="#014D40"/>
<path d="M79.9523 212.142H84.2669V210.765H79.9523V208.448H84.8002V207.044H78.3877V216H84.9721V214.596H79.9523V212.142Z" fill="#014D40"/>
<path d="M94.4293 207.044H92.8691V216H99.0921V214.596H94.4293V207.044Z" fill="#014D40"/>
<path d="M112.076 212.01C112.424 211.515 112.596 210.911 112.596 210.213C112.596 209.229 112.252 208.443 111.578 207.878C110.913 207.322 109.987 207.04 108.841 207.04H105.315V215.996H106.876V213.369H108.837C108.951 213.369 109.106 213.365 109.295 213.352L111.151 215.996H112.896L110.794 213.012C111.336 212.787 111.763 212.447 112.076 212.005V212.01ZM106.876 208.448H108.802C109.538 208.448 110.102 208.602 110.481 208.911C110.855 209.216 111.036 209.639 111.036 210.218C111.036 210.796 110.855 211.224 110.481 211.533C110.102 211.842 109.538 212.001 108.802 212.001H106.876V208.452V208.448Z" fill="#014D40"/>
<path d="M125.88 207.044L123.204 211.436L120.543 207.044H118.837L122.389 212.875V216H123.936V212.897L127.484 207.044H125.88Z" fill="#014D40"/>
<path d="M140.436 77.1134C140.432 76.619 140.423 76.1246 140.41 75.6347C140.401 75.3478 140.384 75.0653 140.37 74.7784C140.348 74.337 140.326 73.8956 140.295 73.4542C140.273 73.154 140.247 72.8539 140.22 72.5581C140.185 72.1344 140.146 71.715 140.101 71.2957C140.071 70.9911 140.035 70.691 139.996 70.3864C139.947 69.9715 139.89 69.561 139.833 69.1505C139.789 68.8504 139.744 68.5502 139.696 68.2501C139.63 67.8396 139.559 67.429 139.484 67.0185C139.432 66.7272 139.379 66.4359 139.321 66.1446C139.238 65.7252 139.149 65.3103 139.061 64.8954C139 64.6173 138.942 64.3437 138.881 64.0656C138.863 63.9817 138.845 63.8934 138.823 63.8096C138.806 63.7389 138.784 63.6727 138.766 63.6065C138.766 63.5977 138.762 63.5845 138.757 63.5756C138.33 61.7968 136.743 60.5432 134.919 60.5432H115.945C113.645 55.5113 110.3 50.881 105.972 47.0099C100.652 42.0839 94.6806 38.3541 88.2064 35.4364C82.217 32.7395 76.6287 31.8522 71.7014 27.4427C70.6437 26.4936 69.6344 25.2445 68.7794 23.7261C69.2202 23.6201 69.6609 23.5186 70.1016 23.4259C70.1369 23.4171 70.1677 23.4127 70.203 23.4038C70.6084 23.32 71.0183 23.2405 71.4238 23.1655C71.4899 23.1523 71.5516 23.1434 71.6177 23.1302C71.9967 23.064 72.3757 23.0022 72.7547 22.9404C72.8429 22.9271 72.9354 22.9139 73.0236 22.9007C73.3762 22.8477 73.7331 22.7991 74.0901 22.755C74.2003 22.7417 74.3105 22.7285 74.4207 22.7153C74.7556 22.6755 75.095 22.6402 75.4343 22.6093C75.5621 22.5961 75.69 22.5828 75.8178 22.574C76.1439 22.5475 76.47 22.521 76.8006 22.499C76.9372 22.4901 77.0738 22.4769 77.2104 22.4725C77.5454 22.4548 77.8803 22.4416 78.2153 22.4284C78.3431 22.4239 78.4709 22.4151 78.6031 22.4107C79.0659 22.3975 79.5286 22.3886 79.9914 22.3886C80.7098 22.3886 81.4237 22.4107 82.1377 22.4416C85.3462 22.6005 88.4753 23.1169 91.4942 23.9468C90.9125 24.9708 90.1941 25.9551 89.3127 26.6967C88.3783 27.4824 88.2682 28.8772 89.1055 29.7644C89.9209 30.6296 91.3532 30.4486 92.1157 29.7732C92.8473 29.1244 94.1738 27.4559 95.236 25.1562C103.469 28.2283 110.736 33.7105 116.382 40.8789C119.489 44.825 125.17 45.5842 129.269 42.6886C128.964 42.2604 128.651 41.8367 128.334 41.4174C128.25 41.3026 128.162 41.1923 128.079 41.0775C127.805 40.72 127.532 40.3712 127.254 40.0181C127.193 39.9431 127.135 39.8681 127.074 39.7886C126.748 39.3825 126.417 38.9808 126.082 38.588C126.025 38.5218 125.967 38.4512 125.906 38.385C125.628 38.0671 125.355 37.7449 125.068 37.4315C124.949 37.2991 124.835 37.1667 124.716 37.0387C124.39 36.6767 124.059 36.3192 123.724 35.9705C123.698 35.944 123.671 35.9131 123.645 35.8866C123.288 35.5159 122.927 35.1451 122.561 34.7831C122.446 34.6728 122.336 34.558 122.221 34.4477C121.939 34.174 121.657 33.9003 121.371 33.6311C121.265 33.534 121.159 33.4324 121.053 33.3353C120.683 32.991 120.304 32.6512 119.925 32.3157C119.824 32.223 119.718 32.1347 119.612 32.0465C119.317 31.7904 119.022 31.5388 118.726 31.2872C118.59 31.1725 118.453 31.0577 118.317 30.9474C117.99 30.6781 117.66 30.4133 117.325 30.1484C117.241 30.0822 117.162 30.0204 117.083 29.9542C116.695 29.6497 116.298 29.3539 115.901 29.0582C115.752 28.9478 115.602 28.8375 115.447 28.7271C115.161 28.5197 114.875 28.3166 114.588 28.1136C114.438 28.0076 114.293 27.9061 114.143 27.8002C113.742 27.5221 113.336 27.2529 112.927 26.9836C112.781 26.8909 112.636 26.7982 112.486 26.7011C112.191 26.5157 111.9 26.3303 111.6 26.1449C111.424 26.0346 111.243 25.9242 111.062 25.8183C110.754 25.6329 110.441 25.4475 110.124 25.2666C109.956 25.1694 109.789 25.0723 109.621 24.9796C109.233 24.7589 108.841 24.5471 108.449 24.3352C108.259 24.2337 108.065 24.1322 107.876 24.0351C107.598 23.8894 107.316 23.7481 107.034 23.6069C106.84 23.5098 106.646 23.4127 106.452 23.3156C106.025 23.1081 105.597 22.9051 105.17 22.7064C104.985 22.6226 104.795 22.5387 104.61 22.4548C104.319 22.3268 104.033 22.1988 103.737 22.0708C103.522 21.9781 103.306 21.8898 103.09 21.7972C102.794 21.6736 102.495 21.5544 102.195 21.4352C101.957 21.3425 101.723 21.2498 101.485 21.1571C101.093 21.007 100.701 20.8614 100.304 20.7201C100.084 20.6407 99.8591 20.5656 99.6388 20.4862C99.3567 20.3891 99.0746 20.292 98.7882 20.1993C98.5634 20.1243 98.3431 20.0536 98.1183 19.983C97.6688 19.8418 97.2148 19.7049 96.7565 19.5725C96.7565 19.5725 96.7565 19.5681 96.7565 19.5637C96.7653 19.471 96.7785 19.3783 96.7873 19.2812H96.7785C98.1315 5.08135 84.3766 -3.37145 71.4105 1.28531C63.6715 3.98668 58.396 11.2212 58.4842 19.4136C58.4313 20.0183 58.5018 20.5921 58.5238 21.1836C56.404 22.0002 54.337 22.9271 52.3361 23.9688C52.3273 23.9733 52.3141 23.9777 52.3052 23.9865C50.9875 24.6707 49.7006 25.4034 48.4445 26.1803C48.4137 26.1979 48.3828 26.22 48.352 26.2376C47.118 27.0057 45.9104 27.8134 44.7337 28.6653C44.6411 28.7315 44.5485 28.8022 44.4516 28.8684C43.3498 29.6717 42.2744 30.5192 41.2299 31.3976C41.1726 31.4461 41.1197 31.4903 41.0624 31.5388C39.9783 32.457 38.9249 33.4148 37.9069 34.4079C37.854 34.4565 37.8011 34.5095 37.7526 34.558C37.2237 35.0789 36.7037 35.6041 36.1925 36.1426C36.1792 36.1559 36.166 36.1691 36.1528 36.1824C35.7606 36.5222 35.3859 36.8798 35.0907 37.3079C34.9673 37.4889 34.8174 37.6434 34.6764 37.8067C34.2136 38.332 33.7641 38.8617 33.319 39.4002C33.2837 39.4399 33.2528 39.4796 33.2176 39.5238C32.8033 40.0358 32.3846 40.5434 31.9924 41.0687C31.9439 41.1349 31.891 41.1967 31.8425 41.2629C31.4283 41.8102 31.0184 42.3664 30.6217 42.9314C30.419 43.2183 30.2339 43.514 29.9739 43.77C29.7403 44.004 29.586 44.2953 29.4582 44.5999C29.4098 44.719 29.3392 44.8161 29.2731 44.9177C28.8985 45.4915 28.5371 46.0741 28.1845 46.6612C28.1184 46.7671 28.0567 46.8731 27.995 46.979C27.2987 48.1531 26.6376 49.3537 26.0206 50.5764C25.9589 50.7 25.8972 50.8192 25.8355 50.9428C25.5314 51.5563 25.2317 52.1699 24.9497 52.7966C24.9452 52.8099 24.9408 52.8231 24.932 52.832C24.7205 53.3043 24.5045 53.7677 24.3106 54.2489C24.2004 54.5225 24.0858 54.7918 23.9757 55.0654C23.72 55.6922 23.4732 56.3234 23.2396 56.959C23.222 57.012 23.2044 57.0606 23.1868 57.1135C22.9708 57.7183 22.7593 58.3274 22.5565 58.9365C22.5125 59.0689 22.4684 59.2014 22.4243 59.3338C22.2172 59.9738 22.0233 60.6183 21.8381 61.2715C21.8117 61.3686 21.7853 61.4702 21.7544 61.5673C21.5914 62.1543 21.4371 62.7414 21.2917 63.3329C21.2564 63.4653 21.2256 63.6021 21.1903 63.7345C21.0316 64.3922 20.8862 65.0543 20.754 65.7164C20.7275 65.8532 20.7011 65.9945 20.6746 66.1313C20.5556 66.7316 20.4499 67.3319 20.3485 67.9322C20.3309 68.0382 20.3133 68.1441 20.2956 68.2501C20.1898 68.9254 20.0929 69.6051 20.0092 70.2893C19.9739 70.5806 19.943 70.8764 19.9034 71.1677C19.8373 71.6577 19.802 72.1476 19.7624 72.642C19.7579 72.7214 19.7491 72.8009 19.7403 72.8803C19.683 73.5733 19.6434 74.2752 19.6125 74.9726C19.6037 75.1359 19.5993 75.3036 19.5905 75.4669C19.564 76.1776 19.5464 76.8882 19.542 77.6033C19.542 77.621 19.542 77.6386 19.542 77.6519C19.542 78.1418 19.5464 78.6318 19.5552 79.1217C19.5552 79.2939 19.5684 79.466 19.5728 79.6382C19.5817 79.9692 19.5949 80.3003 19.6081 80.6313C19.6169 80.8344 19.6301 81.0374 19.6434 81.2404C19.661 81.5362 19.6786 81.8363 19.6962 82.1321C19.7095 82.3439 19.7315 82.5602 19.7491 82.7721C19.7712 83.059 19.7976 83.3415 19.8241 83.624C19.8461 83.8403 19.8681 84.0566 19.8902 84.2729C19.921 84.5509 19.9519 84.829 19.9827 85.1071C20.0092 85.3234 20.0356 85.5397 20.0665 85.7604C20.1017 86.034 20.1414 86.3077 20.181 86.5814C20.2119 86.7977 20.2471 87.0139 20.278 87.2302C20.3221 87.5039 20.3661 87.7732 20.4102 88.0424C20.4455 88.2587 20.4851 88.475 20.5248 88.6869C20.5733 88.9605 20.6262 89.2298 20.6791 89.499C20.7187 89.7109 20.7628 89.9184 20.8025 90.1302C20.8598 90.4083 20.9215 90.6864 20.9832 90.9601C21.0272 91.1587 21.0713 91.3617 21.1154 91.5604C21.1859 91.8561 21.2564 92.1474 21.3313 92.4432C21.3754 92.6197 21.4195 92.8007 21.4635 92.9773C21.5605 93.3524 21.6619 93.7276 21.7676 94.1028C21.8029 94.2352 21.8426 94.3677 21.8778 94.5045C21.9968 94.9194 22.1202 95.3387 22.248 95.7493C22.3053 95.9302 22.367 96.1112 22.4243 96.2922C22.5125 96.5702 22.6006 96.8483 22.6932 97.122C22.7637 97.325 22.8342 97.5281 22.9047 97.7311C22.9928 97.9827 23.0766 98.2299 23.1691 98.4815C23.2485 98.6934 23.3278 98.9053 23.4071 99.1127C23.4953 99.3511 23.5834 99.585 23.676 99.819C23.7597 100.035 23.8478 100.247 23.9316 100.463C24.0241 100.689 24.1167 100.918 24.2092 101.143C24.3018 101.359 24.3943 101.58 24.4869 101.796C24.5839 102.017 24.6764 102.233 24.7734 102.454C24.8703 102.67 24.9717 102.891 25.0686 103.107C25.1656 103.319 25.267 103.531 25.3683 103.743C25.4741 103.964 25.5755 104.18 25.6857 104.401C25.787 104.608 25.8884 104.811 25.9942 105.019C26.1043 105.239 26.2145 105.456 26.3291 105.676C26.4305 105.875 26.5407 106.074 26.6464 106.272C26.7654 106.493 26.88 106.714 27.0034 106.934C27.1048 107.12 27.2106 107.305 27.3163 107.486C27.4441 107.716 27.5719 107.945 27.7042 108.17C27.7879 108.316 27.876 108.457 27.9598 108.598C28.3124 109.199 28.6782 109.79 29.0528 110.377C29.0792 110.421 29.1101 110.466 29.1365 110.51C29.304 110.766 29.4715 111.022 29.6433 111.278C29.7315 111.41 29.8196 111.547 29.9122 111.679C30.0752 111.922 30.2427 112.16 30.4102 112.399C30.5116 112.545 30.6129 112.69 30.7143 112.836C30.8818 113.07 31.0492 113.304 31.2211 113.533C31.3269 113.679 31.4327 113.82 31.5384 113.961C31.7103 114.195 31.8866 114.425 32.0629 114.654C32.1687 114.796 32.2789 114.932 32.3846 115.074C32.5653 115.303 32.746 115.533 32.9311 115.758C33.0369 115.89 33.1471 116.023 33.2528 116.155C33.4335 116.376 33.6186 116.597 33.7993 116.813C34.1828 117.267 34.5706 117.713 34.9673 118.155C34.9717 118.159 34.9761 118.168 34.9805 118.172C35.3551 118.592 35.7341 119.002 36.1219 119.408C36.166 119.457 36.2145 119.505 36.2586 119.554C38.2859 121.681 40.4675 123.663 42.7857 125.478C42.7989 125.486 42.8121 125.5 42.8253 125.508C43.244 125.835 43.6671 126.157 44.0946 126.471C44.3017 126.625 44.5089 126.775 44.716 126.925C44.7909 126.978 44.8659 127.036 44.9452 127.089C45.2449 127.3 45.549 127.512 45.8487 127.724C45.9192 127.773 45.9897 127.821 46.0602 127.87C46.3731 128.082 46.6905 128.294 47.0078 128.501C47.0607 128.536 47.118 128.572 47.1752 128.607C47.5102 128.823 47.8496 129.04 48.1889 129.251C48.2109 129.265 48.2374 129.282 48.2594 129.296C50.9214 130.942 53.72 132.385 56.6331 133.608C56.642 133.608 56.6508 133.617 56.6596 133.621C57.0562 133.789 57.4573 133.948 57.8583 134.107C57.8892 134.12 57.9245 134.133 57.9553 134.147C58.3475 134.301 58.7398 134.451 59.1364 134.597C59.1761 134.61 59.2158 134.628 59.2598 134.641C59.6521 134.787 60.0487 134.923 60.4454 135.06C60.485 135.074 60.5247 135.087 60.56 135.1C60.9654 135.237 61.3709 135.369 61.7808 135.502C61.8028 135.511 61.8248 135.515 61.8469 135.524C65.3418 136.623 68.9734 137.413 72.7063 137.863L75.0774 152.27C75.4343 154.168 77.0959 155.603 79.0967 155.603C81.0976 155.603 82.7547 154.168 83.1161 152.27L83.7772 148.258L85.4563 138.053C115.377 135.338 139.251 110.554 140.384 80.0442C140.41 79.3027 140.423 78.5656 140.423 77.8284C140.423 77.5901 140.414 77.3517 140.414 77.1089L140.436 77.1134ZM106.492 64.7233C114.271 80.6534 106.668 99.5718 90.7626 105.968L96.6992 69.9053C97.1928 66.917 99.771 64.7233 102.799 64.7233H106.492ZM79.0527 4.51195C82.9619 4.17648 86.9372 5.53158 89.7269 8.32564C92.4506 10.9431 93.7551 14.823 93.5304 18.5617C93.5216 18.6058 93.5083 18.6676 93.4907 18.7338C93.0191 18.6279 92.5432 18.5264 92.0716 18.4293C91.9923 18.4116 91.9129 18.394 91.8336 18.3807C91.3929 18.2924 90.9521 18.213 90.507 18.1335C90.3748 18.1115 90.2426 18.085 90.106 18.0629C89.7005 17.9923 89.2906 17.9305 88.8807 17.8687C88.7001 17.8422 88.5194 17.8157 88.3387 17.7892C87.9641 17.7363 87.5894 17.6877 87.2148 17.6436C86.9901 17.6171 86.7609 17.5906 86.5317 17.5685C86.1924 17.5332 85.853 17.4935 85.5092 17.4626C85.2316 17.4361 84.9495 17.4185 84.6719 17.3964C84.3722 17.3743 84.0769 17.3478 83.7728 17.3302C83.4202 17.3081 83.0632 17.2949 82.7062 17.2772C82.4727 17.2684 82.2391 17.2552 82.0055 17.2463C81.4282 17.2287 80.8508 17.2154 80.2691 17.2154C80.2514 17.2154 80.2294 17.2154 80.2118 17.2154C80.1897 17.2154 80.1677 17.2154 80.1501 17.2154C79.6256 17.2154 79.1011 17.2198 78.5811 17.2331C78.4224 17.2331 78.2638 17.2463 78.1051 17.2507C77.7173 17.264 77.3294 17.2772 76.9416 17.2949C76.7697 17.3037 76.6022 17.3169 76.4304 17.3258C76.0513 17.3478 75.6767 17.3743 75.2977 17.4008C75.1346 17.4141 74.976 17.4273 74.8129 17.4405C74.4251 17.4759 74.0372 17.5112 73.6538 17.5509C73.5084 17.5641 73.3629 17.5818 73.2175 17.5994C72.812 17.6436 72.4066 17.6966 72.0011 17.7495C71.8777 17.7672 71.7587 17.7804 71.6353 17.7981C71.2034 17.8599 70.7715 17.9261 70.344 17.9923C70.2514 18.0055 70.1589 18.0232 70.0663 18.0364C69.6036 18.1159 69.1408 18.1997 68.6781 18.288C68.6208 18.3013 68.5591 18.3101 68.5018 18.3233C67.9817 18.4249 67.4661 18.5308 66.9548 18.6456C66.8931 18.2218 66.8447 17.7716 66.8226 17.3611C66.4877 10.3737 72.1906 4.89596 79.0615 4.50753L79.0527 4.51195ZM83.7287 122.962C83.3453 125.283 80.0134 125.283 79.63 122.962L78.5811 116.583C80.6481 116.702 82.7283 116.658 84.8041 116.446L83.7287 122.962ZM85.3858 107.57C82.5652 108.113 79.8195 108.272 77.1884 108.104L69.6432 62.2912C69.4758 61.2804 68.6031 60.5388 67.5807 60.5388H48.4445C47.8319 60.5388 47.2722 60.8831 46.9769 61.4216C42.8297 69.0004 41.5472 78.1109 43.3366 86.6167C46.5847 101.245 56.8359 110.973 68.9337 114.809L71.8336 132.425C71.8336 132.425 71.8336 132.425 71.8292 132.425C69.1805 131.966 66.6023 131.286 64.1078 130.408C64.0769 130.399 64.0505 130.386 64.0196 130.377C63.6891 130.262 63.363 130.139 63.0368 130.015C62.9972 130.002 62.9619 129.984 62.9222 129.971C62.6005 129.847 62.2744 129.719 61.9571 129.591C61.9262 129.578 61.8909 129.565 61.8601 129.552C61.5296 129.415 61.2034 129.278 60.8773 129.137L60.0047 128.748C58.2462 127.967 56.5097 127.111 54.9143 126.038C54.8791 126.016 54.8438 125.994 54.8041 125.972C54.5133 125.795 54.2224 125.61 53.9359 125.429C53.8919 125.402 53.8478 125.372 53.8037 125.345C53.5305 125.169 53.2572 124.988 52.9884 124.807C52.9355 124.771 52.8782 124.732 52.8253 124.696C52.5609 124.515 52.2964 124.334 52.0364 124.149C51.9791 124.109 51.9262 124.069 51.8689 124.03C51.6045 123.844 51.3445 123.655 51.0845 123.46C51.0404 123.425 50.9919 123.39 50.9478 123.359C50.679 123.156 50.4101 122.953 50.1413 122.745C50.1281 122.732 50.1105 122.723 50.0972 122.71C48.6517 121.584 47.2634 120.379 45.9368 119.099C45.8839 119.046 45.8266 118.993 45.7738 118.94C45.5622 118.733 45.3507 118.521 45.1391 118.314C45.0642 118.239 44.9937 118.168 44.9188 118.093C44.7204 117.89 44.5221 117.687 44.3282 117.479C44.2489 117.395 44.1651 117.307 44.0858 117.223C43.8963 117.02 43.7112 116.817 43.5217 116.614C43.4379 116.522 43.3542 116.429 43.2705 116.336C43.0854 116.133 42.9047 115.926 42.724 115.723C42.6402 115.63 42.5609 115.533 42.4816 115.44C42.3009 115.228 42.1202 115.021 41.9439 114.804C41.8734 114.716 41.8028 114.628 41.7279 114.544C41.5428 114.319 41.3577 114.094 41.177 113.864C41.1374 113.811 41.0977 113.758 41.0536 113.71C40.4278 112.92 39.824 112.108 39.2379 111.278C39.1761 111.189 39.1144 111.106 39.0572 111.022C38.9117 110.81 38.7663 110.594 38.6208 110.382C38.5371 110.254 38.449 110.13 38.3652 110.002C38.233 109.799 38.1008 109.596 37.9686 109.393C37.876 109.252 37.7835 109.106 37.6953 108.965C37.5719 108.766 37.4441 108.567 37.3251 108.364C37.2326 108.21 37.14 108.06 37.0475 107.905C36.9285 107.707 36.8095 107.513 36.6949 107.314C36.6023 107.155 36.5098 106.992 36.4172 106.833C36.3026 106.634 36.1925 106.44 36.0823 106.241C35.9897 106.074 35.9016 105.91 35.809 105.743C35.7033 105.544 35.5975 105.35 35.4917 105.151C35.3992 104.979 35.311 104.802 35.2229 104.63C35.1215 104.436 35.0201 104.237 34.9232 104.043C34.8306 103.858 34.7425 103.672 34.6543 103.487C34.5618 103.297 34.4692 103.107 34.3767 102.918C34.2313 102.609 34.0902 102.3 33.9492 101.986C33.8478 101.761 33.7509 101.536 33.6539 101.311C33.5614 101.095 33.4644 100.878 33.3718 100.658C33.2969 100.477 33.222 100.291 33.1471 100.11C33.0633 99.9028 32.9752 99.6909 32.8915 99.4791C32.8165 99.2937 32.746 99.1039 32.6755 98.9185C32.5962 98.7066 32.5168 98.4992 32.4375 98.2873C32.367 98.0975 32.3009 97.9077 32.2304 97.7179C32.1554 97.506 32.0805 97.2941 32.0056 97.0779C31.9395 96.8881 31.8778 96.6983 31.8117 96.5085C31.7412 96.2922 31.6662 96.0715 31.6001 95.8552C31.5384 95.6654 31.4811 95.48 31.4238 95.2902C31.3533 95.0651 31.2872 94.84 31.2211 94.6149C31.1682 94.4295 31.1109 94.2441 31.0581 94.0587C30.9919 93.8203 30.9258 93.582 30.8597 93.3436C30.8112 93.1671 30.7628 92.9905 30.7187 92.8139C30.6482 92.5447 30.5821 92.271 30.516 92.0018C30.4807 91.8517 30.441 91.706 30.4058 91.556C30.3088 91.1366 30.2119 90.7173 30.1193 90.298C30.1017 90.2185 30.0885 90.1347 30.0708 90.0552C30.0003 89.7109 29.9298 89.3622 29.8637 89.0179C29.8328 88.859 29.8064 88.7001 29.7756 88.5412C29.7271 88.2675 29.6742 87.9939 29.6301 87.7202C29.5993 87.5436 29.5728 87.3627 29.5464 87.1861C29.5067 86.9301 29.467 86.6697 29.4274 86.4092C29.4009 86.2238 29.3745 86.0385 29.3525 85.8531C29.3172 85.5971 29.2863 85.3455 29.2555 85.0895C29.2335 84.8997 29.2114 84.7098 29.1894 84.52C29.1629 84.264 29.1321 84.0124 29.1101 83.7564C29.0924 83.5666 29.0748 83.3768 29.0572 83.187C29.0351 82.9266 29.0131 82.6662 28.9911 82.4057C28.9778 82.2203 28.9602 82.0305 28.9514 81.8452C28.9338 81.5715 28.9161 81.3022 28.9029 81.0286C28.8941 80.852 28.8809 80.6755 28.8765 80.4945C28.8633 80.1943 28.8544 79.8898 28.8456 79.5896C28.8456 79.4395 28.8368 79.2895 28.8324 79.1394C28.8236 78.6847 28.8148 78.2301 28.8148 77.7755C28.8148 77.1398 28.828 76.5086 28.85 75.8774C28.8544 75.7185 28.8589 75.5596 28.8677 75.4051C28.8897 74.7872 28.9206 74.1692 28.9646 73.5601C28.9646 73.5513 28.9646 73.538 28.9646 73.5292C29.0087 72.9068 29.066 72.2889 29.1277 71.6709C29.1453 71.5164 29.1585 71.3619 29.1762 71.2118C29.2423 70.616 29.3128 70.0201 29.3965 69.433C29.3965 69.4109 29.4009 69.3933 29.4053 69.3712C29.4891 68.7621 29.5904 68.1574 29.6918 67.5526C29.7183 67.4026 29.7447 67.2569 29.7711 67.1112C29.8769 66.533 29.9871 65.9548 30.1061 65.381C30.1105 65.3589 30.1149 65.3368 30.1193 65.3103C30.2471 64.7144 30.3837 64.123 30.5292 63.5359C30.5644 63.3947 30.5997 63.2578 30.635 63.1166C30.776 62.5516 30.9258 61.991 31.0845 61.4348C31.0933 61.4084 31.0977 61.3863 31.1065 61.3598C31.274 60.7772 31.4503 60.2033 31.6354 59.6295C31.6751 59.5015 31.7191 59.3691 31.7632 59.2411C31.9439 58.6937 32.129 58.1464 32.3229 57.6079C32.3317 57.5858 32.3406 57.5594 32.3494 57.5373C32.5565 56.9723 32.7725 56.4117 32.9928 55.8511C33.081 55.626 33.1735 55.4009 33.2661 55.1758C33.4335 54.752 33.6186 54.3371 33.8038 53.9222C33.817 53.8957 33.8258 53.8737 33.8346 53.8472C34.077 53.2954 34.3326 52.7525 34.5926 52.214C34.7249 51.9403 34.8615 51.6667 34.9937 51.3886C35.1568 51.0399 35.3463 50.7044 35.527 50.3601C35.5358 50.3425 35.5446 50.3248 35.5534 50.3027C35.8355 49.7686 36.1264 49.2434 36.426 48.7225C36.4789 48.6298 36.5318 48.5371 36.5891 48.4444C36.88 47.9412 37.1753 47.4425 37.4838 46.9481C37.4882 46.9393 37.497 46.926 37.5014 46.9172C37.8187 46.4052 38.1493 45.8976 38.4842 45.3988C38.5283 45.3326 38.5768 45.262 38.6208 45.1958C38.9558 44.697 39.2995 44.207 39.6477 43.7171L39.6609 43.6994C40.0135 43.2094 40.3793 42.7239 40.7495 42.2472C40.7936 42.1898 40.8377 42.1368 40.8817 42.0795C41.2564 41.6028 41.6354 41.1305 42.0232 40.6626C42.411 40.1947 42.8121 39.7356 43.2176 39.2854C43.266 39.228 43.3189 39.1751 43.3674 39.1177C44.1739 38.2216 45.0113 37.3565 45.8707 36.5222C45.9192 36.4781 45.9633 36.4296 46.0117 36.3854C46.8844 35.5468 47.779 34.7434 48.7001 33.971C48.7442 33.9356 48.7883 33.9003 48.8324 33.8606C49.7623 33.0882 50.7186 32.3466 51.6971 31.6404C51.7367 31.6139 51.7764 31.583 51.8161 31.5565C52.8033 30.8503 53.8125 30.1793 54.8438 29.5481C54.8835 29.5261 54.9187 29.4996 54.9584 29.4775C55.9941 28.8463 57.0562 28.2548 58.136 27.7031C58.1757 27.6854 58.2153 27.6634 58.2506 27.6457C58.7883 27.372 59.326 27.1116 59.8724 26.8556C61.653 30.965 64.8746 34.7302 68.3167 37.3344C71.221 39.5193 74.5529 41.1128 77.8098 42.5738C79.7137 43.4081 81.8557 44.2732 83.7375 45.1384C91.4414 48.7137 99.0879 53.6265 104.02 60.5609H95.7957C94.7732 60.5609 93.9006 61.3024 93.7331 62.3132L86.3113 107.393C86.0117 107.464 85.7076 107.53 85.399 107.592L85.3858 107.57ZM67.4529 105.826C52.8209 99.6865 44.2709 82.4543 49.8901 66.0386C50.1589 65.2485 50.8994 64.7189 51.7323 64.7189H55.4476C58.471 64.7189 61.0492 66.9082 61.5384 69.8965L67.4529 105.826ZM131.19 79.135C131.19 79.285 131.181 79.4395 131.177 79.5896C131.168 79.8942 131.159 80.1987 131.146 80.5033C131.137 80.6843 131.128 80.8653 131.115 81.0462C131.102 81.3199 131.084 81.5936 131.067 81.8672C131.053 82.057 131.04 82.2468 131.023 82.4366C131.001 82.6971 130.983 82.9575 130.956 83.2179C130.939 83.4121 130.917 83.6108 130.899 83.805C130.873 84.0566 130.846 84.3082 130.82 84.5598C130.798 84.7584 130.776 84.9526 130.749 85.1512C130.718 85.3984 130.688 85.6456 130.652 85.8928C130.626 86.0914 130.599 86.29 130.569 86.4843C130.533 86.727 130.494 86.9742 130.458 87.217C130.428 87.4112 130.397 87.6098 130.361 87.8041C130.322 88.0468 130.278 88.294 130.234 88.5368C130.198 88.731 130.163 88.9208 130.128 89.1106C130.079 89.3578 130.031 89.605 129.978 89.8477C129.938 90.0331 129.903 90.2229 129.863 90.4083C129.811 90.6599 129.753 90.9115 129.696 91.1587C129.656 91.3353 129.617 91.5162 129.573 91.6928C129.506 91.9576 129.44 92.2225 129.374 92.4873C129.335 92.6462 129.295 92.8051 129.255 92.964C129.167 93.3083 129.07 93.6482 128.973 93.9837C128.951 94.0631 128.929 94.1426 128.907 94.222C128.788 94.6369 128.665 95.0474 128.537 95.4579C128.488 95.6124 128.436 95.7625 128.387 95.917C128.303 96.173 128.224 96.4334 128.136 96.6894C128.079 96.866 128.012 97.0381 127.955 97.2147C127.876 97.4442 127.796 97.6782 127.713 97.9077C127.647 98.0931 127.576 98.274 127.51 98.4594C127.426 98.6757 127.347 98.8964 127.263 99.1127C127.193 99.2981 127.118 99.4879 127.043 99.6733C126.959 99.8852 126.875 100.097 126.787 100.304C126.708 100.494 126.629 100.68 126.549 100.865C126.461 101.068 126.373 101.276 126.285 101.479C126.201 101.668 126.117 101.854 126.034 102.044C125.945 102.242 125.853 102.441 125.76 102.639C125.672 102.829 125.584 103.015 125.496 103.2C125.403 103.394 125.306 103.589 125.209 103.783C125.117 103.968 125.024 104.153 124.932 104.339C124.835 104.529 124.733 104.723 124.637 104.913C124.54 105.098 124.443 105.283 124.346 105.464C124.244 105.654 124.143 105.84 124.037 106.025C123.936 106.206 123.839 106.391 123.733 106.572C123.627 106.758 123.521 106.939 123.416 107.12C123.31 107.301 123.209 107.482 123.103 107.663C122.997 107.844 122.882 108.02 122.777 108.201C122.547 108.576 122.314 108.952 122.076 109.322C121.983 109.464 121.895 109.605 121.803 109.746C121.675 109.936 121.547 110.126 121.419 110.315C121.313 110.47 121.212 110.624 121.106 110.779C120.979 110.969 120.846 111.154 120.714 111.339C120.608 111.49 120.498 111.644 120.392 111.794C120.26 111.98 120.124 112.16 119.987 112.346C119.877 112.496 119.767 112.646 119.656 112.792C119.52 112.973 119.379 113.154 119.242 113.335C119.127 113.48 119.017 113.626 118.903 113.772C118.762 113.953 118.616 114.129 118.471 114.306C118.356 114.447 118.242 114.584 118.127 114.725C117.977 114.902 117.832 115.078 117.682 115.255C117.567 115.392 117.453 115.524 117.334 115.661C117.179 115.837 117.025 116.014 116.871 116.186C116.756 116.314 116.637 116.446 116.523 116.574C116.364 116.751 116.206 116.923 116.042 117.1C115.928 117.223 115.813 117.343 115.699 117.462C115.531 117.638 115.364 117.815 115.192 117.987C115.082 118.097 114.971 118.208 114.861 118.318C114.685 118.499 114.504 118.676 114.324 118.852C114.227 118.945 114.13 119.037 114.028 119.135C113.83 119.324 113.636 119.514 113.438 119.7C113.385 119.748 113.328 119.797 113.275 119.845C112.499 120.565 111.693 121.253 110.877 121.933C110.838 121.968 110.798 121.999 110.758 122.035C110.533 122.216 110.309 122.392 110.084 122.573C109.991 122.644 109.899 122.719 109.811 122.789C109.599 122.957 109.383 123.116 109.167 123.279C109.061 123.359 108.956 123.443 108.845 123.518C108.634 123.672 108.418 123.827 108.206 123.981C108.092 124.061 107.982 124.144 107.867 124.224C107.656 124.374 107.44 124.52 107.224 124.67C107.109 124.749 106.99 124.829 106.875 124.904C106.659 125.049 106.439 125.191 106.223 125.332C106.104 125.407 105.985 125.482 105.871 125.557C105.65 125.698 105.425 125.835 105.205 125.972C105.09 126.042 104.972 126.113 104.853 126.184C104.623 126.321 104.399 126.457 104.165 126.59C104.055 126.656 103.94 126.718 103.826 126.784C103.588 126.921 103.35 127.053 103.107 127.186C103.006 127.239 102.909 127.292 102.808 127.345C102.552 127.481 102.296 127.618 102.041 127.751C101.966 127.79 101.891 127.826 101.82 127.861C100.203 128.682 98.5414 129.419 96.8402 130.059C96.7697 130.086 96.7036 130.112 96.6331 130.139C96.351 130.245 96.0689 130.342 95.7869 130.443C95.6899 130.479 95.5929 130.514 95.4916 130.545C95.2227 130.637 94.9495 130.726 94.6763 130.814C94.5661 130.849 94.4515 130.889 94.3413 130.924C94.0769 131.008 93.808 131.088 93.5392 131.167C93.4202 131.202 93.3012 131.238 93.1822 131.273C92.9178 131.348 92.6489 131.423 92.3801 131.494C92.2567 131.525 92.1333 131.56 92.0099 131.591C91.741 131.662 91.4722 131.728 91.2034 131.794C91.08 131.825 90.961 131.851 90.8376 131.882C90.5643 131.944 90.2911 132.006 90.0178 132.068C89.8988 132.094 89.7798 132.116 89.6608 132.143C89.3788 132.2 89.0967 132.257 88.8146 132.31C88.7089 132.332 88.5987 132.35 88.4929 132.368C88.1976 132.421 87.9024 132.474 87.6027 132.522C87.5233 132.535 87.4396 132.544 87.3603 132.558C87.0341 132.606 86.708 132.659 86.3774 132.703L89.1716 115.745C97.6291 113.891 105.672 109.15 111.741 101.196C119.921 90.4039 121.591 76.7646 117.607 64.7189H124.628C127.726 64.7189 130.348 67.0185 130.745 70.0951C130.82 70.6822 130.886 71.2736 130.943 71.8651C130.961 72.0284 130.974 72.1917 130.987 72.3595C131.023 72.7744 131.058 73.1937 131.089 73.6131C131.102 73.8117 131.115 74.0059 131.128 74.2045C131.15 74.615 131.172 75.03 131.186 75.4449C131.194 75.6258 131.203 75.8068 131.208 75.9878C131.225 76.5749 131.234 77.1663 131.234 77.7578C131.234 78.2169 131.23 78.6759 131.216 79.135H131.19Z" fill="#014D40"/>
<path d="M12.7413 184.131C8.17098 182.45 3.44204 180.715 3.44204 177.215C3.44204 174.994 6.13485 173.834 8.7924 173.834C14.2926 173.834 17.0251 175.855 19.2419 181.558L19.2948 181.695L20.1674 181.536V174.796L19.9603 174.451L19.9162 174.429C17.3909 173.079 13.9224 172.39 9.59892 172.39C3.59188 172.39 0 175.815 0 179.126C0 183.58 5.18289 185.464 10.1983 187.287C14.5306 188.863 18.6205 190.346 18.6205 193.237C18.6205 196.129 15.4693 197.289 12.3446 197.289C7.09562 197.289 3.93565 195.109 1.07536 189.521L1.01365 189.397L0.185102 189.591H0.180691L0.0044048 189.631V196.045L0.185102 196.345L0.379021 196.667L0.418684 196.689C2.52093 197.854 7.30717 198.728 11.5469 198.728C15.7867 198.728 21.9479 196.698 21.9479 191.11C21.9479 187.508 17.4834 185.866 12.7501 184.127L12.7413 184.131Z" fill="#014D40"/>
<path d="M49.1574 190.99C47.8309 193.965 44.7811 197.443 40.559 197.443H35.2394C33.5603 197.443 32.6524 197.139 32.6524 195.532V186.047H39.4351C40.9071 186.047 43.0138 187.64 43.0138 188.752V188.929H43.9834V181.871H43.0138V182.047C43.0138 183.16 40.9071 184.753 39.4351 184.753H32.6524V175.594C32.6524 174.447 33.1416 173.683 35.5391 173.683H40.1667C44.2125 173.683 46.6277 177.192 47.9411 180.136L48.0072 180.282L48.8974 179.995L47.2932 172.712L46.8921 172.394H25.5039V173.356H25.6802C26.9803 173.356 28.5273 173.745 28.5273 175.594V195.523C28.5273 197.373 26.9803 197.761 25.6802 197.761H25.5039V198.724H47.28L47.6678 198.45L50.1182 191.167L49.228 190.827L49.1618 190.977L49.1574 190.99Z" fill="#014D40"/>
<path d="M81.2339 173.37H81.4101V172.408H73.8782V173.37H74.0545C74.9668 173.37 75.6367 173.582 75.8967 173.949C76.0994 174.231 76.0994 174.659 75.8967 175.207L68.5411 192.938L60.78 175.661C60.4494 174.946 60.4053 174.372 60.6521 173.997C60.9122 173.6 61.5204 173.375 62.3269 173.375H62.5032V172.413H51.8994V173.375H52.0757C53.4287 173.375 55.2136 173.997 56.1744 175.732L66.2317 198.499L66.6019 198.738H67.3996L67.7742 198.491L77.3819 175.388C78.2546 173.635 80.1673 173.375 81.2294 173.375L81.2339 173.37Z" fill="#014D40"/>
<path d="M99.2724 195.303L89.127 172.641L88.7568 172.403H88.0031L87.6241 172.663L78.8802 195.625C78.0032 197.558 75.9009 197.77 75.0415 197.77H74.8652V198.732H82.3972V197.77H82.2209C81.3086 197.77 80.6211 197.549 80.3346 197.17C80.1275 196.892 80.101 196.494 80.2553 195.996L82.168 190.981H92.6395L94.7859 195.625C95.0239 196.3 95.015 196.821 94.7594 197.179C94.4818 197.563 93.9 197.774 93.1243 197.774H92.948V198.737H103.552V197.774H103.376C102.04 197.774 100.163 197.126 99.2768 195.307L99.2724 195.303ZM82.6616 189.692L86.9322 178.424L92.0666 189.692H82.6616Z" fill="#014D40"/>
<path d="M146.946 172.315C139.26 172.315 133.892 177.749 133.892 185.526C133.892 193.303 139.26 198.737 146.946 198.737C154.632 198.737 160 193.303 160 185.526C160 177.749 154.632 172.315 146.946 172.315ZM148.131 197.148C142.323 197.148 138.109 191.842 138.109 184.533C138.109 179.686 139.436 173.904 145.76 173.904C151.543 173.904 155.738 179.21 155.738 186.519C155.738 191.366 154.42 197.148 148.131 197.148Z" fill="#014D40"/>
<path d="M120.472 186.978H120.648C121.931 186.978 123.46 187.354 123.46 189.154V195.18C122.023 195.851 120.375 196.164 118.29 196.164C114.866 196.164 111.948 194.659 110.071 191.931L110.053 191.904C109.264 190.748 108.691 189.411 108.348 187.923C107.51 184.793 107.96 182.136 108.484 180.446C108.678 179.634 109.057 178.773 109.573 177.956L109.626 177.877C110.071 177.188 110.609 176.544 111.137 176.067C112.014 175.272 113.971 173.944 117.211 173.944C117.863 173.944 118.542 174.001 119.22 174.107C119.727 174.204 120.172 174.319 120.578 174.456C123.733 175.617 125.615 178.812 126.457 180.609C126.594 180.914 126.73 181.231 126.862 181.562L126.915 181.695L127.435 181.602V174.655L127.426 174.641L127.202 174.262C124.628 173.021 121.168 172.39 116.898 172.39C115.267 172.39 113.742 172.628 112.363 173.105L112.235 173.149L111.935 173.26C106.827 175.092 103.777 179.695 103.777 185.588C103.777 193.33 109.119 198.737 116.77 198.737C119.586 198.737 122.177 197.991 124.253 196.592C124.443 196.486 124.579 196.477 124.694 196.477C125.346 196.477 126.065 197.245 126.523 198.433L126.576 198.57L127.444 198.411V189.154C127.444 187.327 128.149 186.978 129.454 186.978H129.63V186.029H120.467V186.978H120.472Z" fill="#014D40"/>
</svg>
